G75*
%MOIN*%
%OFA0B0*%
%FSLAX25Y25*%
%IPPOS*%
%LPD*%
%AMOC8*
5,1,8,0,0,1.08239X$1,22.5*
%
%ADD10C,0.06000*%
%ADD11R,0.01969X0.02362*%
%ADD12R,0.02362X0.01969*%
%ADD13R,0.03346X0.02559*%
%ADD14R,0.01693X0.01102*%
%ADD15R,0.01102X0.01693*%
%ADD16R,0.02362X0.05906*%
%ADD17C,0.01600*%
%ADD18C,0.03962*%
%ADD19C,0.01000*%
%ADD20C,0.04000*%
D10*
X0274417Y0102445D02*
X0280055Y0100393D01*
X0283475Y0109790D02*
X0277837Y0111842D01*
X0281257Y0121239D02*
X0286895Y0119187D01*
D11*
G36*
X0270379Y0072167D02*
X0269251Y0070556D01*
X0267317Y0071911D01*
X0268445Y0073522D01*
X0270379Y0072167D01*
G37*
G36*
X0268347Y0069264D02*
X0267219Y0067653D01*
X0265285Y0069008D01*
X0266413Y0070619D01*
X0268347Y0069264D01*
G37*
G36*
X0208297Y0020299D02*
X0206515Y0019467D01*
X0205517Y0021607D01*
X0207299Y0022439D01*
X0208297Y0020299D01*
G37*
G36*
X0205086Y0018802D02*
X0203304Y0017970D01*
X0202306Y0020110D01*
X0204088Y0020942D01*
X0205086Y0018802D01*
G37*
G36*
X0108099Y0015113D02*
X0106317Y0015945D01*
X0107315Y0018085D01*
X0109097Y0017253D01*
X0108099Y0015113D01*
G37*
G36*
X0104888Y0016610D02*
X0103106Y0017442D01*
X0104104Y0019582D01*
X0105886Y0018750D01*
X0104888Y0016610D01*
G37*
G36*
X0035658Y0067825D02*
X0034674Y0069528D01*
X0036718Y0070709D01*
X0037702Y0069006D01*
X0035658Y0067825D01*
G37*
G36*
X0033886Y0070894D02*
X0032902Y0072597D01*
X0034946Y0073778D01*
X0035930Y0072075D01*
X0033886Y0070894D01*
G37*
G36*
X0039066Y0235637D02*
X0037675Y0234246D01*
X0036006Y0235915D01*
X0037397Y0237306D01*
X0039066Y0235637D01*
G37*
G36*
X0041571Y0238142D02*
X0040180Y0236751D01*
X0038511Y0238420D01*
X0039902Y0239811D01*
X0041571Y0238142D01*
G37*
G36*
X0102864Y0283643D02*
X0101016Y0282970D01*
X0100208Y0285189D01*
X0102056Y0285862D01*
X0102864Y0283643D01*
G37*
G36*
X0106194Y0284855D02*
X0104346Y0284182D01*
X0103538Y0286401D01*
X0105386Y0287074D01*
X0106194Y0284855D01*
G37*
G36*
X0198168Y0284850D02*
X0196386Y0285682D01*
X0197384Y0287822D01*
X0199166Y0286990D01*
X0198168Y0284850D01*
G37*
G36*
X0201379Y0283353D02*
X0199597Y0284185D01*
X0200595Y0286325D01*
X0202377Y0285493D01*
X0201379Y0283353D01*
G37*
G36*
X0265213Y0235173D02*
X0264085Y0236784D01*
X0266019Y0238139D01*
X0267147Y0236528D01*
X0265213Y0235173D01*
G37*
G36*
X0267245Y0232270D02*
X0266117Y0233881D01*
X0268051Y0235236D01*
X0269179Y0233625D01*
X0267245Y0232270D01*
G37*
D12*
X0293696Y0155799D03*
X0293696Y0152256D03*
X0009936Y0152553D03*
X0009936Y0156096D03*
D13*
X0141376Y0172656D03*
X0141376Y0176002D03*
X0147085Y0176002D03*
X0147085Y0172656D03*
X0164736Y0172656D03*
X0164736Y0176002D03*
X0170445Y0176002D03*
X0170445Y0172656D03*
D14*
X0159136Y0172292D03*
X0159136Y0174300D03*
X0164736Y0182612D03*
X0164736Y0184620D03*
X0141376Y0184300D03*
X0141376Y0182292D03*
X0135616Y0174380D03*
X0135616Y0172372D03*
D15*
X0152212Y0176016D03*
X0154220Y0176016D03*
X0176292Y0176016D03*
X0178300Y0176016D03*
D16*
X0226096Y0050096D03*
X0238694Y0050096D03*
D17*
X0094006Y0048207D02*
X0047973Y0048207D01*
X0049582Y0046608D02*
X0094006Y0046608D01*
X0094006Y0045010D02*
X0051191Y0045010D01*
X0052053Y0044154D02*
X0043848Y0052304D01*
X0036308Y0061072D01*
X0029479Y0070405D01*
X0023404Y0080245D01*
X0018119Y0090531D01*
X0013658Y0101199D01*
X0010047Y0112186D01*
X0007310Y0123421D01*
X0005462Y0134837D01*
X0004516Y0146362D01*
X0004477Y0157926D01*
X0005346Y0169458D01*
X0007116Y0180886D01*
X0009778Y0192139D01*
X0013314Y0203150D01*
X0017704Y0213848D01*
X0022919Y0224170D01*
X0028928Y0234050D01*
X0035694Y0243429D01*
X0043174Y0252247D01*
X0051324Y0260452D01*
X0060092Y0267992D01*
X0069425Y0274821D01*
X0079265Y0280896D01*
X0089551Y0286181D01*
X0100220Y0290642D01*
X0111206Y0294253D01*
X0122441Y0296990D01*
X0133857Y0298838D01*
X0145382Y0299784D01*
X0156946Y0299823D01*
X0168478Y0298954D01*
X0179906Y0297184D01*
X0191159Y0294522D01*
X0202170Y0290986D01*
X0212868Y0286596D01*
X0223190Y0281381D01*
X0233070Y0275372D01*
X0242449Y0268606D01*
X0251267Y0261126D01*
X0259472Y0252976D01*
X0267012Y0244208D01*
X0273841Y0234875D01*
X0279916Y0225036D01*
X0285201Y0214749D01*
X0289662Y0204081D01*
X0293273Y0193094D01*
X0296010Y0181859D01*
X0297858Y0170443D01*
X0298804Y0158918D01*
X0298843Y0147354D01*
X0297974Y0135822D01*
X0296204Y0124394D01*
X0293542Y0113141D01*
X0290006Y0102130D01*
X0285616Y0091432D01*
X0280401Y0081110D01*
X0274392Y0071230D01*
X0267626Y0061851D01*
X0260146Y0053033D01*
X0251996Y0044828D01*
X0243228Y0037288D01*
X0233895Y0030459D01*
X0224056Y0024384D01*
X0213769Y0019099D01*
X0203101Y0014638D01*
X0202106Y0014638D01*
X0201874Y0014406D02*
X0203581Y0016113D01*
X0206524Y0017485D01*
X0206544Y0017541D01*
X0206599Y0017521D01*
X0209735Y0018983D01*
X0210245Y0020384D01*
X0210241Y0020392D01*
X0224855Y0030365D01*
X0225310Y0030176D01*
X0226822Y0030176D01*
X0228219Y0030755D01*
X0229287Y0031823D01*
X0229866Y0033220D01*
X0229866Y0034732D01*
X0229287Y0036129D01*
X0228219Y0037197D01*
X0226822Y0037776D01*
X0225310Y0037776D01*
X0223913Y0037197D01*
X0222845Y0036129D01*
X0222266Y0034732D01*
X0222266Y0034167D01*
X0210437Y0026095D01*
X0227499Y0043156D01*
X0244374Y0043156D01*
X0267004Y0065787D01*
X0268266Y0066009D01*
X0270250Y0068843D01*
X0270240Y0068901D01*
X0270298Y0068912D01*
X0272283Y0071746D01*
X0272024Y0073214D01*
X0271346Y0073689D01*
X0271346Y0098749D01*
X0271878Y0098261D01*
X0279310Y0095556D01*
X0281218Y0095639D01*
X0282949Y0096446D01*
X0284239Y0097854D01*
X0284892Y0099648D01*
X0284809Y0101556D01*
X0284002Y0103287D01*
X0282594Y0104577D01*
X0275161Y0107282D01*
X0273253Y0107199D01*
X0271523Y0106392D01*
X0271346Y0106199D01*
X0271346Y0126378D01*
X0294439Y0149472D01*
X0295623Y0149472D01*
X0296677Y0150526D01*
X0296677Y0153986D01*
X0296635Y0154028D01*
X0296677Y0154069D01*
X0296677Y0157529D01*
X0295623Y0158584D01*
X0294171Y0158584D01*
X0264721Y0188034D01*
X0264721Y0189337D01*
X0264142Y0190734D01*
X0263074Y0191802D01*
X0261677Y0192381D01*
X0260165Y0192381D01*
X0258768Y0191802D01*
X0257700Y0190734D01*
X0257121Y0189337D01*
X0257121Y0187825D01*
X0257700Y0186428D01*
X0258768Y0185360D01*
X0260165Y0184781D01*
X0261468Y0184781D01*
X0290715Y0155534D01*
X0290715Y0154069D01*
X0290757Y0154028D01*
X0290715Y0153986D01*
X0290715Y0152253D01*
X0266746Y0128284D01*
X0266746Y0074233D01*
X0266448Y0073807D01*
X0208221Y0132034D01*
X0208221Y0167403D01*
X0209246Y0166378D01*
X0209246Y0149503D01*
X0223996Y0134753D01*
X0223996Y0133450D01*
X0224575Y0132053D01*
X0225643Y0130985D01*
X0227040Y0130406D01*
X0228552Y0130406D01*
X0229949Y0130985D01*
X0231017Y0132053D01*
X0231596Y0133450D01*
X0231596Y0134962D01*
X0231017Y0136359D01*
X0229949Y0137427D01*
X0228552Y0138006D01*
X0227249Y0138006D01*
X0213846Y0151409D01*
X0213846Y0163194D01*
X0214540Y0162906D01*
X0216052Y0162906D01*
X0217449Y0163485D01*
X0218109Y0164145D01*
X0218768Y0163485D01*
X0220165Y0162906D01*
X0221677Y0162906D01*
X0223074Y0163485D01*
X0224142Y0164553D01*
X0224721Y0165950D01*
X0224721Y0167462D01*
X0224142Y0168859D01*
X0223221Y0169780D01*
X0223221Y0179903D01*
X0243371Y0159753D01*
X0243371Y0158450D01*
X0243950Y0157053D01*
X0245018Y0155985D01*
X0246415Y0155406D01*
X0247927Y0155406D01*
X0249324Y0155985D01*
X0250392Y0157053D01*
X0250971Y0158450D01*
X0250971Y0159962D01*
X0250392Y0161359D01*
X0249324Y0162427D01*
X0247927Y0163006D01*
X0246624Y0163006D01*
X0225971Y0183659D01*
X0225971Y0184962D01*
X0225392Y0186359D01*
X0224324Y0187427D01*
X0222927Y0188006D01*
X0221415Y0188006D01*
X0220721Y0187718D01*
X0220721Y0223206D01*
X0221626Y0224112D01*
X0222202Y0225502D01*
X0222202Y0227006D01*
X0221626Y0228396D01*
X0220563Y0229459D01*
X0220558Y0229461D01*
X0220558Y0229461D01*
X0219168Y0230037D01*
X0217664Y0230037D01*
X0217596Y0230009D01*
X0217596Y0254729D01*
X0214837Y0257488D01*
X0214837Y0258928D01*
X0214261Y0260318D01*
X0213198Y0261381D01*
X0211808Y0261957D01*
X0210304Y0261957D01*
X0208914Y0261381D01*
X0207851Y0260318D01*
X0207275Y0258928D01*
X0207275Y0257424D01*
X0207851Y0256034D01*
X0208914Y0254971D01*
X0210304Y0254395D01*
X0211424Y0254395D01*
X0212996Y0252823D01*
X0212996Y0190005D01*
X0212449Y0190552D01*
X0211052Y0191131D01*
X0209749Y0191131D01*
X0204471Y0196409D01*
X0204471Y0198632D01*
X0205392Y0199553D01*
X0205971Y0200950D01*
X0205971Y0202462D01*
X0205392Y0203859D01*
X0204324Y0204927D01*
X0202927Y0205506D01*
X0201415Y0205506D01*
X0200096Y0204960D01*
X0200096Y0281965D01*
X0201295Y0281406D01*
X0202696Y0281916D01*
X0202983Y0282531D01*
X0207468Y0282531D01*
X0216121Y0273878D01*
X0217468Y0272531D01*
X0226218Y0272531D01*
X0242371Y0256378D01*
X0243718Y0255031D01*
X0244968Y0255031D01*
X0262400Y0237599D01*
X0262182Y0236363D01*
X0264043Y0233705D01*
X0233968Y0203631D01*
X0232665Y0203631D01*
X0231268Y0203052D01*
X0230200Y0201984D01*
X0229621Y0200587D01*
X0229621Y0199075D01*
X0230200Y0197678D01*
X0231268Y0196610D01*
X0232665Y0196031D01*
X0234177Y0196031D01*
X0235574Y0196610D01*
X0236642Y0197678D01*
X0237221Y0199075D01*
X0237221Y0200378D01*
X0267279Y0230436D01*
X0267667Y0230368D01*
X0270824Y0232578D01*
X0271083Y0234046D01*
X0269098Y0236880D01*
X0269040Y0236891D01*
X0269050Y0236949D01*
X0267066Y0239783D01*
X0266648Y0239857D01*
X0266249Y0240256D01*
X0246874Y0259631D01*
X0245624Y0259631D01*
X0228124Y0277131D01*
X0219374Y0277131D01*
X0210721Y0285784D01*
X0209374Y0287131D01*
X0203125Y0287131D01*
X0200679Y0288271D01*
X0200624Y0288251D01*
X0200604Y0288307D01*
X0197468Y0289769D01*
X0196067Y0289259D01*
X0194438Y0285767D01*
X0194948Y0284365D01*
X0195496Y0284110D01*
X0195496Y0177718D01*
X0195330Y0177787D01*
X0195346Y0177825D01*
X0195346Y0179337D01*
X0194767Y0180734D01*
X0193699Y0181802D01*
X0192302Y0182381D01*
X0190999Y0182381D01*
X0186249Y0187131D01*
X0165792Y0187131D01*
X0165376Y0187319D01*
X0164877Y0187131D01*
X0164343Y0187131D01*
X0164183Y0186971D01*
X0163415Y0186971D01*
X0162892Y0188234D01*
X0161824Y0189302D01*
X0160427Y0189881D01*
X0158915Y0189881D01*
X0157518Y0189302D01*
X0156450Y0188234D01*
X0156140Y0187486D01*
X0155574Y0188052D01*
X0154177Y0188631D01*
X0152665Y0188631D01*
X0151268Y0188052D01*
X0150347Y0187131D01*
X0141905Y0187131D01*
X0141340Y0187312D01*
X0140988Y0187131D01*
X0140593Y0187131D01*
X0140174Y0186711D01*
X0140057Y0186651D01*
X0139784Y0186651D01*
X0138730Y0185597D01*
X0138730Y0180995D01*
X0139246Y0180479D01*
X0139246Y0179859D01*
X0139142Y0180109D01*
X0138074Y0181177D01*
X0136677Y0181756D01*
X0135165Y0181756D01*
X0133768Y0181177D01*
X0132700Y0180109D01*
X0132121Y0178712D01*
X0132121Y0177200D01*
X0132700Y0175803D01*
X0132970Y0175533D01*
X0132970Y0171286D01*
X0100004Y0171286D01*
X0127874Y0199156D01*
X0129177Y0199156D01*
X0130574Y0199735D01*
X0131642Y0200803D01*
X0132221Y0202200D01*
X0132221Y0203712D01*
X0131642Y0205109D01*
X0130574Y0206177D01*
X0129177Y0206756D01*
X0127665Y0206756D01*
X0126268Y0206177D01*
X0125200Y0205109D01*
X0124621Y0203712D01*
X0124621Y0202409D01*
X0092996Y0170784D01*
X0092996Y0129534D01*
X0037104Y0073642D01*
X0036346Y0074955D01*
X0036346Y0129534D01*
X0012917Y0152963D01*
X0012917Y0154283D01*
X0012875Y0154324D01*
X0012917Y0154366D01*
X0012917Y0157826D01*
X0012596Y0158147D01*
X0012596Y0180128D01*
X0018749Y0186281D01*
X0020096Y0187628D01*
X0020096Y0191589D01*
X0020787Y0190898D01*
X0023202Y0189897D01*
X0025817Y0189897D01*
X0028232Y0190898D01*
X0030080Y0192747D01*
X0031081Y0195162D01*
X0031081Y0197776D01*
X0030080Y0200192D01*
X0028232Y0202040D01*
X0025817Y0203041D01*
X0023202Y0203041D01*
X0020787Y0202040D01*
X0020096Y0201349D01*
X0020096Y0205128D01*
X0028108Y0213141D01*
X0030246Y0211003D01*
X0030246Y0209700D01*
X0030825Y0208303D01*
X0031893Y0207235D01*
X0033290Y0206656D01*
X0034802Y0206656D01*
X0036199Y0207235D01*
X0037267Y0208303D01*
X0037846Y0209700D01*
X0037846Y0211212D01*
X0037267Y0212609D01*
X0036199Y0213677D01*
X0034802Y0214256D01*
X0033499Y0214256D01*
X0031361Y0216394D01*
X0031900Y0216932D01*
X0032600Y0216232D01*
X0035015Y0215231D01*
X0037630Y0215231D01*
X0040045Y0216232D01*
X0041894Y0218080D01*
X0042121Y0218629D01*
X0042121Y0217825D01*
X0042700Y0216428D01*
X0043621Y0215507D01*
X0043621Y0191655D01*
X0042700Y0190734D01*
X0042121Y0189337D01*
X0042121Y0187825D01*
X0042700Y0186428D01*
X0043768Y0185360D01*
X0045165Y0184781D01*
X0046677Y0184781D01*
X0048074Y0185360D01*
X0049142Y0186428D01*
X0049721Y0187825D01*
X0049721Y0189337D01*
X0049142Y0190734D01*
X0048221Y0191655D01*
X0048221Y0215507D01*
X0049142Y0216428D01*
X0049721Y0217825D01*
X0049721Y0219337D01*
X0049142Y0220734D01*
X0048074Y0221802D01*
X0046677Y0222381D01*
X0045165Y0222381D01*
X0043768Y0221802D01*
X0042894Y0220928D01*
X0042894Y0223110D01*
X0041894Y0225525D01*
X0040045Y0227374D01*
X0037630Y0228375D01*
X0035015Y0228375D01*
X0032600Y0227374D01*
X0031971Y0226745D01*
X0031971Y0227003D01*
X0037413Y0232445D01*
X0038421Y0232445D01*
X0040867Y0234891D01*
X0040867Y0234950D01*
X0040926Y0234950D01*
X0042257Y0236281D01*
X0056249Y0236281D01*
X0101025Y0281058D01*
X0104181Y0282206D01*
X0104206Y0282260D01*
X0104260Y0282235D01*
X0104996Y0282503D01*
X0187746Y0199753D01*
X0187746Y0198450D01*
X0188325Y0197053D01*
X0189393Y0195985D01*
X0190790Y0195406D01*
X0192302Y0195406D01*
X0193699Y0195985D01*
X0194767Y0197053D01*
X0195346Y0198450D01*
X0195346Y0199962D01*
X0194767Y0201359D01*
X0193699Y0202427D01*
X0192302Y0203006D01*
X0190999Y0203006D01*
X0107515Y0286490D01*
X0106823Y0288391D01*
X0105472Y0289021D01*
X0102221Y0287838D01*
X0102196Y0287784D01*
X0102142Y0287809D01*
X0098891Y0286626D01*
X0098261Y0285274D01*
X0098388Y0284925D01*
X0054343Y0240881D01*
X0041380Y0240881D01*
X0040648Y0241613D01*
X0039157Y0241613D01*
X0036710Y0239166D01*
X0036710Y0239107D01*
X0036651Y0239107D01*
X0034205Y0236661D01*
X0034205Y0235743D01*
X0027371Y0228909D01*
X0027371Y0218909D01*
X0027156Y0218693D01*
X0025809Y0217346D01*
X0015496Y0207034D01*
X0015496Y0189534D01*
X0007996Y0182034D01*
X0007996Y0158867D01*
X0006955Y0157826D01*
X0006955Y0154366D01*
X0006997Y0154324D01*
X0006955Y0154283D01*
X0006955Y0150823D01*
X0008009Y0149768D01*
X0009606Y0149768D01*
X0031746Y0127628D01*
X0031746Y0074009D01*
X0031355Y0073784D01*
X0030969Y0072344D01*
X0032699Y0069347D01*
X0032756Y0069332D01*
X0032741Y0069275D01*
X0034471Y0066279D01*
X0035911Y0065893D01*
X0039248Y0067820D01*
X0039634Y0069260D01*
X0039485Y0069518D01*
X0094006Y0124038D01*
X0094006Y0024887D01*
X0095207Y0023686D01*
X0106523Y0023686D01*
X0104310Y0021472D01*
X0104188Y0021529D01*
X0102787Y0021019D01*
X0101158Y0017527D01*
X0101668Y0016125D01*
X0104804Y0014663D01*
X0104859Y0014683D01*
X0104880Y0014628D01*
X0108015Y0013166D01*
X0109416Y0013676D01*
X0109757Y0014406D01*
X0201874Y0014406D01*
X0203101Y0014638D02*
X0192114Y0011027D01*
X0180879Y0008290D01*
X0169463Y0006442D01*
X0157938Y0005496D01*
X0146374Y0005457D01*
X0134842Y0006326D01*
X0123414Y0008096D01*
X0112161Y0010758D01*
X0101150Y0014294D01*
X0090452Y0018684D01*
X0080130Y0023899D01*
X0070250Y0029908D01*
X0060871Y0036674D01*
X0052053Y0044154D01*
X0052929Y0043411D02*
X0094006Y0043411D01*
X0094006Y0041813D02*
X0054813Y0041813D01*
X0056698Y0040214D02*
X0094006Y0040214D01*
X0094006Y0038616D02*
X0058582Y0038616D01*
X0060466Y0037017D02*
X0094006Y0037017D01*
X0094006Y0035419D02*
X0062611Y0035419D01*
X0064827Y0033820D02*
X0094006Y0033820D01*
X0094006Y0032222D02*
X0067043Y0032222D01*
X0069259Y0030623D02*
X0094006Y0030623D01*
X0094006Y0029025D02*
X0071702Y0029025D01*
X0074331Y0027426D02*
X0094006Y0027426D01*
X0094006Y0025828D02*
X0076959Y0025828D01*
X0079587Y0024229D02*
X0094664Y0024229D01*
X0092520Y0017835D02*
X0101302Y0017835D01*
X0101628Y0016237D02*
X0096416Y0016237D01*
X0100312Y0014638D02*
X0104876Y0014638D01*
X0105057Y0013040D02*
X0198238Y0013040D01*
X0193374Y0011441D02*
X0110034Y0011441D01*
X0116030Y0009843D02*
X0187252Y0009843D01*
X0180597Y0008244D02*
X0122789Y0008244D01*
X0132777Y0006646D02*
X0170720Y0006646D01*
X0203846Y0016237D02*
X0206924Y0016237D01*
X0207274Y0017835D02*
X0210747Y0017835D01*
X0209899Y0019434D02*
X0214421Y0019434D01*
X0213522Y0022631D02*
X0220643Y0022631D01*
X0223754Y0024229D02*
X0215864Y0024229D01*
X0218207Y0025828D02*
X0226394Y0025828D01*
X0228983Y0027426D02*
X0220549Y0027426D01*
X0222891Y0029025D02*
X0231572Y0029025D01*
X0234119Y0030623D02*
X0227902Y0030623D01*
X0229452Y0032222D02*
X0236304Y0032222D01*
X0238489Y0033820D02*
X0229866Y0033820D01*
X0229581Y0035419D02*
X0240673Y0035419D01*
X0242858Y0037017D02*
X0228399Y0037017D01*
X0226156Y0041813D02*
X0248490Y0041813D01*
X0250349Y0043411D02*
X0244629Y0043411D01*
X0246228Y0045010D02*
X0252177Y0045010D01*
X0253764Y0046608D02*
X0247826Y0046608D01*
X0249425Y0048207D02*
X0255352Y0048207D01*
X0256940Y0049805D02*
X0251023Y0049805D01*
X0252622Y0051404D02*
X0258528Y0051404D01*
X0260116Y0053002D02*
X0254220Y0053002D01*
X0255819Y0054601D02*
X0261476Y0054601D01*
X0262832Y0056199D02*
X0257417Y0056199D01*
X0259016Y0057798D02*
X0264188Y0057798D01*
X0265544Y0059396D02*
X0260614Y0059396D01*
X0262213Y0060995D02*
X0266900Y0060995D01*
X0268162Y0062593D02*
X0263811Y0062593D01*
X0265410Y0064192D02*
X0269315Y0064192D01*
X0270468Y0065791D02*
X0267026Y0065791D01*
X0269232Y0067389D02*
X0271621Y0067389D01*
X0272774Y0068988D02*
X0270351Y0068988D01*
X0271471Y0070586D02*
X0273927Y0070586D01*
X0274973Y0072185D02*
X0272205Y0072185D01*
X0271346Y0073783D02*
X0275945Y0073783D01*
X0276917Y0075382D02*
X0271346Y0075382D01*
X0271346Y0076980D02*
X0277889Y0076980D01*
X0278861Y0078579D02*
X0271346Y0078579D01*
X0271346Y0080177D02*
X0279833Y0080177D01*
X0280737Y0081776D02*
X0271346Y0081776D01*
X0271346Y0083374D02*
X0281545Y0083374D01*
X0282353Y0084973D02*
X0271346Y0084973D01*
X0271346Y0086571D02*
X0283160Y0086571D01*
X0283968Y0088170D02*
X0271346Y0088170D01*
X0271346Y0089768D02*
X0284776Y0089768D01*
X0285583Y0091367D02*
X0271346Y0091367D01*
X0271346Y0092965D02*
X0286245Y0092965D01*
X0286901Y0094564D02*
X0271346Y0094564D01*
X0271346Y0096162D02*
X0277645Y0096162D01*
X0273253Y0097761D02*
X0271346Y0097761D01*
X0266746Y0097761D02*
X0242494Y0097761D01*
X0240895Y0099359D02*
X0266746Y0099359D01*
X0266746Y0100958D02*
X0239297Y0100958D01*
X0237698Y0102556D02*
X0266746Y0102556D01*
X0266746Y0104155D02*
X0236100Y0104155D01*
X0234501Y0105753D02*
X0266746Y0105753D01*
X0266746Y0107352D02*
X0232903Y0107352D01*
X0231304Y0108950D02*
X0266746Y0108950D01*
X0266746Y0110549D02*
X0229706Y0110549D01*
X0228107Y0112147D02*
X0266746Y0112147D01*
X0266746Y0113746D02*
X0226509Y0113746D01*
X0224910Y0115344D02*
X0266746Y0115344D01*
X0266746Y0116943D02*
X0223312Y0116943D01*
X0221713Y0118541D02*
X0266746Y0118541D01*
X0266746Y0120140D02*
X0220115Y0120140D01*
X0218516Y0121738D02*
X0266746Y0121738D01*
X0266746Y0123337D02*
X0216918Y0123337D01*
X0215319Y0124935D02*
X0266746Y0124935D01*
X0266746Y0126534D02*
X0213721Y0126534D01*
X0212122Y0128132D02*
X0266746Y0128132D01*
X0268193Y0129731D02*
X0210524Y0129731D01*
X0208925Y0131329D02*
X0225299Y0131329D01*
X0224212Y0132928D02*
X0208221Y0132928D01*
X0208221Y0134526D02*
X0223996Y0134526D01*
X0222624Y0136125D02*
X0208221Y0136125D01*
X0208221Y0137724D02*
X0221026Y0137724D01*
X0219427Y0139322D02*
X0208221Y0139322D01*
X0208221Y0140921D02*
X0217829Y0140921D01*
X0216230Y0142519D02*
X0208221Y0142519D01*
X0208221Y0144118D02*
X0214632Y0144118D01*
X0213033Y0145716D02*
X0208221Y0145716D01*
X0208221Y0147315D02*
X0211435Y0147315D01*
X0209836Y0148913D02*
X0208221Y0148913D01*
X0208221Y0150512D02*
X0209246Y0150512D01*
X0209246Y0152110D02*
X0208221Y0152110D01*
X0208221Y0153709D02*
X0209246Y0153709D01*
X0209246Y0155307D02*
X0208221Y0155307D01*
X0208221Y0156906D02*
X0209246Y0156906D01*
X0209246Y0158504D02*
X0208221Y0158504D01*
X0208221Y0160103D02*
X0209246Y0160103D01*
X0209246Y0161701D02*
X0208221Y0161701D01*
X0208221Y0163300D02*
X0209246Y0163300D01*
X0209246Y0164898D02*
X0208221Y0164898D01*
X0208221Y0166497D02*
X0209128Y0166497D01*
X0213846Y0161701D02*
X0241423Y0161701D01*
X0243022Y0160103D02*
X0213846Y0160103D01*
X0213846Y0158504D02*
X0243371Y0158504D01*
X0244097Y0156906D02*
X0213846Y0156906D01*
X0213846Y0155307D02*
X0290715Y0155307D01*
X0290715Y0153709D02*
X0213846Y0153709D01*
X0213846Y0152110D02*
X0290572Y0152110D01*
X0288974Y0150512D02*
X0214743Y0150512D01*
X0216342Y0148913D02*
X0287375Y0148913D01*
X0285777Y0147315D02*
X0217940Y0147315D01*
X0219539Y0145716D02*
X0284178Y0145716D01*
X0282580Y0144118D02*
X0221137Y0144118D01*
X0222736Y0142519D02*
X0280981Y0142519D01*
X0279383Y0140921D02*
X0224334Y0140921D01*
X0225933Y0139322D02*
X0277784Y0139322D01*
X0276186Y0137724D02*
X0229234Y0137724D01*
X0231114Y0136125D02*
X0274587Y0136125D01*
X0272989Y0134526D02*
X0231596Y0134526D01*
X0231380Y0132928D02*
X0271390Y0132928D01*
X0269792Y0131329D02*
X0230293Y0131329D01*
X0216806Y0116943D02*
X0207106Y0116943D01*
X0207106Y0118541D02*
X0215208Y0118541D01*
X0213609Y0120140D02*
X0207106Y0120140D01*
X0207106Y0121738D02*
X0212011Y0121738D01*
X0210412Y0123337D02*
X0207106Y0123337D01*
X0207106Y0124935D02*
X0208814Y0124935D01*
X0207215Y0126534D02*
X0207106Y0126534D01*
X0207106Y0126643D02*
X0263768Y0069981D01*
X0263382Y0069429D01*
X0263496Y0068783D01*
X0242468Y0047756D01*
X0241676Y0047756D01*
X0241676Y0053794D01*
X0241308Y0054162D01*
X0241297Y0055198D01*
X0242187Y0056088D01*
X0242766Y0057485D01*
X0242766Y0058997D01*
X0242187Y0060394D01*
X0241119Y0061462D01*
X0239722Y0062041D01*
X0238210Y0062041D01*
X0236813Y0061462D01*
X0235745Y0060394D01*
X0235166Y0058997D01*
X0235166Y0057485D01*
X0235745Y0056088D01*
X0236698Y0055135D01*
X0236701Y0054782D01*
X0235713Y0053794D01*
X0235713Y0047756D01*
X0229077Y0047756D01*
X0229077Y0050096D01*
X0229077Y0053286D01*
X0228954Y0053744D01*
X0228717Y0054154D01*
X0228382Y0054489D01*
X0227972Y0054726D01*
X0227514Y0054849D01*
X0226096Y0054849D01*
X0226096Y0050096D01*
X0226096Y0050096D01*
X0229077Y0050096D01*
X0226096Y0050096D01*
X0226096Y0050096D01*
X0226096Y0054849D01*
X0224678Y0054849D01*
X0224220Y0054726D01*
X0223810Y0054489D01*
X0223475Y0054154D01*
X0223238Y0053744D01*
X0223115Y0053286D01*
X0223115Y0050096D01*
X0226096Y0050096D01*
X0226096Y0050096D01*
X0223115Y0050096D01*
X0223115Y0046906D01*
X0223238Y0046448D01*
X0223475Y0046038D01*
X0223675Y0045838D01*
X0207106Y0029269D01*
X0207106Y0126643D01*
X0207106Y0115344D02*
X0218405Y0115344D01*
X0220003Y0113746D02*
X0207106Y0113746D01*
X0207106Y0112147D02*
X0221602Y0112147D01*
X0223201Y0110549D02*
X0207106Y0110549D01*
X0207106Y0108950D02*
X0224799Y0108950D01*
X0226398Y0107352D02*
X0207106Y0107352D01*
X0207106Y0105753D02*
X0227996Y0105753D01*
X0229595Y0104155D02*
X0207106Y0104155D01*
X0207106Y0102556D02*
X0231193Y0102556D01*
X0232792Y0100958D02*
X0207106Y0100958D01*
X0207106Y0099359D02*
X0234390Y0099359D01*
X0235989Y0097761D02*
X0207106Y0097761D01*
X0207106Y0096162D02*
X0237587Y0096162D01*
X0239186Y0094564D02*
X0207106Y0094564D01*
X0207106Y0092965D02*
X0240784Y0092965D01*
X0242383Y0091367D02*
X0207106Y0091367D01*
X0207106Y0089768D02*
X0243981Y0089768D01*
X0245580Y0088170D02*
X0207106Y0088170D01*
X0207106Y0086571D02*
X0247178Y0086571D01*
X0248777Y0084973D02*
X0207106Y0084973D01*
X0207106Y0083374D02*
X0250375Y0083374D01*
X0251974Y0081776D02*
X0207106Y0081776D01*
X0207106Y0080177D02*
X0253572Y0080177D01*
X0255171Y0078579D02*
X0207106Y0078579D01*
X0207106Y0076980D02*
X0256769Y0076980D01*
X0258368Y0075382D02*
X0207106Y0075382D01*
X0207106Y0073783D02*
X0259966Y0073783D01*
X0261565Y0072185D02*
X0207106Y0072185D01*
X0207106Y0070586D02*
X0263163Y0070586D01*
X0263460Y0068988D02*
X0207106Y0068988D01*
X0207106Y0067389D02*
X0262101Y0067389D01*
X0260503Y0065791D02*
X0207106Y0065791D01*
X0207106Y0064192D02*
X0258904Y0064192D01*
X0257306Y0062593D02*
X0207106Y0062593D01*
X0207106Y0060995D02*
X0236346Y0060995D01*
X0235332Y0059396D02*
X0207106Y0059396D01*
X0207106Y0057798D02*
X0235166Y0057798D01*
X0235699Y0056199D02*
X0207106Y0056199D01*
X0207106Y0054601D02*
X0224003Y0054601D01*
X0223115Y0053002D02*
X0207106Y0053002D01*
X0207106Y0051404D02*
X0223115Y0051404D01*
X0223115Y0049805D02*
X0207106Y0049805D01*
X0207106Y0048207D02*
X0223115Y0048207D01*
X0223195Y0046608D02*
X0207106Y0046608D01*
X0207106Y0045010D02*
X0222847Y0045010D01*
X0221249Y0043411D02*
X0207106Y0043411D01*
X0207106Y0041813D02*
X0219650Y0041813D01*
X0218052Y0040214D02*
X0207106Y0040214D01*
X0207106Y0038616D02*
X0216453Y0038616D01*
X0214855Y0037017D02*
X0207106Y0037017D01*
X0207106Y0035419D02*
X0213256Y0035419D01*
X0211658Y0033820D02*
X0207106Y0033820D01*
X0207106Y0032222D02*
X0210059Y0032222D01*
X0208461Y0030623D02*
X0207106Y0030623D01*
X0211769Y0027426D02*
X0212388Y0027426D01*
X0213367Y0029025D02*
X0214731Y0029025D01*
X0214966Y0030623D02*
X0217073Y0030623D01*
X0216564Y0032222D02*
X0219415Y0032222D01*
X0218163Y0033820D02*
X0221758Y0033820D01*
X0222551Y0035419D02*
X0219761Y0035419D01*
X0221360Y0037017D02*
X0223733Y0037017D01*
X0222958Y0038616D02*
X0244772Y0038616D01*
X0246631Y0040214D02*
X0224557Y0040214D01*
X0229077Y0048207D02*
X0235713Y0048207D01*
X0235713Y0049805D02*
X0229077Y0049805D01*
X0229077Y0051404D02*
X0235713Y0051404D01*
X0235713Y0053002D02*
X0229077Y0053002D01*
X0228189Y0054601D02*
X0236520Y0054601D01*
X0241304Y0054601D02*
X0249313Y0054601D01*
X0247715Y0053002D02*
X0241676Y0053002D01*
X0241676Y0051404D02*
X0246116Y0051404D01*
X0244518Y0049805D02*
X0241676Y0049805D01*
X0241676Y0048207D02*
X0242919Y0048207D01*
X0242233Y0056199D02*
X0250912Y0056199D01*
X0252510Y0057798D02*
X0242766Y0057798D01*
X0242600Y0059396D02*
X0254109Y0059396D01*
X0255707Y0060995D02*
X0241586Y0060995D01*
X0226096Y0054601D02*
X0226096Y0054601D01*
X0226096Y0053002D02*
X0226096Y0053002D01*
X0226096Y0051404D02*
X0226096Y0051404D01*
X0217532Y0021032D02*
X0211180Y0021032D01*
X0264873Y0075382D02*
X0266746Y0075382D01*
X0266746Y0076980D02*
X0263275Y0076980D01*
X0261676Y0078579D02*
X0266746Y0078579D01*
X0266746Y0080177D02*
X0260078Y0080177D01*
X0258479Y0081776D02*
X0266746Y0081776D01*
X0266746Y0083374D02*
X0256881Y0083374D01*
X0255282Y0084973D02*
X0266746Y0084973D01*
X0266746Y0086571D02*
X0253684Y0086571D01*
X0252085Y0088170D02*
X0266746Y0088170D01*
X0266746Y0089768D02*
X0250486Y0089768D01*
X0248888Y0091367D02*
X0266746Y0091367D01*
X0266746Y0092965D02*
X0247289Y0092965D01*
X0245691Y0094564D02*
X0266746Y0094564D01*
X0266746Y0096162D02*
X0244092Y0096162D01*
X0271346Y0107352D02*
X0276140Y0107352D01*
X0275298Y0107658D02*
X0282731Y0104953D01*
X0284638Y0105036D01*
X0286369Y0105843D01*
X0287659Y0107251D01*
X0288312Y0109045D01*
X0288229Y0110953D01*
X0287422Y0112684D01*
X0286014Y0113974D01*
X0278581Y0116679D01*
X0276674Y0116596D01*
X0274943Y0115789D01*
X0273653Y0114381D01*
X0273000Y0112587D01*
X0273083Y0110679D01*
X0273890Y0108948D01*
X0275298Y0107658D01*
X0273889Y0108950D02*
X0271346Y0108950D01*
X0271346Y0110549D02*
X0273144Y0110549D01*
X0273019Y0112147D02*
X0271346Y0112147D01*
X0271346Y0113746D02*
X0273422Y0113746D01*
X0274536Y0115344D02*
X0271346Y0115344D01*
X0271346Y0116943D02*
X0279026Y0116943D01*
X0278718Y0117055D02*
X0286151Y0114350D01*
X0288059Y0114433D01*
X0289789Y0115240D01*
X0291079Y0116648D01*
X0291732Y0118442D01*
X0291649Y0120350D01*
X0290842Y0122081D01*
X0289434Y0123371D01*
X0282002Y0126076D01*
X0280094Y0125993D01*
X0278363Y0125186D01*
X0277073Y0123778D01*
X0276420Y0121983D01*
X0276503Y0120076D01*
X0277310Y0118345D01*
X0278718Y0117055D01*
X0277219Y0118541D02*
X0271346Y0118541D01*
X0271346Y0120140D02*
X0276501Y0120140D01*
X0276431Y0121738D02*
X0271346Y0121738D01*
X0271346Y0123337D02*
X0276913Y0123337D01*
X0278134Y0124935D02*
X0271346Y0124935D01*
X0271502Y0126534D02*
X0296535Y0126534D01*
X0296783Y0128132D02*
X0273100Y0128132D01*
X0274699Y0129731D02*
X0297031Y0129731D01*
X0297278Y0131329D02*
X0276297Y0131329D01*
X0277896Y0132928D02*
X0297526Y0132928D01*
X0297774Y0134526D02*
X0279494Y0134526D01*
X0281093Y0136125D02*
X0297997Y0136125D01*
X0298118Y0137724D02*
X0282691Y0137724D01*
X0284290Y0139322D02*
X0298238Y0139322D01*
X0298358Y0140921D02*
X0285888Y0140921D01*
X0287487Y0142519D02*
X0298479Y0142519D01*
X0298599Y0144118D02*
X0289085Y0144118D01*
X0290684Y0145716D02*
X0298720Y0145716D01*
X0298840Y0147315D02*
X0292282Y0147315D01*
X0293881Y0148913D02*
X0298838Y0148913D01*
X0298832Y0150512D02*
X0296663Y0150512D01*
X0296677Y0152110D02*
X0298827Y0152110D01*
X0298821Y0153709D02*
X0296677Y0153709D01*
X0296677Y0155307D02*
X0298816Y0155307D01*
X0298811Y0156906D02*
X0296677Y0156906D01*
X0295702Y0158504D02*
X0298805Y0158504D01*
X0298707Y0160103D02*
X0292652Y0160103D01*
X0291053Y0161701D02*
X0298575Y0161701D01*
X0298444Y0163300D02*
X0289455Y0163300D01*
X0287856Y0164898D02*
X0298313Y0164898D01*
X0298182Y0166497D02*
X0286258Y0166497D01*
X0284659Y0168095D02*
X0298051Y0168095D01*
X0297919Y0169694D02*
X0283061Y0169694D01*
X0281462Y0171292D02*
X0297720Y0171292D01*
X0297462Y0172891D02*
X0279864Y0172891D01*
X0278265Y0174489D02*
X0297203Y0174489D01*
X0296944Y0176088D02*
X0276667Y0176088D01*
X0275068Y0177686D02*
X0296686Y0177686D01*
X0296427Y0179285D02*
X0273470Y0179285D01*
X0271871Y0180883D02*
X0296168Y0180883D01*
X0295858Y0182482D02*
X0270273Y0182482D01*
X0268674Y0184080D02*
X0295469Y0184080D01*
X0295080Y0185679D02*
X0267076Y0185679D01*
X0265477Y0187277D02*
X0294690Y0187277D01*
X0294301Y0188876D02*
X0264721Y0188876D01*
X0264250Y0190474D02*
X0293911Y0190474D01*
X0293522Y0192073D02*
X0262421Y0192073D01*
X0259421Y0192073D02*
X0220721Y0192073D01*
X0220721Y0193671D02*
X0293083Y0193671D01*
X0292558Y0195270D02*
X0220721Y0195270D01*
X0220721Y0196868D02*
X0231010Y0196868D01*
X0229873Y0198467D02*
X0220721Y0198467D01*
X0220721Y0200065D02*
X0229621Y0200065D01*
X0230067Y0201664D02*
X0220721Y0201664D01*
X0220721Y0203262D02*
X0231775Y0203262D01*
X0235198Y0204861D02*
X0220721Y0204861D01*
X0220721Y0206459D02*
X0236797Y0206459D01*
X0238395Y0208058D02*
X0220721Y0208058D01*
X0220721Y0209657D02*
X0239994Y0209657D01*
X0241592Y0211255D02*
X0220721Y0211255D01*
X0220721Y0212854D02*
X0243191Y0212854D01*
X0244789Y0214452D02*
X0220721Y0214452D01*
X0220721Y0216051D02*
X0246388Y0216051D01*
X0247986Y0217649D02*
X0220721Y0217649D01*
X0220721Y0219248D02*
X0249585Y0219248D01*
X0251183Y0220846D02*
X0220721Y0220846D01*
X0220721Y0222445D02*
X0252782Y0222445D01*
X0254380Y0224043D02*
X0221558Y0224043D01*
X0222202Y0225642D02*
X0255979Y0225642D01*
X0257577Y0227240D02*
X0222105Y0227240D01*
X0221183Y0228839D02*
X0259176Y0228839D01*
X0260774Y0230437D02*
X0217596Y0230437D01*
X0217596Y0232036D02*
X0262373Y0232036D01*
X0263972Y0233634D02*
X0217596Y0233634D01*
X0217596Y0235233D02*
X0262973Y0235233D01*
X0262264Y0236831D02*
X0217596Y0236831D01*
X0217596Y0238430D02*
X0261570Y0238430D01*
X0259971Y0240028D02*
X0217596Y0240028D01*
X0217596Y0241627D02*
X0258373Y0241627D01*
X0256774Y0243225D02*
X0217596Y0243225D01*
X0217596Y0244824D02*
X0255176Y0244824D01*
X0253577Y0246422D02*
X0217596Y0246422D01*
X0217596Y0248021D02*
X0251979Y0248021D01*
X0250380Y0249619D02*
X0217596Y0249619D01*
X0217596Y0251218D02*
X0248781Y0251218D01*
X0247183Y0252816D02*
X0217596Y0252816D01*
X0217596Y0254415D02*
X0245584Y0254415D01*
X0242736Y0256013D02*
X0216311Y0256013D01*
X0214837Y0257612D02*
X0241137Y0257612D01*
X0239539Y0259210D02*
X0214720Y0259210D01*
X0213770Y0260809D02*
X0237940Y0260809D01*
X0236342Y0262407D02*
X0200096Y0262407D01*
X0200096Y0260809D02*
X0208342Y0260809D01*
X0207392Y0259210D02*
X0200096Y0259210D01*
X0200096Y0257612D02*
X0207275Y0257612D01*
X0207871Y0256013D02*
X0200096Y0256013D01*
X0200096Y0254415D02*
X0210256Y0254415D01*
X0212996Y0252816D02*
X0200096Y0252816D01*
X0200096Y0251218D02*
X0212996Y0251218D01*
X0212996Y0249619D02*
X0200096Y0249619D01*
X0200096Y0248021D02*
X0212996Y0248021D01*
X0212996Y0246422D02*
X0200096Y0246422D01*
X0200096Y0244824D02*
X0212996Y0244824D01*
X0212996Y0243225D02*
X0200096Y0243225D01*
X0200096Y0241627D02*
X0212996Y0241627D01*
X0212996Y0240028D02*
X0200096Y0240028D01*
X0200096Y0238430D02*
X0212996Y0238430D01*
X0212996Y0236831D02*
X0200096Y0236831D01*
X0200096Y0235233D02*
X0212996Y0235233D01*
X0212996Y0233634D02*
X0200096Y0233634D01*
X0200096Y0232036D02*
X0212996Y0232036D01*
X0212996Y0230437D02*
X0200096Y0230437D01*
X0200096Y0228839D02*
X0212996Y0228839D01*
X0212996Y0227240D02*
X0200096Y0227240D01*
X0200096Y0225642D02*
X0212996Y0225642D01*
X0212996Y0224043D02*
X0200096Y0224043D01*
X0200096Y0222445D02*
X0212996Y0222445D01*
X0212996Y0220846D02*
X0200096Y0220846D01*
X0200096Y0219248D02*
X0212996Y0219248D01*
X0212996Y0217649D02*
X0200096Y0217649D01*
X0200096Y0216051D02*
X0212996Y0216051D01*
X0212996Y0214452D02*
X0200096Y0214452D01*
X0200096Y0212854D02*
X0212996Y0212854D01*
X0212996Y0211255D02*
X0200096Y0211255D01*
X0200096Y0209657D02*
X0212996Y0209657D01*
X0212996Y0208058D02*
X0200096Y0208058D01*
X0200096Y0206459D02*
X0212996Y0206459D01*
X0212996Y0204861D02*
X0204390Y0204861D01*
X0205639Y0203262D02*
X0212996Y0203262D01*
X0212996Y0201664D02*
X0205971Y0201664D01*
X0205605Y0200065D02*
X0212996Y0200065D01*
X0212996Y0198467D02*
X0204471Y0198467D01*
X0204471Y0196868D02*
X0212996Y0196868D01*
X0212996Y0195270D02*
X0205610Y0195270D01*
X0207208Y0193671D02*
X0212996Y0193671D01*
X0212996Y0192073D02*
X0208807Y0192073D01*
X0212527Y0190474D02*
X0212996Y0190474D01*
X0220721Y0190474D02*
X0257592Y0190474D01*
X0257121Y0188876D02*
X0220721Y0188876D01*
X0224474Y0187277D02*
X0257348Y0187277D01*
X0258449Y0185679D02*
X0225674Y0185679D01*
X0225971Y0184080D02*
X0262169Y0184080D01*
X0263767Y0182482D02*
X0227148Y0182482D01*
X0228746Y0180883D02*
X0265366Y0180883D01*
X0266965Y0179285D02*
X0230345Y0179285D01*
X0231943Y0177686D02*
X0268563Y0177686D01*
X0270162Y0176088D02*
X0233542Y0176088D01*
X0235140Y0174489D02*
X0271760Y0174489D01*
X0273359Y0172891D02*
X0236739Y0172891D01*
X0238337Y0171292D02*
X0274957Y0171292D01*
X0276556Y0169694D02*
X0239936Y0169694D01*
X0241534Y0168095D02*
X0278154Y0168095D01*
X0279753Y0166497D02*
X0243133Y0166497D01*
X0244731Y0164898D02*
X0281351Y0164898D01*
X0282950Y0163300D02*
X0246330Y0163300D01*
X0250050Y0161701D02*
X0284548Y0161701D01*
X0286147Y0160103D02*
X0250913Y0160103D01*
X0250971Y0158504D02*
X0287745Y0158504D01*
X0289344Y0156906D02*
X0250245Y0156906D01*
X0239825Y0163300D02*
X0222627Y0163300D01*
X0224285Y0164898D02*
X0238226Y0164898D01*
X0236628Y0166497D02*
X0224721Y0166497D01*
X0224459Y0168095D02*
X0235029Y0168095D01*
X0233431Y0169694D02*
X0223307Y0169694D01*
X0223221Y0171292D02*
X0231832Y0171292D01*
X0230234Y0172891D02*
X0223221Y0172891D01*
X0223221Y0174489D02*
X0228635Y0174489D01*
X0227037Y0176088D02*
X0223221Y0176088D01*
X0223221Y0177686D02*
X0225438Y0177686D01*
X0223840Y0179285D02*
X0223221Y0179285D01*
X0235832Y0196868D02*
X0292032Y0196868D01*
X0291507Y0198467D02*
X0236969Y0198467D01*
X0237221Y0200065D02*
X0290982Y0200065D01*
X0290456Y0201664D02*
X0238507Y0201664D01*
X0240105Y0203262D02*
X0289931Y0203262D01*
X0289336Y0204861D02*
X0241704Y0204861D01*
X0243302Y0206459D02*
X0288667Y0206459D01*
X0287999Y0208058D02*
X0244901Y0208058D01*
X0246499Y0209657D02*
X0287331Y0209657D01*
X0286662Y0211255D02*
X0248098Y0211255D01*
X0249696Y0212854D02*
X0285994Y0212854D01*
X0285325Y0214452D02*
X0251295Y0214452D01*
X0252893Y0216051D02*
X0284532Y0216051D01*
X0283711Y0217649D02*
X0254492Y0217649D01*
X0256090Y0219248D02*
X0282890Y0219248D01*
X0282069Y0220846D02*
X0257689Y0220846D01*
X0259287Y0222445D02*
X0281247Y0222445D01*
X0280426Y0224043D02*
X0260886Y0224043D01*
X0262484Y0225642D02*
X0279542Y0225642D01*
X0278555Y0227240D02*
X0264083Y0227240D01*
X0265681Y0228839D02*
X0277568Y0228839D01*
X0276581Y0230437D02*
X0267766Y0230437D01*
X0270049Y0232036D02*
X0275594Y0232036D01*
X0274607Y0233634D02*
X0271010Y0233634D01*
X0270252Y0235233D02*
X0273579Y0235233D01*
X0272409Y0236831D02*
X0269133Y0236831D01*
X0268013Y0238430D02*
X0271240Y0238430D01*
X0270070Y0240028D02*
X0266476Y0240028D01*
X0264878Y0241627D02*
X0268901Y0241627D01*
X0267731Y0243225D02*
X0263279Y0243225D01*
X0261681Y0244824D02*
X0266482Y0244824D01*
X0265108Y0246422D02*
X0260082Y0246422D01*
X0258484Y0248021D02*
X0263733Y0248021D01*
X0262359Y0249619D02*
X0256885Y0249619D01*
X0255287Y0251218D02*
X0260984Y0251218D01*
X0259609Y0252816D02*
X0253688Y0252816D01*
X0252090Y0254415D02*
X0258023Y0254415D01*
X0256414Y0256013D02*
X0250491Y0256013D01*
X0248893Y0257612D02*
X0254805Y0257612D01*
X0253195Y0259210D02*
X0247294Y0259210D01*
X0244446Y0260809D02*
X0251586Y0260809D01*
X0249756Y0262407D02*
X0242847Y0262407D01*
X0241249Y0264006D02*
X0247872Y0264006D01*
X0245987Y0265604D02*
X0239650Y0265604D01*
X0238052Y0267203D02*
X0244103Y0267203D01*
X0242178Y0268801D02*
X0236453Y0268801D01*
X0234855Y0270400D02*
X0239962Y0270400D01*
X0237746Y0271998D02*
X0233256Y0271998D01*
X0231658Y0273597D02*
X0235531Y0273597D01*
X0233315Y0275195D02*
X0230059Y0275195D01*
X0230732Y0276794D02*
X0228461Y0276794D01*
X0228104Y0278393D02*
X0218112Y0278393D01*
X0216514Y0279991D02*
X0225475Y0279991D01*
X0222777Y0281590D02*
X0214915Y0281590D01*
X0213317Y0283188D02*
X0219613Y0283188D01*
X0216450Y0284787D02*
X0211718Y0284787D01*
X0210721Y0285784D02*
X0210721Y0285784D01*
X0210120Y0286385D02*
X0213286Y0286385D01*
X0209487Y0287984D02*
X0201297Y0287984D01*
X0201563Y0291181D02*
X0178509Y0291181D01*
X0178899Y0290235D02*
X0177869Y0292736D01*
X0175960Y0294653D01*
X0173462Y0295693D01*
X0131397Y0295779D01*
X0128896Y0294749D01*
X0126979Y0292840D01*
X0125939Y0290342D01*
X0125933Y0287637D01*
X0126963Y0285136D01*
X0128872Y0283219D01*
X0131370Y0282179D01*
X0173435Y0282093D01*
X0175936Y0283123D01*
X0177853Y0285032D01*
X0178893Y0287530D01*
X0178899Y0290235D01*
X0178897Y0289582D02*
X0196955Y0289582D01*
X0197869Y0289582D02*
X0205591Y0289582D01*
X0208410Y0281590D02*
X0201800Y0281590D01*
X0200901Y0281590D02*
X0200096Y0281590D01*
X0200096Y0279991D02*
X0210008Y0279991D01*
X0211607Y0278393D02*
X0200096Y0278393D01*
X0200096Y0276794D02*
X0213205Y0276794D01*
X0214804Y0275195D02*
X0200096Y0275195D01*
X0200096Y0273597D02*
X0216402Y0273597D01*
X0216121Y0273878D02*
X0216121Y0273878D01*
X0226751Y0271998D02*
X0200096Y0271998D01*
X0200096Y0270400D02*
X0228349Y0270400D01*
X0229948Y0268801D02*
X0200096Y0268801D01*
X0200096Y0267203D02*
X0231546Y0267203D01*
X0233145Y0265604D02*
X0200096Y0265604D01*
X0200096Y0264006D02*
X0234743Y0264006D01*
X0195496Y0264006D02*
X0129999Y0264006D01*
X0131597Y0262407D02*
X0195496Y0262407D01*
X0195496Y0260809D02*
X0133196Y0260809D01*
X0134794Y0259210D02*
X0195496Y0259210D01*
X0195496Y0257612D02*
X0136393Y0257612D01*
X0137991Y0256013D02*
X0195496Y0256013D01*
X0195496Y0254415D02*
X0139590Y0254415D01*
X0141188Y0252816D02*
X0195496Y0252816D01*
X0195496Y0251218D02*
X0142787Y0251218D01*
X0144385Y0249619D02*
X0195496Y0249619D01*
X0195496Y0248021D02*
X0145984Y0248021D01*
X0147582Y0246422D02*
X0195496Y0246422D01*
X0195496Y0244824D02*
X0149181Y0244824D01*
X0150779Y0243225D02*
X0195496Y0243225D01*
X0195496Y0241627D02*
X0152378Y0241627D01*
X0153976Y0240028D02*
X0195496Y0240028D01*
X0195496Y0238430D02*
X0155575Y0238430D01*
X0157173Y0236831D02*
X0195496Y0236831D01*
X0195496Y0235233D02*
X0158772Y0235233D01*
X0160370Y0233634D02*
X0195496Y0233634D01*
X0195496Y0232036D02*
X0161969Y0232036D01*
X0163568Y0230437D02*
X0195496Y0230437D01*
X0195496Y0228839D02*
X0165166Y0228839D01*
X0166765Y0227240D02*
X0195496Y0227240D01*
X0195496Y0225642D02*
X0168363Y0225642D01*
X0169962Y0224043D02*
X0195496Y0224043D01*
X0195496Y0222445D02*
X0171560Y0222445D01*
X0173159Y0220846D02*
X0195496Y0220846D01*
X0195496Y0219248D02*
X0174757Y0219248D01*
X0176356Y0217649D02*
X0195496Y0217649D01*
X0195496Y0216051D02*
X0177954Y0216051D01*
X0179553Y0214452D02*
X0195496Y0214452D01*
X0195496Y0212854D02*
X0181151Y0212854D01*
X0182750Y0211255D02*
X0195496Y0211255D01*
X0195496Y0209657D02*
X0184348Y0209657D01*
X0185947Y0208058D02*
X0195496Y0208058D01*
X0195496Y0206459D02*
X0187545Y0206459D01*
X0189144Y0204861D02*
X0195496Y0204861D01*
X0195496Y0203262D02*
X0190742Y0203262D01*
X0187434Y0200065D02*
X0130904Y0200065D01*
X0131999Y0201664D02*
X0185835Y0201664D01*
X0184237Y0203262D02*
X0132221Y0203262D01*
X0131745Y0204861D02*
X0182638Y0204861D01*
X0181040Y0206459D02*
X0129893Y0206459D01*
X0126949Y0206459D02*
X0048221Y0206459D01*
X0048221Y0204861D02*
X0125097Y0204861D01*
X0124621Y0203262D02*
X0048221Y0203262D01*
X0048221Y0201664D02*
X0123876Y0201664D01*
X0122278Y0200065D02*
X0048221Y0200065D01*
X0048221Y0198467D02*
X0120679Y0198467D01*
X0119081Y0196868D02*
X0048221Y0196868D01*
X0048221Y0195270D02*
X0117482Y0195270D01*
X0115884Y0193671D02*
X0048221Y0193671D01*
X0048221Y0192073D02*
X0114285Y0192073D01*
X0112687Y0190474D02*
X0049250Y0190474D01*
X0049721Y0188876D02*
X0111088Y0188876D01*
X0109490Y0187277D02*
X0049494Y0187277D01*
X0048393Y0185679D02*
X0107891Y0185679D01*
X0106293Y0184080D02*
X0016548Y0184080D01*
X0014950Y0182482D02*
X0104694Y0182482D01*
X0103096Y0180883D02*
X0013351Y0180883D01*
X0012596Y0179285D02*
X0101497Y0179285D01*
X0099899Y0177686D02*
X0012596Y0177686D01*
X0012596Y0176088D02*
X0098300Y0176088D01*
X0096702Y0174489D02*
X0012596Y0174489D01*
X0012596Y0172891D02*
X0095103Y0172891D01*
X0093505Y0171292D02*
X0012596Y0171292D01*
X0012596Y0169694D02*
X0092996Y0169694D01*
X0092996Y0168095D02*
X0012596Y0168095D01*
X0012596Y0166497D02*
X0092996Y0166497D01*
X0092996Y0164898D02*
X0012596Y0164898D01*
X0012596Y0163300D02*
X0092996Y0163300D01*
X0092996Y0161701D02*
X0012596Y0161701D01*
X0012596Y0160103D02*
X0092996Y0160103D01*
X0092996Y0158504D02*
X0012596Y0158504D01*
X0012917Y0156906D02*
X0092996Y0156906D01*
X0092996Y0155307D02*
X0012917Y0155307D01*
X0012917Y0153709D02*
X0092996Y0153709D01*
X0092996Y0152110D02*
X0013770Y0152110D01*
X0015368Y0150512D02*
X0092996Y0150512D01*
X0092996Y0148913D02*
X0016967Y0148913D01*
X0018565Y0147315D02*
X0092996Y0147315D01*
X0092996Y0145716D02*
X0020164Y0145716D01*
X0021762Y0144118D02*
X0092996Y0144118D01*
X0092996Y0142519D02*
X0023361Y0142519D01*
X0024959Y0140921D02*
X0092996Y0140921D01*
X0092996Y0139322D02*
X0026558Y0139322D01*
X0028156Y0137724D02*
X0092996Y0137724D01*
X0092996Y0136125D02*
X0029755Y0136125D01*
X0031353Y0134526D02*
X0092996Y0134526D01*
X0092996Y0132928D02*
X0032952Y0132928D01*
X0034550Y0131329D02*
X0092996Y0131329D01*
X0092996Y0129731D02*
X0036149Y0129731D01*
X0036346Y0128132D02*
X0091595Y0128132D01*
X0089996Y0126534D02*
X0036346Y0126534D01*
X0036346Y0124935D02*
X0088398Y0124935D01*
X0086799Y0123337D02*
X0036346Y0123337D01*
X0036346Y0121738D02*
X0085201Y0121738D01*
X0083602Y0120140D02*
X0036346Y0120140D01*
X0036346Y0118541D02*
X0082004Y0118541D01*
X0080405Y0116943D02*
X0036346Y0116943D01*
X0036346Y0115344D02*
X0078807Y0115344D01*
X0077208Y0113746D02*
X0036346Y0113746D01*
X0036346Y0112147D02*
X0075610Y0112147D01*
X0074011Y0110549D02*
X0036346Y0110549D01*
X0036346Y0108950D02*
X0072413Y0108950D01*
X0070814Y0107352D02*
X0036346Y0107352D01*
X0036346Y0105753D02*
X0069216Y0105753D01*
X0067617Y0104155D02*
X0036346Y0104155D01*
X0036346Y0102556D02*
X0066019Y0102556D01*
X0064420Y0100958D02*
X0036346Y0100958D01*
X0036346Y0099359D02*
X0062822Y0099359D01*
X0061223Y0097761D02*
X0036346Y0097761D01*
X0036346Y0096162D02*
X0059625Y0096162D01*
X0058026Y0094564D02*
X0036346Y0094564D01*
X0036346Y0092965D02*
X0056428Y0092965D01*
X0054829Y0091367D02*
X0036346Y0091367D01*
X0036346Y0089768D02*
X0053230Y0089768D01*
X0051632Y0088170D02*
X0036346Y0088170D01*
X0036346Y0086571D02*
X0050033Y0086571D01*
X0048435Y0084973D02*
X0036346Y0084973D01*
X0036346Y0083374D02*
X0046836Y0083374D01*
X0045238Y0081776D02*
X0036346Y0081776D01*
X0036346Y0080177D02*
X0043639Y0080177D01*
X0042041Y0078579D02*
X0036346Y0078579D01*
X0036346Y0076980D02*
X0040442Y0076980D01*
X0038844Y0075382D02*
X0036346Y0075382D01*
X0037023Y0073783D02*
X0037245Y0073783D01*
X0040554Y0070586D02*
X0094006Y0070586D01*
X0094006Y0068988D02*
X0039561Y0068988D01*
X0038503Y0067389D02*
X0094006Y0067389D01*
X0094006Y0065791D02*
X0032856Y0065791D01*
X0033830Y0067389D02*
X0031686Y0067389D01*
X0030516Y0068988D02*
X0032907Y0068988D01*
X0031984Y0070586D02*
X0029367Y0070586D01*
X0028380Y0072185D02*
X0031061Y0072185D01*
X0031355Y0073783D02*
X0027393Y0073783D01*
X0026406Y0075382D02*
X0031746Y0075382D01*
X0031746Y0076980D02*
X0025420Y0076980D01*
X0024433Y0078579D02*
X0031746Y0078579D01*
X0031746Y0080177D02*
X0023446Y0080177D01*
X0022617Y0081776D02*
X0031746Y0081776D01*
X0031746Y0083374D02*
X0021796Y0083374D01*
X0020975Y0084973D02*
X0031746Y0084973D01*
X0031746Y0086571D02*
X0020153Y0086571D01*
X0019332Y0088170D02*
X0031746Y0088170D01*
X0031746Y0089768D02*
X0018511Y0089768D01*
X0017770Y0091367D02*
X0031746Y0091367D01*
X0031746Y0092965D02*
X0017101Y0092965D01*
X0016433Y0094564D02*
X0031746Y0094564D01*
X0031746Y0096162D02*
X0015764Y0096162D01*
X0015096Y0097761D02*
X0031746Y0097761D01*
X0031746Y0099359D02*
X0014427Y0099359D01*
X0013759Y0100958D02*
X0031746Y0100958D01*
X0031746Y0102556D02*
X0013212Y0102556D01*
X0012687Y0104155D02*
X0031746Y0104155D01*
X0031746Y0105753D02*
X0012161Y0105753D01*
X0011636Y0107352D02*
X0031746Y0107352D01*
X0031746Y0108950D02*
X0011111Y0108950D01*
X0010585Y0110549D02*
X0031746Y0110549D01*
X0031746Y0112147D02*
X0010060Y0112147D01*
X0009667Y0113746D02*
X0031746Y0113746D01*
X0031746Y0115344D02*
X0009278Y0115344D01*
X0008888Y0116943D02*
X0031746Y0116943D01*
X0031746Y0118541D02*
X0008499Y0118541D01*
X0008109Y0120140D02*
X0031746Y0120140D01*
X0031746Y0121738D02*
X0007720Y0121738D01*
X0007330Y0123337D02*
X0031746Y0123337D01*
X0031746Y0124935D02*
X0007065Y0124935D01*
X0006806Y0126534D02*
X0031746Y0126534D01*
X0031242Y0128132D02*
X0006547Y0128132D01*
X0006289Y0129731D02*
X0029643Y0129731D01*
X0028045Y0131329D02*
X0006030Y0131329D01*
X0005771Y0132928D02*
X0026446Y0132928D01*
X0024848Y0134526D02*
X0005512Y0134526D01*
X0005357Y0136125D02*
X0023249Y0136125D01*
X0021651Y0137724D02*
X0005225Y0137724D01*
X0005094Y0139322D02*
X0020052Y0139322D01*
X0018454Y0140921D02*
X0004963Y0140921D01*
X0004832Y0142519D02*
X0016855Y0142519D01*
X0015257Y0144118D02*
X0004700Y0144118D01*
X0004569Y0145716D02*
X0013658Y0145716D01*
X0012060Y0147315D02*
X0004513Y0147315D01*
X0004508Y0148913D02*
X0010461Y0148913D01*
X0007266Y0150512D02*
X0004502Y0150512D01*
X0004497Y0152110D02*
X0006955Y0152110D01*
X0006955Y0153709D02*
X0004491Y0153709D01*
X0004486Y0155307D02*
X0006955Y0155307D01*
X0006955Y0156906D02*
X0004481Y0156906D01*
X0004521Y0158504D02*
X0007633Y0158504D01*
X0007996Y0160103D02*
X0004641Y0160103D01*
X0004761Y0161701D02*
X0007996Y0161701D01*
X0007996Y0163300D02*
X0004882Y0163300D01*
X0005002Y0164898D02*
X0007996Y0164898D01*
X0007996Y0166497D02*
X0005123Y0166497D01*
X0005243Y0168095D02*
X0007996Y0168095D01*
X0007996Y0169694D02*
X0005382Y0169694D01*
X0005630Y0171292D02*
X0007996Y0171292D01*
X0007996Y0172891D02*
X0005877Y0172891D01*
X0006125Y0174489D02*
X0007996Y0174489D01*
X0007996Y0176088D02*
X0006373Y0176088D01*
X0006620Y0177686D02*
X0007996Y0177686D01*
X0007996Y0179285D02*
X0006868Y0179285D01*
X0007116Y0180883D02*
X0007996Y0180883D01*
X0008444Y0182482D02*
X0007494Y0182482D01*
X0007872Y0184080D02*
X0010043Y0184080D01*
X0011641Y0185679D02*
X0008250Y0185679D01*
X0008628Y0187277D02*
X0013240Y0187277D01*
X0014838Y0188876D02*
X0009006Y0188876D01*
X0009384Y0190474D02*
X0015496Y0190474D01*
X0015496Y0192073D02*
X0009762Y0192073D01*
X0010270Y0193671D02*
X0015496Y0193671D01*
X0015496Y0195270D02*
X0010783Y0195270D01*
X0011297Y0196868D02*
X0015496Y0196868D01*
X0015496Y0198467D02*
X0011810Y0198467D01*
X0012324Y0200065D02*
X0015496Y0200065D01*
X0015496Y0201664D02*
X0012837Y0201664D01*
X0013361Y0203262D02*
X0015496Y0203262D01*
X0015496Y0204861D02*
X0014016Y0204861D01*
X0014672Y0206459D02*
X0015496Y0206459D01*
X0015328Y0208058D02*
X0016520Y0208058D01*
X0015984Y0209657D02*
X0018119Y0209657D01*
X0016640Y0211255D02*
X0019717Y0211255D01*
X0021316Y0212854D02*
X0017296Y0212854D01*
X0018009Y0214452D02*
X0022914Y0214452D01*
X0024513Y0216051D02*
X0018817Y0216051D01*
X0019624Y0217649D02*
X0026111Y0217649D01*
X0027371Y0219248D02*
X0020432Y0219248D01*
X0021240Y0220846D02*
X0027371Y0220846D01*
X0027371Y0222445D02*
X0022047Y0222445D01*
X0022855Y0224043D02*
X0027371Y0224043D01*
X0027371Y0225642D02*
X0023814Y0225642D01*
X0024786Y0227240D02*
X0027371Y0227240D01*
X0027371Y0228839D02*
X0025759Y0228839D01*
X0026731Y0230437D02*
X0028899Y0230437D01*
X0027703Y0232036D02*
X0030498Y0232036D01*
X0032097Y0233634D02*
X0028675Y0233634D01*
X0029781Y0235233D02*
X0033695Y0235233D01*
X0034375Y0236831D02*
X0030934Y0236831D01*
X0032088Y0238430D02*
X0035974Y0238430D01*
X0037572Y0240028D02*
X0033241Y0240028D01*
X0034394Y0241627D02*
X0055089Y0241627D01*
X0056688Y0243225D02*
X0035547Y0243225D01*
X0036877Y0244824D02*
X0058286Y0244824D01*
X0059885Y0246422D02*
X0038233Y0246422D01*
X0039589Y0248021D02*
X0061483Y0248021D01*
X0063082Y0249619D02*
X0040945Y0249619D01*
X0042301Y0251218D02*
X0064680Y0251218D01*
X0066279Y0252816D02*
X0043740Y0252816D01*
X0045327Y0254415D02*
X0067877Y0254415D01*
X0069476Y0256013D02*
X0046915Y0256013D01*
X0048503Y0257612D02*
X0071074Y0257612D01*
X0072673Y0259210D02*
X0050091Y0259210D01*
X0051739Y0260809D02*
X0074271Y0260809D01*
X0075870Y0262407D02*
X0053598Y0262407D01*
X0055457Y0264006D02*
X0077468Y0264006D01*
X0079067Y0265604D02*
X0057316Y0265604D01*
X0059175Y0267203D02*
X0080665Y0267203D01*
X0082264Y0268801D02*
X0061198Y0268801D01*
X0063383Y0270400D02*
X0083862Y0270400D01*
X0085461Y0271998D02*
X0065568Y0271998D01*
X0067752Y0273597D02*
X0087059Y0273597D01*
X0088658Y0275195D02*
X0070032Y0275195D01*
X0072621Y0276794D02*
X0090256Y0276794D01*
X0091855Y0278393D02*
X0075210Y0278393D01*
X0077799Y0279991D02*
X0093453Y0279991D01*
X0095052Y0281590D02*
X0080614Y0281590D01*
X0083725Y0283188D02*
X0096650Y0283188D01*
X0098249Y0284787D02*
X0086837Y0284787D01*
X0090039Y0286385D02*
X0098779Y0286385D01*
X0097684Y0289582D02*
X0125937Y0289582D01*
X0125934Y0287984D02*
X0106971Y0287984D01*
X0107620Y0286385D02*
X0126449Y0286385D01*
X0127311Y0284787D02*
X0109218Y0284787D01*
X0110817Y0283188D02*
X0128947Y0283188D01*
X0126288Y0291181D02*
X0101858Y0291181D01*
X0102622Y0287984D02*
X0093862Y0287984D01*
X0099959Y0279991D02*
X0107508Y0279991D01*
X0105910Y0281590D02*
X0102486Y0281590D01*
X0098360Y0278393D02*
X0109107Y0278393D01*
X0110705Y0276794D02*
X0096762Y0276794D01*
X0095163Y0275195D02*
X0112304Y0275195D01*
X0113902Y0273597D02*
X0093565Y0273597D01*
X0091966Y0271998D02*
X0115501Y0271998D01*
X0117099Y0270400D02*
X0090368Y0270400D01*
X0088769Y0268801D02*
X0118698Y0268801D01*
X0120296Y0267203D02*
X0087171Y0267203D01*
X0085572Y0265604D02*
X0121895Y0265604D01*
X0123493Y0264006D02*
X0083974Y0264006D01*
X0082375Y0262407D02*
X0125092Y0262407D01*
X0126690Y0260809D02*
X0080777Y0260809D01*
X0079178Y0259210D02*
X0128289Y0259210D01*
X0129887Y0257612D02*
X0077580Y0257612D01*
X0075981Y0256013D02*
X0131486Y0256013D01*
X0133084Y0254415D02*
X0074383Y0254415D01*
X0072784Y0252816D02*
X0134683Y0252816D01*
X0136281Y0251218D02*
X0071185Y0251218D01*
X0069587Y0249619D02*
X0137880Y0249619D01*
X0139479Y0248021D02*
X0067988Y0248021D01*
X0066390Y0246422D02*
X0141077Y0246422D01*
X0142676Y0244824D02*
X0064791Y0244824D01*
X0063193Y0243225D02*
X0144274Y0243225D01*
X0145873Y0241627D02*
X0061594Y0241627D01*
X0059996Y0240028D02*
X0147471Y0240028D01*
X0149070Y0238430D02*
X0058397Y0238430D01*
X0056799Y0236831D02*
X0150668Y0236831D01*
X0152267Y0235233D02*
X0041209Y0235233D01*
X0039610Y0233634D02*
X0153865Y0233634D01*
X0155464Y0232036D02*
X0037003Y0232036D01*
X0035405Y0230437D02*
X0157062Y0230437D01*
X0158661Y0228839D02*
X0033806Y0228839D01*
X0032466Y0227240D02*
X0032208Y0227240D01*
X0040179Y0227240D02*
X0160259Y0227240D01*
X0161858Y0225642D02*
X0041778Y0225642D01*
X0042508Y0224043D02*
X0163456Y0224043D01*
X0165055Y0222445D02*
X0042894Y0222445D01*
X0042194Y0217649D02*
X0041463Y0217649D01*
X0043077Y0216051D02*
X0039608Y0216051D01*
X0037022Y0212854D02*
X0043621Y0212854D01*
X0043621Y0214452D02*
X0033303Y0214452D01*
X0033037Y0216051D02*
X0031704Y0216051D01*
X0028396Y0212854D02*
X0027821Y0212854D01*
X0026223Y0211255D02*
X0029994Y0211255D01*
X0030264Y0209657D02*
X0024624Y0209657D01*
X0023026Y0208058D02*
X0031070Y0208058D01*
X0037022Y0208058D02*
X0043621Y0208058D01*
X0043621Y0206459D02*
X0021427Y0206459D01*
X0020096Y0204861D02*
X0043621Y0204861D01*
X0043621Y0203262D02*
X0020096Y0203262D01*
X0020096Y0201664D02*
X0020410Y0201664D01*
X0028608Y0201664D02*
X0043621Y0201664D01*
X0043621Y0200065D02*
X0030133Y0200065D01*
X0030795Y0198467D02*
X0043621Y0198467D01*
X0043621Y0196868D02*
X0031081Y0196868D01*
X0031081Y0195270D02*
X0043621Y0195270D01*
X0043621Y0193671D02*
X0030464Y0193671D01*
X0029407Y0192073D02*
X0043621Y0192073D01*
X0042592Y0190474D02*
X0027209Y0190474D01*
X0021809Y0190474D02*
X0020096Y0190474D01*
X0020096Y0188876D02*
X0042121Y0188876D01*
X0042348Y0187277D02*
X0019745Y0187277D01*
X0018147Y0185679D02*
X0043449Y0185679D01*
X0048221Y0208058D02*
X0179441Y0208058D01*
X0177843Y0209657D02*
X0048221Y0209657D01*
X0048221Y0211255D02*
X0176244Y0211255D01*
X0174646Y0212854D02*
X0048221Y0212854D01*
X0048221Y0214452D02*
X0173047Y0214452D01*
X0171449Y0216051D02*
X0048765Y0216051D01*
X0049648Y0217649D02*
X0169850Y0217649D01*
X0168252Y0219248D02*
X0049721Y0219248D01*
X0049030Y0220846D02*
X0166653Y0220846D01*
X0187746Y0198467D02*
X0127185Y0198467D01*
X0125586Y0196868D02*
X0188510Y0196868D01*
X0194582Y0196868D02*
X0195496Y0196868D01*
X0195496Y0195270D02*
X0123988Y0195270D01*
X0122389Y0193671D02*
X0195496Y0193671D01*
X0195496Y0192073D02*
X0120791Y0192073D01*
X0119192Y0190474D02*
X0195496Y0190474D01*
X0195496Y0188876D02*
X0162250Y0188876D01*
X0163289Y0187277D02*
X0165265Y0187277D01*
X0165469Y0187277D02*
X0195496Y0187277D01*
X0195496Y0185679D02*
X0187701Y0185679D01*
X0189299Y0184080D02*
X0195496Y0184080D01*
X0195496Y0182482D02*
X0190898Y0182482D01*
X0194618Y0180883D02*
X0195496Y0180883D01*
X0195496Y0179285D02*
X0195346Y0179285D01*
X0195346Y0198467D02*
X0195496Y0198467D01*
X0195496Y0200065D02*
X0195303Y0200065D01*
X0195496Y0201664D02*
X0194462Y0201664D01*
X0157092Y0188876D02*
X0117594Y0188876D01*
X0115995Y0187277D02*
X0141273Y0187277D01*
X0141448Y0187277D02*
X0150493Y0187277D01*
X0138812Y0185679D02*
X0114397Y0185679D01*
X0112798Y0184080D02*
X0138730Y0184080D01*
X0138730Y0182482D02*
X0111199Y0182482D01*
X0109601Y0180883D02*
X0133474Y0180883D01*
X0132358Y0179285D02*
X0108002Y0179285D01*
X0106404Y0177686D02*
X0132121Y0177686D01*
X0132582Y0176088D02*
X0104805Y0176088D01*
X0103207Y0174489D02*
X0132970Y0174489D01*
X0132970Y0172891D02*
X0101608Y0172891D01*
X0100010Y0171292D02*
X0132970Y0171292D01*
X0138368Y0180883D02*
X0138842Y0180883D01*
X0094006Y0123337D02*
X0093305Y0123337D01*
X0094006Y0121738D02*
X0091706Y0121738D01*
X0090108Y0120140D02*
X0094006Y0120140D01*
X0094006Y0118541D02*
X0088509Y0118541D01*
X0086911Y0116943D02*
X0094006Y0116943D01*
X0094006Y0115344D02*
X0085312Y0115344D01*
X0083714Y0113746D02*
X0094006Y0113746D01*
X0094006Y0112147D02*
X0082115Y0112147D01*
X0080516Y0110549D02*
X0094006Y0110549D01*
X0094006Y0108950D02*
X0078918Y0108950D01*
X0077319Y0107352D02*
X0094006Y0107352D01*
X0094006Y0105753D02*
X0075721Y0105753D01*
X0074122Y0104155D02*
X0094006Y0104155D01*
X0094006Y0102556D02*
X0072524Y0102556D01*
X0070925Y0100958D02*
X0094006Y0100958D01*
X0094006Y0099359D02*
X0069327Y0099359D01*
X0067728Y0097761D02*
X0094006Y0097761D01*
X0094006Y0096162D02*
X0066130Y0096162D01*
X0064531Y0094564D02*
X0094006Y0094564D01*
X0094006Y0092965D02*
X0062933Y0092965D01*
X0061334Y0091367D02*
X0094006Y0091367D01*
X0094006Y0089768D02*
X0059736Y0089768D01*
X0058137Y0088170D02*
X0094006Y0088170D01*
X0094006Y0086571D02*
X0056539Y0086571D01*
X0054940Y0084973D02*
X0094006Y0084973D01*
X0094006Y0083374D02*
X0053342Y0083374D01*
X0051743Y0081776D02*
X0094006Y0081776D01*
X0094006Y0080177D02*
X0050145Y0080177D01*
X0048546Y0078579D02*
X0094006Y0078579D01*
X0094006Y0076980D02*
X0046948Y0076980D01*
X0045349Y0075382D02*
X0094006Y0075382D01*
X0094006Y0073783D02*
X0043751Y0073783D01*
X0042152Y0072185D02*
X0094006Y0072185D01*
X0094006Y0064192D02*
X0034025Y0064192D01*
X0035195Y0062593D02*
X0094006Y0062593D01*
X0094006Y0060995D02*
X0036374Y0060995D01*
X0037749Y0059396D02*
X0094006Y0059396D01*
X0094006Y0057798D02*
X0039124Y0057798D01*
X0040498Y0056199D02*
X0094006Y0056199D01*
X0094006Y0054601D02*
X0041873Y0054601D01*
X0043247Y0053002D02*
X0094006Y0053002D01*
X0094006Y0051404D02*
X0044754Y0051404D01*
X0046364Y0049805D02*
X0094006Y0049805D01*
X0082640Y0022631D02*
X0105468Y0022631D01*
X0102824Y0021032D02*
X0085804Y0021032D01*
X0088968Y0019434D02*
X0102048Y0019434D01*
X0217002Y0163300D02*
X0219215Y0163300D01*
X0282249Y0115344D02*
X0283418Y0115344D01*
X0286263Y0113746D02*
X0293685Y0113746D01*
X0294063Y0115344D02*
X0289885Y0115344D01*
X0291187Y0116943D02*
X0294441Y0116943D01*
X0294820Y0118541D02*
X0291728Y0118541D01*
X0291658Y0120140D02*
X0295198Y0120140D01*
X0295576Y0121738D02*
X0291002Y0121738D01*
X0289471Y0123337D02*
X0295954Y0123337D01*
X0296288Y0124935D02*
X0285135Y0124935D01*
X0287672Y0112147D02*
X0293223Y0112147D01*
X0292710Y0110549D02*
X0288247Y0110549D01*
X0288278Y0108950D02*
X0292196Y0108950D01*
X0291683Y0107352D02*
X0287696Y0107352D01*
X0286176Y0105753D02*
X0291169Y0105753D01*
X0290656Y0104155D02*
X0283055Y0104155D01*
X0284342Y0102556D02*
X0290142Y0102556D01*
X0289525Y0100958D02*
X0284835Y0100958D01*
X0284787Y0099359D02*
X0288869Y0099359D01*
X0288213Y0097761D02*
X0284153Y0097761D01*
X0282340Y0096162D02*
X0287557Y0096162D01*
X0280531Y0105753D02*
X0279362Y0105753D01*
X0195496Y0265604D02*
X0128400Y0265604D01*
X0126802Y0267203D02*
X0195496Y0267203D01*
X0195496Y0268801D02*
X0125203Y0268801D01*
X0123605Y0270400D02*
X0195496Y0270400D01*
X0195496Y0271998D02*
X0122006Y0271998D01*
X0120408Y0273597D02*
X0195496Y0273597D01*
X0195496Y0275195D02*
X0118809Y0275195D01*
X0117211Y0276794D02*
X0195496Y0276794D01*
X0195496Y0278393D02*
X0115612Y0278393D01*
X0114014Y0279991D02*
X0195496Y0279991D01*
X0195496Y0281590D02*
X0112415Y0281590D01*
X0106722Y0292779D02*
X0126954Y0292779D01*
X0128523Y0294378D02*
X0111718Y0294378D01*
X0118279Y0295976D02*
X0185012Y0295976D01*
X0191609Y0294378D02*
X0176234Y0294378D01*
X0177826Y0292779D02*
X0196586Y0292779D01*
X0195472Y0287984D02*
X0178894Y0287984D01*
X0178416Y0286385D02*
X0194727Y0286385D01*
X0194795Y0284787D02*
X0177606Y0284787D01*
X0176001Y0283188D02*
X0195496Y0283188D01*
X0177383Y0297575D02*
X0126052Y0297575D01*
X0137942Y0299173D02*
X0165573Y0299173D01*
X0043621Y0211255D02*
X0037828Y0211255D01*
X0037828Y0209657D02*
X0043621Y0209657D01*
D18*
X0031296Y0182976D03*
X0031456Y0166576D03*
X0020656Y0117536D03*
X0054176Y0056096D03*
X0112656Y0202896D03*
X0128496Y0221136D03*
X0204896Y0214976D03*
X0210336Y0203616D03*
X0218421Y0226254D03*
X0218416Y0226256D03*
X0211056Y0258176D03*
X0233536Y0149296D03*
X0210096Y0137696D03*
X0253376Y0120816D03*
X0254896Y0068336D03*
D19*
X0266546Y0068581D02*
X0266816Y0069136D01*
X0266546Y0069206D01*
X0266546Y0070456D01*
X0205921Y0131081D01*
X0205921Y0169831D01*
X0197796Y0177956D01*
X0197796Y0286081D01*
X0197776Y0286336D01*
X0200987Y0284839D02*
X0201546Y0284831D01*
X0208421Y0284831D01*
X0218421Y0274831D01*
X0227171Y0274831D01*
X0244671Y0257331D01*
X0245921Y0257331D01*
X0265296Y0237956D01*
X0265296Y0236706D01*
X0265616Y0236656D01*
X0267171Y0233581D02*
X0267648Y0233753D01*
X0267171Y0233581D02*
X0233421Y0199831D01*
X0222171Y0184206D02*
X0247171Y0159206D01*
X0227796Y0134206D02*
X0211546Y0150456D01*
X0211546Y0167331D01*
X0201546Y0177331D01*
X0201546Y0182331D01*
X0197796Y0177956D02*
X0197796Y0172956D01*
X0195296Y0170456D01*
X0175296Y0170456D01*
X0175296Y0171706D01*
X0175296Y0170456D02*
X0172796Y0170456D01*
X0170921Y0172331D01*
X0170445Y0172656D01*
X0170445Y0176002D02*
X0170921Y0176081D01*
X0175921Y0176081D01*
X0176292Y0176016D01*
X0178300Y0176016D02*
X0178421Y0175456D01*
X0189671Y0175456D01*
X0190921Y0174206D01*
X0194046Y0174206D01*
X0191546Y0178581D02*
X0185296Y0184831D01*
X0165296Y0184831D01*
X0164736Y0184620D01*
X0164736Y0182612D02*
X0164671Y0182331D01*
X0164671Y0176081D01*
X0164736Y0176002D01*
X0164736Y0172656D02*
X0164671Y0172331D01*
X0159671Y0172331D01*
X0159136Y0172292D01*
X0159136Y0174300D02*
X0159671Y0174831D01*
X0159671Y0186081D01*
X0153421Y0184831D02*
X0141546Y0184831D01*
X0141376Y0184300D01*
X0141546Y0182331D02*
X0141376Y0182292D01*
X0141546Y0182331D02*
X0141546Y0176081D01*
X0141376Y0176002D01*
X0141376Y0172656D02*
X0140921Y0172331D01*
X0135921Y0172331D01*
X0135616Y0172372D01*
X0135616Y0174380D02*
X0135921Y0174831D01*
X0135921Y0177956D01*
X0147085Y0176002D02*
X0147171Y0176081D01*
X0152171Y0176081D01*
X0152212Y0176016D01*
X0154220Y0176016D02*
X0154671Y0176081D01*
X0154671Y0179831D01*
X0151546Y0172331D02*
X0147171Y0172331D01*
X0147085Y0172656D01*
X0151546Y0172331D02*
X0152171Y0171706D01*
X0128421Y0202956D02*
X0095296Y0169831D01*
X0095296Y0128581D01*
X0036546Y0069831D01*
X0036188Y0069267D01*
X0034416Y0072336D02*
X0034046Y0072956D01*
X0034046Y0128581D01*
X0010296Y0152331D01*
X0009936Y0152553D01*
X0009936Y0156096D02*
X0010296Y0156706D01*
X0010296Y0181081D01*
X0017796Y0188581D01*
X0017796Y0206081D01*
X0028109Y0216394D01*
X0034046Y0210456D01*
X0028109Y0216394D02*
X0029671Y0217956D01*
X0029671Y0227956D01*
X0037171Y0235456D01*
X0037536Y0235776D01*
X0040041Y0238281D02*
X0040296Y0238581D01*
X0055296Y0238581D01*
X0100921Y0284206D01*
X0101536Y0284416D01*
X0104866Y0285628D02*
X0105296Y0285456D01*
X0191546Y0199206D01*
X0202171Y0201706D02*
X0202171Y0195456D01*
X0210296Y0187331D01*
X0218421Y0182956D02*
X0218421Y0226254D01*
X0215296Y0253776D02*
X0210976Y0258096D01*
X0215296Y0253776D02*
X0215296Y0166706D01*
X0220921Y0166706D02*
X0220921Y0180456D01*
X0218421Y0182956D01*
X0260921Y0188581D02*
X0293421Y0156081D01*
X0293696Y0155799D01*
X0293696Y0152256D02*
X0293421Y0151706D01*
X0269046Y0127331D01*
X0269046Y0072331D01*
X0268848Y0072039D01*
X0266546Y0068581D02*
X0243421Y0045456D01*
X0226546Y0045456D01*
X0205921Y0024831D01*
X0110921Y0024831D01*
X0104671Y0018581D01*
X0104496Y0018096D01*
X0107707Y0016599D02*
X0107796Y0016706D01*
X0200921Y0016706D01*
X0203421Y0019206D01*
X0203696Y0019456D01*
X0206907Y0020953D02*
X0207171Y0021081D01*
X0226066Y0033976D01*
X0238694Y0050096D02*
X0239046Y0050456D01*
X0238966Y0058241D01*
X0045921Y0188581D02*
X0045921Y0218581D01*
D20*
X0045921Y0218581D03*
X0034046Y0210456D03*
X0045921Y0188581D03*
X0128421Y0202956D03*
X0135921Y0177956D03*
X0152171Y0171706D03*
X0154671Y0179831D03*
X0153421Y0184831D03*
X0159671Y0186081D03*
X0175296Y0171706D03*
X0191546Y0178581D03*
X0194046Y0174206D03*
X0201546Y0182331D03*
X0210296Y0187331D03*
X0222171Y0184206D03*
X0233421Y0199831D03*
X0260921Y0188581D03*
X0247171Y0159206D03*
X0227796Y0134206D03*
X0220921Y0166706D03*
X0215296Y0166706D03*
X0191546Y0199206D03*
X0202171Y0201706D03*
X0238966Y0058241D03*
X0226066Y0033976D03*
M02*
