G75*
%MOIN*%
%OFA0B0*%
%FSLAX25Y25*%
%IPPOS*%
%LPD*%
%AMOC8*
5,1,8,0,0,1.08239X$1,22.5*
%
%ADD10C,0.06000*%
%ADD11R,0.03937X0.05906*%
%ADD12R,0.05906X0.03937*%
%ADD13R,0.03937X0.03937*%
%ADD14R,0.01693X0.01102*%
%ADD15R,0.05000X0.02200*%
%ADD16R,0.05512X0.01575*%
%ADD17R,0.07480X0.05709*%
%ADD18R,0.07480X0.07087*%
%ADD19R,0.06299X0.08268*%
%ADD20R,0.04724X0.02165*%
%ADD21R,0.03937X0.18110*%
%ADD22R,0.13386X0.06299*%
%ADD23R,0.04331X0.03937*%
%ADD24R,0.03937X0.04331*%
%ADD25R,0.03150X0.03150*%
%ADD26R,0.01378X0.00984*%
%ADD27R,0.04724X0.09843*%
%ADD28R,0.02992X0.09449*%
%ADD29C,0.01600*%
%ADD30C,0.01000*%
%ADD31C,0.03962*%
%ADD32C,0.04000*%
D10*
X0274417Y0102445D02*
X0280055Y0100393D01*
X0283475Y0109790D02*
X0277837Y0111842D01*
X0281257Y0121239D02*
X0286895Y0119187D01*
D11*
X0244678Y0128256D03*
X0238773Y0128256D03*
X0232867Y0128256D03*
X0226962Y0128256D03*
X0221056Y0128256D03*
X0215151Y0128256D03*
X0209245Y0128256D03*
X0209245Y0193216D03*
X0203339Y0193216D03*
X0197434Y0193216D03*
X0191528Y0193216D03*
X0215151Y0193216D03*
X0221056Y0193216D03*
X0226962Y0193216D03*
X0232867Y0193216D03*
X0238773Y0193216D03*
X0244678Y0193216D03*
D12*
X0253536Y0184358D03*
X0253536Y0178453D03*
X0253536Y0172547D03*
X0253536Y0166642D03*
X0253536Y0160736D03*
X0253536Y0154831D03*
X0253536Y0148925D03*
X0253536Y0143020D03*
X0253536Y0137114D03*
D13*
X0244678Y0137114D03*
X0244678Y0184358D03*
D14*
X0244736Y0114140D03*
X0244736Y0112132D03*
X0238656Y0112292D03*
X0238656Y0114300D03*
X0254016Y0114060D03*
X0254016Y0112052D03*
X0052736Y0166372D03*
X0052736Y0168380D03*
X0052416Y0190052D03*
X0052416Y0192060D03*
D15*
X0079236Y0196396D03*
X0079236Y0203796D03*
X0089436Y0203796D03*
X0089436Y0200096D03*
X0089436Y0196396D03*
D16*
X0022246Y0158094D03*
X0022246Y0155535D03*
X0022246Y0152976D03*
X0022246Y0150417D03*
X0022246Y0147858D03*
D17*
X0011616Y0149433D03*
X0011616Y0156519D03*
D18*
X0011616Y0167543D03*
X0011616Y0138409D03*
D19*
X0021852Y0140771D03*
X0021852Y0165181D03*
D20*
X0042498Y0175716D03*
X0042498Y0179456D03*
X0042498Y0183196D03*
X0052735Y0183196D03*
X0052735Y0175716D03*
D21*
G36*
X0066231Y0238246D02*
X0069014Y0235463D01*
X0056209Y0222658D01*
X0053426Y0225441D01*
X0066231Y0238246D01*
G37*
G36*
X0060663Y0243814D02*
X0063446Y0241031D01*
X0050641Y0228226D01*
X0047858Y0231009D01*
X0060663Y0243814D01*
G37*
D22*
G36*
X0070406Y0259682D02*
X0060942Y0250218D01*
X0056488Y0254672D01*
X0065952Y0264136D01*
X0070406Y0259682D01*
G37*
G36*
X0089336Y0240752D02*
X0079872Y0231288D01*
X0075418Y0235742D01*
X0084882Y0245206D01*
X0089336Y0240752D01*
G37*
D23*
X0067922Y0183136D03*
X0061230Y0183136D03*
D24*
X0040576Y0167202D03*
X0040576Y0160510D03*
D25*
X0015696Y0185463D03*
X0015696Y0191369D03*
D26*
X0073696Y0198872D03*
X0073696Y0200840D03*
X0079216Y0208552D03*
X0079216Y0210520D03*
X0079216Y0191720D03*
X0079216Y0189752D03*
D27*
G36*
X0049846Y0213541D02*
X0047849Y0209261D01*
X0038930Y0213421D01*
X0040927Y0217701D01*
X0049846Y0213541D01*
G37*
G36*
X0045686Y0204620D02*
X0043689Y0200340D01*
X0034770Y0204500D01*
X0036767Y0208780D01*
X0045686Y0204620D01*
G37*
G36*
X0041527Y0195700D02*
X0039530Y0191420D01*
X0030611Y0195580D01*
X0032608Y0199860D01*
X0041527Y0195700D01*
G37*
D28*
G36*
X0210595Y0241836D02*
X0208303Y0243759D01*
X0214375Y0250996D01*
X0216667Y0249073D01*
X0210595Y0241836D01*
G37*
G36*
X0214426Y0238622D02*
X0212134Y0240545D01*
X0218206Y0247782D01*
X0220498Y0245859D01*
X0214426Y0238622D01*
G37*
G36*
X0218256Y0235408D02*
X0215964Y0237331D01*
X0222036Y0244568D01*
X0224328Y0242645D01*
X0218256Y0235408D01*
G37*
G36*
X0222086Y0232194D02*
X0219794Y0234117D01*
X0225866Y0241354D01*
X0228158Y0239431D01*
X0222086Y0232194D01*
G37*
G36*
X0225916Y0228980D02*
X0223624Y0230903D01*
X0229696Y0238140D01*
X0231988Y0236217D01*
X0225916Y0228980D01*
G37*
G36*
X0236292Y0241345D02*
X0234000Y0243268D01*
X0240072Y0250505D01*
X0242364Y0248582D01*
X0236292Y0241345D01*
G37*
G36*
X0232462Y0244559D02*
X0230170Y0246482D01*
X0236242Y0253719D01*
X0238534Y0251796D01*
X0232462Y0244559D01*
G37*
G36*
X0228631Y0247773D02*
X0226339Y0249696D01*
X0232411Y0256933D01*
X0234703Y0255010D01*
X0228631Y0247773D01*
G37*
G36*
X0224801Y0250987D02*
X0222509Y0252910D01*
X0228581Y0260147D01*
X0230873Y0258224D01*
X0224801Y0250987D01*
G37*
G36*
X0220971Y0254201D02*
X0218679Y0256124D01*
X0224751Y0263361D01*
X0227043Y0261438D01*
X0220971Y0254201D01*
G37*
D29*
X0089006Y0048207D02*
X0047805Y0048207D01*
X0049414Y0046608D02*
X0089006Y0046608D01*
X0089006Y0045010D02*
X0051023Y0045010D01*
X0051885Y0044154D02*
X0043680Y0052304D01*
X0036140Y0061072D01*
X0029311Y0070405D01*
X0023236Y0080245D01*
X0017951Y0090531D01*
X0013490Y0101199D01*
X0009879Y0112186D01*
X0007142Y0123421D01*
X0005294Y0134837D01*
X0004348Y0146362D01*
X0004309Y0157926D01*
X0005178Y0169458D01*
X0006948Y0180886D01*
X0009610Y0192139D01*
X0013146Y0203150D01*
X0017536Y0213848D01*
X0022751Y0224170D01*
X0028760Y0234050D01*
X0035526Y0243429D01*
X0043006Y0252247D01*
X0051156Y0260452D01*
X0059924Y0267992D01*
X0069257Y0274821D01*
X0079097Y0280896D01*
X0089383Y0286181D01*
X0100052Y0290642D01*
X0111038Y0294253D01*
X0122273Y0296990D01*
X0133689Y0298838D01*
X0145214Y0299784D01*
X0156778Y0299823D01*
X0168310Y0298954D01*
X0179738Y0297184D01*
X0190991Y0294522D01*
X0202002Y0290986D01*
X0212700Y0286596D01*
X0223022Y0281381D01*
X0232902Y0275372D01*
X0242281Y0268606D01*
X0251099Y0261126D01*
X0259304Y0252976D01*
X0266844Y0244208D01*
X0273673Y0234875D01*
X0279748Y0225035D01*
X0285033Y0214749D01*
X0289494Y0204081D01*
X0293105Y0193094D01*
X0295842Y0181859D01*
X0297690Y0170443D01*
X0298636Y0158918D01*
X0298675Y0147354D01*
X0297806Y0135822D01*
X0296036Y0124394D01*
X0293374Y0113141D01*
X0291971Y0108772D01*
X0291971Y0108947D01*
X0292986Y0113397D01*
X0293005Y0113409D01*
X0293198Y0114323D01*
X0293405Y0115233D01*
X0293394Y0115252D01*
X0293403Y0115297D01*
X0293818Y0115689D01*
X0293819Y0115727D01*
X0293846Y0115753D01*
X0293846Y0116674D01*
X0293869Y0117504D01*
X0294023Y0118233D01*
X0293895Y0118429D01*
X0293902Y0118664D01*
X0293846Y0118723D01*
X0293846Y0189534D01*
X0241561Y0241818D01*
X0239656Y0241818D01*
X0238309Y0240471D01*
X0237048Y0239211D01*
X0236234Y0239211D01*
X0235938Y0239507D01*
X0237191Y0239616D01*
X0244223Y0247997D01*
X0244093Y0249482D01*
X0240658Y0252364D01*
X0240295Y0252332D01*
X0240263Y0252696D01*
X0236828Y0255578D01*
X0236426Y0255543D01*
X0236315Y0255849D01*
X0236043Y0256237D01*
X0234715Y0257351D01*
X0233388Y0258465D01*
X0232958Y0258665D01*
X0232607Y0258727D01*
X0232484Y0259063D01*
X0232213Y0259451D01*
X0230885Y0260565D01*
X0229557Y0261679D01*
X0229128Y0261879D01*
X0228807Y0261936D01*
X0228772Y0262338D01*
X0225338Y0265220D01*
X0223852Y0265090D01*
X0216820Y0256709D01*
X0216878Y0256050D01*
X0216656Y0255829D01*
X0214837Y0257648D01*
X0214837Y0258928D01*
X0214261Y0260318D01*
X0213198Y0261381D01*
X0211808Y0261957D01*
X0210304Y0261957D01*
X0208914Y0261381D01*
X0207851Y0260318D01*
X0207275Y0258928D01*
X0207275Y0257424D01*
X0207851Y0256034D01*
X0208914Y0254971D01*
X0210304Y0254395D01*
X0211584Y0254395D01*
X0213375Y0252604D01*
X0206444Y0244344D01*
X0206509Y0243602D01*
X0204116Y0241209D01*
X0204116Y0234903D01*
X0205463Y0233556D01*
X0215066Y0223954D01*
X0215371Y0223954D01*
X0216274Y0223051D01*
X0216279Y0223049D01*
X0216279Y0223048D01*
X0217669Y0222473D01*
X0219173Y0222473D01*
X0220563Y0223048D01*
X0221626Y0224112D01*
X0222202Y0225502D01*
X0222202Y0227006D01*
X0221626Y0228396D01*
X0220563Y0229459D01*
X0220558Y0229461D01*
X0220558Y0229461D01*
X0219168Y0230037D01*
X0217664Y0230037D01*
X0216274Y0229461D01*
X0216169Y0229356D01*
X0208716Y0236809D01*
X0208716Y0239303D01*
X0209672Y0240259D01*
X0210009Y0239977D01*
X0210373Y0240009D01*
X0210405Y0239645D01*
X0213839Y0236763D01*
X0214203Y0236795D01*
X0214235Y0236431D01*
X0217669Y0233549D01*
X0218033Y0233581D01*
X0218065Y0233217D01*
X0221499Y0230335D01*
X0221863Y0230367D01*
X0221895Y0230003D01*
X0225128Y0227290D01*
X0208718Y0210881D01*
X0081705Y0210881D01*
X0081705Y0211249D01*
X0081582Y0211707D01*
X0081345Y0212118D01*
X0081010Y0212453D01*
X0080600Y0212690D01*
X0080142Y0212812D01*
X0079216Y0212812D01*
X0078290Y0212812D01*
X0077832Y0212690D01*
X0077422Y0212453D01*
X0077087Y0212118D01*
X0076850Y0211707D01*
X0076727Y0211249D01*
X0076727Y0210520D01*
X0076727Y0209791D01*
X0076727Y0209790D01*
X0076727Y0209789D01*
X0076727Y0207314D01*
X0077345Y0206696D01*
X0075990Y0206696D01*
X0074936Y0205642D01*
X0074936Y0203048D01*
X0074622Y0203132D01*
X0073696Y0203132D01*
X0072770Y0203132D01*
X0072312Y0203010D01*
X0071902Y0202773D01*
X0071567Y0202438D01*
X0071330Y0202027D01*
X0071207Y0201569D01*
X0071207Y0200881D01*
X0046874Y0200881D01*
X0046229Y0201525D01*
X0047633Y0204536D01*
X0047123Y0205938D01*
X0037846Y0210264D01*
X0037846Y0211212D01*
X0037267Y0212609D01*
X0036199Y0213677D01*
X0034802Y0214256D01*
X0033290Y0214256D01*
X0031893Y0213677D01*
X0030825Y0212609D01*
X0030246Y0211212D01*
X0030246Y0209700D01*
X0030825Y0208303D01*
X0031893Y0207235D01*
X0033290Y0206656D01*
X0033790Y0206656D01*
X0032823Y0204584D01*
X0033333Y0203183D01*
X0042201Y0199048D01*
X0043621Y0197628D01*
X0044968Y0196281D01*
X0072506Y0196281D01*
X0072533Y0196255D01*
X0073223Y0196275D01*
X0073309Y0196203D01*
X0074152Y0196281D01*
X0074936Y0196281D01*
X0074936Y0194550D01*
X0075990Y0193496D01*
X0077265Y0193496D01*
X0076727Y0192958D01*
X0076727Y0190483D01*
X0076727Y0190482D01*
X0076727Y0190481D01*
X0076727Y0189752D01*
X0077458Y0189752D01*
X0077458Y0189752D01*
X0076727Y0189752D01*
X0076727Y0189023D01*
X0076850Y0188565D01*
X0077087Y0188154D01*
X0077422Y0187819D01*
X0077832Y0187582D01*
X0078290Y0187460D01*
X0079216Y0187460D01*
X0080142Y0187460D01*
X0080600Y0187582D01*
X0081010Y0187819D01*
X0081345Y0188154D01*
X0081582Y0188565D01*
X0081705Y0189023D01*
X0081705Y0189752D01*
X0081705Y0190461D01*
X0081940Y0190682D01*
X0081941Y0190724D01*
X0081971Y0190753D01*
X0081971Y0191670D01*
X0082000Y0192586D01*
X0081971Y0192617D01*
X0081971Y0193496D01*
X0082482Y0193496D01*
X0083536Y0194550D01*
X0083536Y0196906D01*
X0083718Y0196906D01*
X0084871Y0195753D01*
X0085136Y0195488D01*
X0085136Y0194550D01*
X0086190Y0193496D01*
X0089003Y0193496D01*
X0111213Y0171286D01*
X0090207Y0171286D01*
X0089006Y0170085D01*
X0089006Y0029887D01*
X0090207Y0028686D01*
X0205905Y0028686D01*
X0207106Y0029887D01*
X0207106Y0123503D01*
X0209061Y0123503D01*
X0209061Y0128071D01*
X0209429Y0128071D01*
X0209429Y0123503D01*
X0211450Y0123503D01*
X0211908Y0123626D01*
X0212165Y0123774D01*
X0212436Y0123503D01*
X0217865Y0123503D01*
X0218103Y0123742D01*
X0218342Y0123503D01*
X0223770Y0123503D01*
X0224009Y0123742D01*
X0224223Y0123527D01*
X0223782Y0037066D01*
X0222845Y0036129D01*
X0222266Y0034732D01*
X0222266Y0033220D01*
X0222845Y0031823D01*
X0223913Y0030755D01*
X0225310Y0030176D01*
X0226822Y0030176D01*
X0228219Y0030755D01*
X0229287Y0031823D01*
X0229866Y0033220D01*
X0229866Y0034732D01*
X0229287Y0036129D01*
X0228382Y0037034D01*
X0228823Y0123503D01*
X0229676Y0123503D01*
X0229914Y0123742D01*
X0230153Y0123503D01*
X0235581Y0123503D01*
X0235820Y0123742D01*
X0236058Y0123503D01*
X0236746Y0123503D01*
X0236746Y0116333D01*
X0236010Y0115597D01*
X0236010Y0110995D01*
X0236743Y0110262D01*
X0236671Y0061320D01*
X0235745Y0060394D01*
X0235166Y0058997D01*
X0235166Y0057485D01*
X0235745Y0056088D01*
X0236813Y0055020D01*
X0238210Y0054441D01*
X0239722Y0054441D01*
X0241119Y0055020D01*
X0242187Y0056088D01*
X0242766Y0057485D01*
X0242766Y0058997D01*
X0242187Y0060394D01*
X0241271Y0061310D01*
X0241327Y0099406D01*
X0270628Y0099406D01*
X0271878Y0098261D01*
X0279310Y0095556D01*
X0281218Y0095639D01*
X0282949Y0096446D01*
X0284239Y0097854D01*
X0284892Y0099648D01*
X0284809Y0101556D01*
X0284585Y0102036D01*
X0286115Y0102397D01*
X0286922Y0103205D01*
X0287596Y0103878D01*
X0287596Y0103878D01*
X0291114Y0107396D01*
X0291634Y0107723D01*
X0289838Y0102130D01*
X0285448Y0091432D01*
X0280233Y0081110D01*
X0274224Y0071230D01*
X0267458Y0061851D01*
X0259978Y0053033D01*
X0251828Y0044828D01*
X0243060Y0037288D01*
X0233727Y0030459D01*
X0223888Y0024384D01*
X0213601Y0019099D01*
X0202933Y0014638D01*
X0100144Y0014638D01*
X0100982Y0014294D02*
X0090284Y0018684D01*
X0079962Y0023899D01*
X0070082Y0029908D01*
X0060703Y0036674D01*
X0051885Y0044154D01*
X0052761Y0043411D02*
X0089006Y0043411D01*
X0089006Y0041813D02*
X0054645Y0041813D01*
X0056530Y0040214D02*
X0089006Y0040214D01*
X0089006Y0038616D02*
X0058414Y0038616D01*
X0060298Y0037017D02*
X0089006Y0037017D01*
X0089006Y0035419D02*
X0062443Y0035419D01*
X0064659Y0033820D02*
X0089006Y0033820D01*
X0089006Y0032222D02*
X0066875Y0032222D01*
X0069091Y0030623D02*
X0089006Y0030623D01*
X0089868Y0029025D02*
X0071534Y0029025D01*
X0074163Y0027426D02*
X0228815Y0027426D01*
X0231404Y0029025D02*
X0206244Y0029025D01*
X0207106Y0030623D02*
X0224230Y0030623D01*
X0222680Y0032222D02*
X0207106Y0032222D01*
X0207106Y0033820D02*
X0222266Y0033820D01*
X0222551Y0035419D02*
X0207106Y0035419D01*
X0207106Y0037017D02*
X0223733Y0037017D01*
X0223790Y0038616D02*
X0207106Y0038616D01*
X0207106Y0040214D02*
X0223798Y0040214D01*
X0223806Y0041813D02*
X0207106Y0041813D01*
X0207106Y0043411D02*
X0223814Y0043411D01*
X0223822Y0045010D02*
X0207106Y0045010D01*
X0207106Y0046608D02*
X0223830Y0046608D01*
X0223839Y0048207D02*
X0207106Y0048207D01*
X0207106Y0049805D02*
X0223847Y0049805D01*
X0223855Y0051404D02*
X0207106Y0051404D01*
X0207106Y0053002D02*
X0223863Y0053002D01*
X0223871Y0054601D02*
X0207106Y0054601D01*
X0207106Y0056199D02*
X0223879Y0056199D01*
X0223888Y0057798D02*
X0207106Y0057798D01*
X0207106Y0059396D02*
X0223896Y0059396D01*
X0223904Y0060995D02*
X0207106Y0060995D01*
X0207106Y0062593D02*
X0223912Y0062593D01*
X0223920Y0064192D02*
X0207106Y0064192D01*
X0207106Y0065791D02*
X0223928Y0065791D01*
X0223937Y0067389D02*
X0207106Y0067389D01*
X0207106Y0068988D02*
X0223945Y0068988D01*
X0223953Y0070586D02*
X0207106Y0070586D01*
X0207106Y0072185D02*
X0223961Y0072185D01*
X0223969Y0073783D02*
X0207106Y0073783D01*
X0207106Y0075382D02*
X0223977Y0075382D01*
X0223986Y0076980D02*
X0207106Y0076980D01*
X0207106Y0078579D02*
X0223994Y0078579D01*
X0224002Y0080177D02*
X0207106Y0080177D01*
X0207106Y0081776D02*
X0224010Y0081776D01*
X0224018Y0083374D02*
X0207106Y0083374D01*
X0207106Y0084973D02*
X0224026Y0084973D01*
X0224035Y0086571D02*
X0207106Y0086571D01*
X0207106Y0088170D02*
X0224043Y0088170D01*
X0224051Y0089768D02*
X0207106Y0089768D01*
X0207106Y0091367D02*
X0224059Y0091367D01*
X0224067Y0092965D02*
X0207106Y0092965D01*
X0207106Y0094564D02*
X0224075Y0094564D01*
X0224084Y0096162D02*
X0207106Y0096162D01*
X0207106Y0097761D02*
X0224092Y0097761D01*
X0224100Y0099359D02*
X0207106Y0099359D01*
X0207106Y0100958D02*
X0224108Y0100958D01*
X0224116Y0102556D02*
X0207106Y0102556D01*
X0207106Y0104155D02*
X0224124Y0104155D01*
X0224133Y0105753D02*
X0207106Y0105753D01*
X0207106Y0107352D02*
X0224141Y0107352D01*
X0224149Y0108950D02*
X0207106Y0108950D01*
X0207106Y0110549D02*
X0224157Y0110549D01*
X0224165Y0112147D02*
X0207106Y0112147D01*
X0207106Y0113746D02*
X0224173Y0113746D01*
X0224182Y0115344D02*
X0207106Y0115344D01*
X0207106Y0116943D02*
X0224190Y0116943D01*
X0224198Y0118541D02*
X0207106Y0118541D01*
X0207106Y0120140D02*
X0224206Y0120140D01*
X0224214Y0121738D02*
X0207106Y0121738D01*
X0207106Y0123337D02*
X0224222Y0123337D01*
X0228822Y0123337D02*
X0236746Y0123337D01*
X0236746Y0121738D02*
X0228814Y0121738D01*
X0228806Y0120140D02*
X0236746Y0120140D01*
X0236746Y0118541D02*
X0228798Y0118541D01*
X0228790Y0116943D02*
X0236746Y0116943D01*
X0236010Y0115344D02*
X0228782Y0115344D01*
X0228773Y0113746D02*
X0236010Y0113746D01*
X0236010Y0112147D02*
X0228765Y0112147D01*
X0228757Y0110549D02*
X0236456Y0110549D01*
X0236741Y0108950D02*
X0228749Y0108950D01*
X0228741Y0107352D02*
X0236739Y0107352D01*
X0236736Y0105753D02*
X0228733Y0105753D01*
X0228724Y0104155D02*
X0236734Y0104155D01*
X0236732Y0102556D02*
X0228716Y0102556D01*
X0228708Y0100958D02*
X0236729Y0100958D01*
X0236727Y0099359D02*
X0228700Y0099359D01*
X0228692Y0097761D02*
X0236724Y0097761D01*
X0236722Y0096162D02*
X0228684Y0096162D01*
X0228675Y0094564D02*
X0236720Y0094564D01*
X0236717Y0092965D02*
X0228667Y0092965D01*
X0228659Y0091367D02*
X0236715Y0091367D01*
X0236713Y0089768D02*
X0228651Y0089768D01*
X0228643Y0088170D02*
X0236710Y0088170D01*
X0236708Y0086571D02*
X0228635Y0086571D01*
X0228626Y0084973D02*
X0236706Y0084973D01*
X0236703Y0083374D02*
X0228618Y0083374D01*
X0228610Y0081776D02*
X0236701Y0081776D01*
X0236698Y0080177D02*
X0228602Y0080177D01*
X0228594Y0078579D02*
X0236696Y0078579D01*
X0236694Y0076980D02*
X0228586Y0076980D01*
X0228577Y0075382D02*
X0236691Y0075382D01*
X0236689Y0073783D02*
X0228569Y0073783D01*
X0228561Y0072185D02*
X0236687Y0072185D01*
X0236684Y0070586D02*
X0228553Y0070586D01*
X0228545Y0068988D02*
X0236682Y0068988D01*
X0236680Y0067389D02*
X0228537Y0067389D01*
X0228528Y0065791D02*
X0236677Y0065791D01*
X0236675Y0064192D02*
X0228520Y0064192D01*
X0228512Y0062593D02*
X0236672Y0062593D01*
X0236346Y0060995D02*
X0228504Y0060995D01*
X0228496Y0059396D02*
X0235332Y0059396D01*
X0235166Y0057798D02*
X0228488Y0057798D01*
X0228480Y0056199D02*
X0235699Y0056199D01*
X0237824Y0054601D02*
X0228471Y0054601D01*
X0228463Y0053002D02*
X0259948Y0053002D01*
X0261308Y0054601D02*
X0240108Y0054601D01*
X0242233Y0056199D02*
X0262664Y0056199D01*
X0264020Y0057798D02*
X0242766Y0057798D01*
X0242600Y0059396D02*
X0265376Y0059396D01*
X0266732Y0060995D02*
X0241586Y0060995D01*
X0241272Y0062593D02*
X0267994Y0062593D01*
X0269147Y0064192D02*
X0241275Y0064192D01*
X0241277Y0065791D02*
X0270300Y0065791D01*
X0271453Y0067389D02*
X0241280Y0067389D01*
X0241282Y0068988D02*
X0272606Y0068988D01*
X0273759Y0070586D02*
X0241284Y0070586D01*
X0241287Y0072185D02*
X0274805Y0072185D01*
X0275777Y0073783D02*
X0241289Y0073783D01*
X0241291Y0075382D02*
X0276749Y0075382D01*
X0277721Y0076980D02*
X0241294Y0076980D01*
X0241296Y0078579D02*
X0278693Y0078579D01*
X0279665Y0080177D02*
X0241298Y0080177D01*
X0241301Y0081776D02*
X0280569Y0081776D01*
X0281377Y0083374D02*
X0241303Y0083374D01*
X0241306Y0084973D02*
X0282185Y0084973D01*
X0282992Y0086571D02*
X0241308Y0086571D01*
X0241310Y0088170D02*
X0283800Y0088170D01*
X0284608Y0089768D02*
X0241313Y0089768D01*
X0241315Y0091367D02*
X0285415Y0091367D01*
X0286077Y0092965D02*
X0241317Y0092965D01*
X0241320Y0094564D02*
X0286733Y0094564D01*
X0287389Y0096162D02*
X0282340Y0096162D01*
X0284153Y0097761D02*
X0288045Y0097761D01*
X0288701Y0099359D02*
X0284787Y0099359D01*
X0284835Y0100958D02*
X0289357Y0100958D01*
X0289974Y0102556D02*
X0286274Y0102556D01*
X0286115Y0102397D02*
X0286115Y0102397D01*
X0287872Y0104155D02*
X0290488Y0104155D01*
X0291001Y0105753D02*
X0289471Y0105753D01*
X0291069Y0107352D02*
X0291515Y0107352D01*
X0291972Y0108950D02*
X0292028Y0108950D01*
X0292336Y0110549D02*
X0292542Y0110549D01*
X0292701Y0112147D02*
X0293055Y0112147D01*
X0293076Y0113746D02*
X0293517Y0113746D01*
X0293454Y0115344D02*
X0293895Y0115344D01*
X0293854Y0116943D02*
X0294273Y0116943D01*
X0293898Y0118541D02*
X0294652Y0118541D01*
X0295030Y0120140D02*
X0293846Y0120140D01*
X0293846Y0121738D02*
X0295408Y0121738D01*
X0295786Y0123337D02*
X0293846Y0123337D01*
X0293846Y0124935D02*
X0296120Y0124935D01*
X0296367Y0126534D02*
X0293846Y0126534D01*
X0293846Y0128132D02*
X0296615Y0128132D01*
X0296863Y0129731D02*
X0293846Y0129731D01*
X0293846Y0131329D02*
X0297110Y0131329D01*
X0297358Y0132928D02*
X0293846Y0132928D01*
X0293846Y0134526D02*
X0297606Y0134526D01*
X0297829Y0136125D02*
X0293846Y0136125D01*
X0293846Y0137724D02*
X0297950Y0137724D01*
X0298070Y0139322D02*
X0293846Y0139322D01*
X0293846Y0140921D02*
X0298190Y0140921D01*
X0298311Y0142519D02*
X0293846Y0142519D01*
X0293846Y0144118D02*
X0298431Y0144118D01*
X0298552Y0145716D02*
X0293846Y0145716D01*
X0293846Y0147315D02*
X0298672Y0147315D01*
X0298670Y0148913D02*
X0293846Y0148913D01*
X0293846Y0150512D02*
X0298664Y0150512D01*
X0298659Y0152110D02*
X0293846Y0152110D01*
X0293846Y0153709D02*
X0298653Y0153709D01*
X0298648Y0155307D02*
X0293846Y0155307D01*
X0293846Y0156906D02*
X0298643Y0156906D01*
X0298637Y0158504D02*
X0293846Y0158504D01*
X0293846Y0160103D02*
X0298539Y0160103D01*
X0298407Y0161701D02*
X0293846Y0161701D01*
X0293846Y0163300D02*
X0298276Y0163300D01*
X0298145Y0164898D02*
X0293846Y0164898D01*
X0293846Y0166497D02*
X0298014Y0166497D01*
X0297883Y0168095D02*
X0293846Y0168095D01*
X0293846Y0169694D02*
X0297751Y0169694D01*
X0297552Y0171292D02*
X0293846Y0171292D01*
X0293846Y0172891D02*
X0297294Y0172891D01*
X0297035Y0174489D02*
X0293846Y0174489D01*
X0293846Y0176088D02*
X0296776Y0176088D01*
X0296518Y0177686D02*
X0293846Y0177686D01*
X0293846Y0179285D02*
X0296259Y0179285D01*
X0296000Y0180883D02*
X0293846Y0180883D01*
X0293846Y0182482D02*
X0295690Y0182482D01*
X0295301Y0184080D02*
X0293846Y0184080D01*
X0293846Y0185679D02*
X0294912Y0185679D01*
X0294522Y0187277D02*
X0293846Y0187277D01*
X0293846Y0188876D02*
X0294133Y0188876D01*
X0293743Y0190474D02*
X0292905Y0190474D01*
X0293354Y0192073D02*
X0291307Y0192073D01*
X0289708Y0193671D02*
X0292915Y0193671D01*
X0292390Y0195270D02*
X0288110Y0195270D01*
X0286511Y0196868D02*
X0291864Y0196868D01*
X0291339Y0198467D02*
X0284913Y0198467D01*
X0283314Y0200065D02*
X0290814Y0200065D01*
X0290288Y0201664D02*
X0281716Y0201664D01*
X0280117Y0203262D02*
X0289763Y0203262D01*
X0289168Y0204861D02*
X0278519Y0204861D01*
X0276920Y0206459D02*
X0288499Y0206459D01*
X0287831Y0208058D02*
X0275322Y0208058D01*
X0273723Y0209657D02*
X0287163Y0209657D01*
X0286494Y0211255D02*
X0272125Y0211255D01*
X0270526Y0212854D02*
X0285826Y0212854D01*
X0285157Y0214452D02*
X0268928Y0214452D01*
X0267329Y0216051D02*
X0284364Y0216051D01*
X0283543Y0217649D02*
X0265731Y0217649D01*
X0264132Y0219248D02*
X0282722Y0219248D01*
X0281901Y0220846D02*
X0262534Y0220846D01*
X0260935Y0222445D02*
X0281079Y0222445D01*
X0280258Y0224043D02*
X0259337Y0224043D01*
X0257738Y0225642D02*
X0279374Y0225642D01*
X0278387Y0227240D02*
X0256140Y0227240D01*
X0254541Y0228839D02*
X0277400Y0228839D01*
X0276413Y0230437D02*
X0252943Y0230437D01*
X0251344Y0232036D02*
X0275426Y0232036D01*
X0274439Y0233634D02*
X0249745Y0233634D01*
X0248147Y0235233D02*
X0273411Y0235233D01*
X0272241Y0236831D02*
X0246548Y0236831D01*
X0244950Y0238430D02*
X0271072Y0238430D01*
X0269902Y0240028D02*
X0243351Y0240028D01*
X0241753Y0241627D02*
X0268733Y0241627D01*
X0267563Y0243225D02*
X0240219Y0243225D01*
X0239464Y0241627D02*
X0238878Y0241627D01*
X0238309Y0240471D02*
X0238309Y0240471D01*
X0237866Y0240028D02*
X0237537Y0240028D01*
X0241560Y0244824D02*
X0266314Y0244824D01*
X0264940Y0246422D02*
X0242902Y0246422D01*
X0244221Y0248021D02*
X0263565Y0248021D01*
X0262191Y0249619D02*
X0243929Y0249619D01*
X0242024Y0251218D02*
X0260816Y0251218D01*
X0259441Y0252816D02*
X0240119Y0252816D01*
X0238214Y0254415D02*
X0257855Y0254415D01*
X0256246Y0256013D02*
X0236199Y0256013D01*
X0234715Y0257351D02*
X0230522Y0252353D01*
X0230521Y0252353D01*
X0229216Y0253448D01*
X0229216Y0253448D01*
X0226691Y0255567D01*
X0230885Y0260565D01*
X0226691Y0255567D01*
X0226691Y0255567D01*
X0226691Y0255567D01*
X0227997Y0254472D01*
X0227997Y0254472D01*
X0230521Y0252353D01*
X0230521Y0252353D01*
X0234715Y0257351D01*
X0234404Y0257612D02*
X0254637Y0257612D01*
X0253027Y0259210D02*
X0232381Y0259210D01*
X0230594Y0260809D02*
X0251418Y0260809D01*
X0249588Y0262407D02*
X0228689Y0262407D01*
X0226784Y0264006D02*
X0247704Y0264006D01*
X0245819Y0265604D02*
X0067030Y0265604D01*
X0066698Y0265937D02*
X0065207Y0265937D01*
X0054687Y0255417D01*
X0054687Y0253926D01*
X0060196Y0248417D01*
X0061687Y0248417D01*
X0072206Y0258937D01*
X0072206Y0260428D01*
X0066698Y0265937D01*
X0064874Y0265604D02*
X0057148Y0265604D01*
X0055289Y0264006D02*
X0063276Y0264006D01*
X0061677Y0262407D02*
X0053430Y0262407D01*
X0051571Y0260809D02*
X0060079Y0260809D01*
X0058480Y0259210D02*
X0049923Y0259210D01*
X0048335Y0257612D02*
X0056882Y0257612D01*
X0055283Y0256013D02*
X0046747Y0256013D01*
X0045159Y0254415D02*
X0054687Y0254415D01*
X0055797Y0252816D02*
X0043572Y0252816D01*
X0042133Y0251218D02*
X0057395Y0251218D01*
X0058994Y0249619D02*
X0040777Y0249619D01*
X0039421Y0248021D02*
X0209530Y0248021D01*
X0210871Y0249619D02*
X0062889Y0249619D01*
X0064487Y0251218D02*
X0212212Y0251218D01*
X0213163Y0252816D02*
X0066086Y0252816D01*
X0067684Y0254415D02*
X0210256Y0254415D01*
X0207871Y0256013D02*
X0069283Y0256013D01*
X0070881Y0257612D02*
X0207275Y0257612D01*
X0207392Y0259210D02*
X0072206Y0259210D01*
X0071826Y0260809D02*
X0208342Y0260809D01*
X0213770Y0260809D02*
X0220260Y0260809D01*
X0221601Y0262407D02*
X0070227Y0262407D01*
X0068629Y0264006D02*
X0222943Y0264006D01*
X0218919Y0259210D02*
X0214720Y0259210D01*
X0214873Y0257612D02*
X0217577Y0257612D01*
X0216841Y0256013D02*
X0216471Y0256013D01*
X0227066Y0256013D02*
X0227066Y0256013D01*
X0228064Y0254415D02*
X0228064Y0254415D01*
X0229969Y0252816D02*
X0229969Y0252816D01*
X0230910Y0252816D02*
X0230910Y0252816D01*
X0232251Y0254415D02*
X0232252Y0254415D01*
X0233593Y0256013D02*
X0233593Y0256013D01*
X0229749Y0259210D02*
X0229748Y0259210D01*
X0228407Y0257612D02*
X0228407Y0257612D01*
X0242010Y0268801D02*
X0061030Y0268801D01*
X0059007Y0267203D02*
X0243935Y0267203D01*
X0239794Y0270400D02*
X0063215Y0270400D01*
X0065400Y0271998D02*
X0237578Y0271998D01*
X0235363Y0273597D02*
X0067584Y0273597D01*
X0069864Y0275195D02*
X0233147Y0275195D01*
X0230564Y0276794D02*
X0072453Y0276794D01*
X0075042Y0278393D02*
X0227936Y0278393D01*
X0225307Y0279991D02*
X0077631Y0279991D01*
X0080446Y0281590D02*
X0222609Y0281590D01*
X0219445Y0283188D02*
X0175921Y0283188D01*
X0175776Y0283043D02*
X0177693Y0284952D01*
X0178733Y0287450D01*
X0178739Y0290155D01*
X0177709Y0292656D01*
X0175800Y0294573D01*
X0173302Y0295613D01*
X0131237Y0295699D01*
X0128736Y0294669D01*
X0126819Y0292760D01*
X0125779Y0290262D01*
X0125773Y0287557D01*
X0126803Y0285056D01*
X0128712Y0283139D01*
X0131210Y0282099D01*
X0173275Y0282013D01*
X0175776Y0283043D01*
X0177526Y0284787D02*
X0216282Y0284787D01*
X0213118Y0286385D02*
X0178290Y0286385D01*
X0178734Y0287984D02*
X0209319Y0287984D01*
X0205423Y0289582D02*
X0178738Y0289582D01*
X0178316Y0291181D02*
X0201395Y0291181D01*
X0196418Y0292779D02*
X0177586Y0292779D01*
X0175994Y0294378D02*
X0191441Y0294378D01*
X0184844Y0295976D02*
X0118111Y0295976D01*
X0111550Y0294378D02*
X0128444Y0294378D01*
X0126839Y0292779D02*
X0106554Y0292779D01*
X0101690Y0291181D02*
X0126161Y0291181D01*
X0125777Y0289582D02*
X0097516Y0289582D01*
X0093694Y0287984D02*
X0125774Y0287984D01*
X0126256Y0286385D02*
X0089871Y0286385D01*
X0086669Y0284787D02*
X0127072Y0284787D01*
X0128664Y0283188D02*
X0083557Y0283188D01*
X0084137Y0247006D02*
X0073617Y0236487D01*
X0073617Y0234996D01*
X0079126Y0229487D01*
X0080617Y0229487D01*
X0091137Y0240007D01*
X0091137Y0241498D01*
X0085628Y0247006D01*
X0084137Y0247006D01*
X0083553Y0246422D02*
X0038065Y0246422D01*
X0036709Y0244824D02*
X0059127Y0244824D01*
X0059917Y0245614D02*
X0061408Y0245614D01*
X0065247Y0241776D01*
X0065247Y0240285D01*
X0051386Y0226425D01*
X0049895Y0226425D01*
X0046971Y0229349D01*
X0046971Y0222259D01*
X0048074Y0221802D01*
X0049142Y0220734D01*
X0049721Y0219337D01*
X0049721Y0217825D01*
X0049142Y0216428D01*
X0048752Y0216038D01*
X0051283Y0214858D01*
X0051793Y0213457D01*
X0049166Y0207824D01*
X0047765Y0207314D01*
X0037493Y0212103D01*
X0036983Y0213505D01*
X0037826Y0215313D01*
X0037630Y0215231D01*
X0035015Y0215231D01*
X0032600Y0216232D01*
X0030751Y0218080D01*
X0029751Y0220496D01*
X0029751Y0223110D01*
X0030751Y0225525D01*
X0032600Y0227374D01*
X0035015Y0228375D01*
X0037630Y0228375D01*
X0040045Y0227374D01*
X0041894Y0225525D01*
X0042371Y0224373D01*
X0042371Y0236409D01*
X0043718Y0237756D01*
X0052059Y0237756D01*
X0059917Y0245614D01*
X0062199Y0244824D02*
X0081954Y0244824D01*
X0080356Y0243225D02*
X0063797Y0243225D01*
X0065247Y0241627D02*
X0078757Y0241627D01*
X0077159Y0240028D02*
X0066536Y0240028D01*
X0066467Y0240047D02*
X0065994Y0240047D01*
X0065536Y0239924D01*
X0065125Y0239687D01*
X0058685Y0233247D01*
X0061219Y0230712D01*
X0060959Y0230452D01*
X0058424Y0232986D01*
X0051984Y0226546D01*
X0051747Y0226136D01*
X0051625Y0225678D01*
X0051625Y0225204D01*
X0051747Y0224746D01*
X0051984Y0224336D01*
X0053413Y0222906D01*
X0060959Y0230452D01*
X0061219Y0230191D01*
X0053674Y0222646D01*
X0055103Y0221216D01*
X0055514Y0220980D01*
X0055972Y0220857D01*
X0056445Y0220857D01*
X0056903Y0220980D01*
X0057314Y0221216D01*
X0063754Y0227657D01*
X0061220Y0230191D01*
X0061480Y0230452D01*
X0061220Y0230712D01*
X0068765Y0238258D01*
X0067336Y0239687D01*
X0066925Y0239924D01*
X0066467Y0240047D01*
X0065925Y0240028D02*
X0064990Y0240028D01*
X0063868Y0238430D02*
X0063391Y0238430D01*
X0062270Y0236831D02*
X0061793Y0236831D01*
X0060671Y0235233D02*
X0060194Y0235233D01*
X0059073Y0233634D02*
X0058596Y0233634D01*
X0059375Y0232036D02*
X0059896Y0232036D01*
X0060944Y0230437D02*
X0060973Y0230437D01*
X0061466Y0230437D02*
X0061495Y0230437D01*
X0061480Y0230452D02*
X0064015Y0227917D01*
X0070455Y0234357D01*
X0070692Y0234768D01*
X0070814Y0235226D01*
X0070814Y0235700D01*
X0070692Y0236157D01*
X0070455Y0236568D01*
X0069026Y0237997D01*
X0061480Y0230452D01*
X0062543Y0232036D02*
X0063064Y0232036D01*
X0064141Y0233634D02*
X0064663Y0233634D01*
X0065740Y0235233D02*
X0066261Y0235233D01*
X0067338Y0236831D02*
X0067860Y0236831D01*
X0068593Y0238430D02*
X0075560Y0238430D01*
X0073962Y0236831D02*
X0070191Y0236831D01*
X0070814Y0235233D02*
X0073617Y0235233D01*
X0074979Y0233634D02*
X0069731Y0233634D01*
X0068133Y0232036D02*
X0076577Y0232036D01*
X0078176Y0230437D02*
X0066534Y0230437D01*
X0064936Y0228839D02*
X0210181Y0228839D01*
X0211779Y0227240D02*
X0063337Y0227240D01*
X0063093Y0228839D02*
X0062572Y0228839D01*
X0059867Y0228839D02*
X0059346Y0228839D01*
X0058269Y0227240D02*
X0057747Y0227240D01*
X0056670Y0225642D02*
X0056149Y0225642D01*
X0055071Y0224043D02*
X0054550Y0224043D01*
X0053875Y0222445D02*
X0046971Y0222445D01*
X0046971Y0224043D02*
X0052277Y0224043D01*
X0051625Y0225642D02*
X0046971Y0225642D01*
X0046971Y0227240D02*
X0049080Y0227240D01*
X0047481Y0228839D02*
X0046971Y0228839D01*
X0042371Y0228839D02*
X0025591Y0228839D01*
X0026563Y0230437D02*
X0042371Y0230437D01*
X0042371Y0232036D02*
X0027535Y0232036D01*
X0028507Y0233634D02*
X0042371Y0233634D01*
X0042371Y0235233D02*
X0029613Y0235233D01*
X0030766Y0236831D02*
X0042794Y0236831D01*
X0035379Y0243225D02*
X0057528Y0243225D01*
X0055930Y0241627D02*
X0034226Y0241627D01*
X0033073Y0240028D02*
X0054331Y0240028D01*
X0052733Y0238430D02*
X0031920Y0238430D01*
X0032466Y0227240D02*
X0024618Y0227240D01*
X0023646Y0225642D02*
X0030868Y0225642D01*
X0030137Y0224043D02*
X0022687Y0224043D01*
X0021879Y0222445D02*
X0029751Y0222445D01*
X0029751Y0220846D02*
X0021072Y0220846D01*
X0020264Y0219248D02*
X0030268Y0219248D01*
X0031183Y0217649D02*
X0019456Y0217649D01*
X0018649Y0216051D02*
X0033037Y0216051D01*
X0031070Y0212854D02*
X0017128Y0212854D01*
X0016472Y0211255D02*
X0030264Y0211255D01*
X0030264Y0209657D02*
X0015816Y0209657D01*
X0015160Y0208058D02*
X0031070Y0208058D01*
X0033698Y0206459D02*
X0014504Y0206459D01*
X0013848Y0204861D02*
X0032952Y0204861D01*
X0033305Y0203262D02*
X0013193Y0203262D01*
X0012669Y0201664D02*
X0020410Y0201664D01*
X0020787Y0202040D02*
X0018938Y0200192D01*
X0017938Y0197776D01*
X0017938Y0195162D01*
X0018178Y0194582D01*
X0018016Y0194744D01*
X0013376Y0194744D01*
X0012321Y0193689D01*
X0012321Y0189048D01*
X0012954Y0188416D01*
X0012321Y0187784D01*
X0012321Y0183143D01*
X0013376Y0182088D01*
X0016036Y0182088D01*
X0022996Y0175128D01*
X0024343Y0173781D01*
X0038442Y0173781D01*
X0039390Y0172833D01*
X0043171Y0172833D01*
X0041505Y0171168D01*
X0037862Y0171168D01*
X0036808Y0170113D01*
X0036808Y0164291D01*
X0037243Y0163856D01*
X0037167Y0163780D01*
X0036930Y0163370D01*
X0036808Y0162912D01*
X0036807Y0160694D01*
X0040392Y0160694D01*
X0040392Y0160325D01*
X0036808Y0160325D01*
X0036808Y0158107D01*
X0036930Y0157649D01*
X0037167Y0157239D01*
X0037502Y0156904D01*
X0037913Y0156667D01*
X0038371Y0156544D01*
X0039382Y0156544D01*
X0033093Y0150256D01*
X0026802Y0150256D01*
X0026802Y0157068D01*
X0026801Y0157068D01*
X0026802Y0157070D01*
X0026802Y0158094D01*
X0025776Y0158094D01*
X0025776Y0158094D01*
X0026802Y0158094D01*
X0026802Y0159118D01*
X0026679Y0159576D01*
X0026459Y0159958D01*
X0026802Y0160301D01*
X0026802Y0170060D01*
X0025747Y0171115D01*
X0017957Y0171115D01*
X0017156Y0170314D01*
X0017156Y0171832D01*
X0016102Y0172886D01*
X0007130Y0172886D01*
X0006076Y0171832D01*
X0006076Y0163254D01*
X0007130Y0162200D01*
X0016102Y0162200D01*
X0016903Y0163001D01*
X0016903Y0160373D01*
X0016102Y0161174D01*
X0007130Y0161174D01*
X0006076Y0160119D01*
X0006076Y0145833D01*
X0007130Y0144778D01*
X0016102Y0144778D01*
X0016903Y0145579D01*
X0016903Y0142951D01*
X0016102Y0143752D01*
X0007130Y0143752D01*
X0006076Y0142698D01*
X0006076Y0134120D01*
X0007130Y0133066D01*
X0016102Y0133066D01*
X0017156Y0134120D01*
X0017156Y0135638D01*
X0017957Y0134837D01*
X0025747Y0134837D01*
X0026802Y0135892D01*
X0026802Y0145651D01*
X0026797Y0145656D01*
X0034999Y0145656D01*
X0049999Y0160656D01*
X0051346Y0162003D01*
X0051346Y0164103D01*
X0051653Y0164021D01*
X0052736Y0164021D01*
X0053819Y0164021D01*
X0054277Y0164144D01*
X0054688Y0164381D01*
X0055023Y0164716D01*
X0055260Y0165126D01*
X0055382Y0165584D01*
X0055382Y0166372D01*
X0054671Y0166372D01*
X0054671Y0166372D01*
X0055382Y0166372D01*
X0055382Y0169677D01*
X0055096Y0169963D01*
X0055096Y0172833D01*
X0055842Y0172833D01*
X0056897Y0173888D01*
X0056897Y0177544D01*
X0055842Y0178599D01*
X0051346Y0178599D01*
X0051346Y0180313D01*
X0055842Y0180313D01*
X0056185Y0180656D01*
X0057264Y0180656D01*
X0057264Y0180422D01*
X0058319Y0179367D01*
X0064141Y0179367D01*
X0064576Y0179803D01*
X0064652Y0179727D01*
X0065062Y0179490D01*
X0065520Y0179367D01*
X0067738Y0179367D01*
X0067738Y0182952D01*
X0068107Y0182952D01*
X0068107Y0183320D01*
X0071888Y0183320D01*
X0071888Y0185341D01*
X0071765Y0185799D01*
X0071528Y0186210D01*
X0071193Y0186545D01*
X0070783Y0186782D01*
X0070325Y0186904D01*
X0068107Y0186904D01*
X0068107Y0183320D01*
X0067738Y0183320D01*
X0067738Y0186904D01*
X0065520Y0186904D01*
X0065062Y0186782D01*
X0064652Y0186545D01*
X0064576Y0186469D01*
X0064141Y0186904D01*
X0058319Y0186904D01*
X0057264Y0185850D01*
X0057264Y0185256D01*
X0056665Y0185256D01*
X0055842Y0186079D01*
X0055096Y0186079D01*
X0055096Y0189211D01*
X0055263Y0189498D01*
X0055096Y0190130D01*
X0055096Y0190784D01*
X0055062Y0190817D01*
X0055062Y0193357D01*
X0054008Y0194411D01*
X0053391Y0194411D01*
X0053239Y0194580D01*
X0053171Y0194583D01*
X0053124Y0194631D01*
X0052229Y0194631D01*
X0051336Y0194676D01*
X0051286Y0194631D01*
X0043014Y0194631D01*
X0043474Y0195616D01*
X0042964Y0197017D01*
X0032692Y0201807D01*
X0031291Y0201297D01*
X0030407Y0199403D01*
X0030080Y0200192D01*
X0028232Y0202040D01*
X0025817Y0203041D01*
X0023202Y0203041D01*
X0020787Y0202040D01*
X0018886Y0200065D02*
X0012156Y0200065D01*
X0011642Y0198467D02*
X0018224Y0198467D01*
X0017938Y0196868D02*
X0011129Y0196868D01*
X0010615Y0195270D02*
X0017938Y0195270D01*
X0012321Y0193671D02*
X0010102Y0193671D01*
X0009594Y0192073D02*
X0012321Y0192073D01*
X0012321Y0190474D02*
X0009216Y0190474D01*
X0008838Y0188876D02*
X0012494Y0188876D01*
X0012321Y0187277D02*
X0008460Y0187277D01*
X0008082Y0185679D02*
X0012321Y0185679D01*
X0012321Y0184080D02*
X0007704Y0184080D01*
X0007326Y0182482D02*
X0012982Y0182482D01*
X0017241Y0180883D02*
X0006948Y0180883D01*
X0006700Y0179285D02*
X0018840Y0179285D01*
X0020438Y0177686D02*
X0006452Y0177686D01*
X0006205Y0176088D02*
X0022037Y0176088D01*
X0023635Y0174489D02*
X0005957Y0174489D01*
X0005709Y0172891D02*
X0039332Y0172891D01*
X0041630Y0171292D02*
X0017156Y0171292D01*
X0016903Y0161701D02*
X0004593Y0161701D01*
X0004473Y0160103D02*
X0006076Y0160103D01*
X0006076Y0158504D02*
X0004353Y0158504D01*
X0004313Y0156906D02*
X0006076Y0156906D01*
X0006076Y0155307D02*
X0004318Y0155307D01*
X0004323Y0153709D02*
X0006076Y0153709D01*
X0006076Y0152110D02*
X0004329Y0152110D01*
X0004334Y0150512D02*
X0006076Y0150512D01*
X0006076Y0148913D02*
X0004340Y0148913D01*
X0004345Y0147315D02*
X0006076Y0147315D01*
X0006193Y0145716D02*
X0004401Y0145716D01*
X0004532Y0144118D02*
X0016903Y0144118D01*
X0017156Y0134526D02*
X0089006Y0134526D01*
X0089006Y0132928D02*
X0005603Y0132928D01*
X0005344Y0134526D02*
X0006076Y0134526D01*
X0006076Y0136125D02*
X0005189Y0136125D01*
X0005057Y0137724D02*
X0006076Y0137724D01*
X0006076Y0139322D02*
X0004926Y0139322D01*
X0004795Y0140921D02*
X0006076Y0140921D01*
X0006076Y0142519D02*
X0004664Y0142519D01*
X0005862Y0131329D02*
X0089006Y0131329D01*
X0089006Y0129731D02*
X0006121Y0129731D01*
X0006379Y0128132D02*
X0089006Y0128132D01*
X0089006Y0126534D02*
X0006638Y0126534D01*
X0006897Y0124935D02*
X0089006Y0124935D01*
X0089006Y0123337D02*
X0007162Y0123337D01*
X0007552Y0121738D02*
X0089006Y0121738D01*
X0089006Y0120140D02*
X0007941Y0120140D01*
X0008331Y0118541D02*
X0089006Y0118541D01*
X0089006Y0116943D02*
X0008720Y0116943D01*
X0009110Y0115344D02*
X0089006Y0115344D01*
X0089006Y0113746D02*
X0009499Y0113746D01*
X0009892Y0112147D02*
X0089006Y0112147D01*
X0089006Y0110549D02*
X0010417Y0110549D01*
X0010943Y0108950D02*
X0089006Y0108950D01*
X0089006Y0107352D02*
X0011468Y0107352D01*
X0011993Y0105753D02*
X0089006Y0105753D01*
X0089006Y0104155D02*
X0012519Y0104155D01*
X0013044Y0102556D02*
X0089006Y0102556D01*
X0089006Y0100958D02*
X0013591Y0100958D01*
X0014259Y0099359D02*
X0089006Y0099359D01*
X0089006Y0097761D02*
X0014928Y0097761D01*
X0015596Y0096162D02*
X0089006Y0096162D01*
X0089006Y0094564D02*
X0016265Y0094564D01*
X0016933Y0092965D02*
X0089006Y0092965D01*
X0089006Y0091367D02*
X0017602Y0091367D01*
X0018343Y0089768D02*
X0089006Y0089768D01*
X0089006Y0088170D02*
X0019164Y0088170D01*
X0019985Y0086571D02*
X0089006Y0086571D01*
X0089006Y0084973D02*
X0020807Y0084973D01*
X0021628Y0083374D02*
X0089006Y0083374D01*
X0089006Y0081776D02*
X0022449Y0081776D01*
X0023278Y0080177D02*
X0089006Y0080177D01*
X0089006Y0078579D02*
X0024265Y0078579D01*
X0025252Y0076980D02*
X0089006Y0076980D01*
X0089006Y0075382D02*
X0026238Y0075382D01*
X0027225Y0073783D02*
X0089006Y0073783D01*
X0089006Y0072185D02*
X0028212Y0072185D01*
X0029199Y0070586D02*
X0089006Y0070586D01*
X0089006Y0068988D02*
X0030348Y0068988D01*
X0031518Y0067389D02*
X0089006Y0067389D01*
X0089006Y0065791D02*
X0032688Y0065791D01*
X0033857Y0064192D02*
X0089006Y0064192D01*
X0089006Y0062593D02*
X0035027Y0062593D01*
X0036206Y0060995D02*
X0089006Y0060995D01*
X0089006Y0059396D02*
X0037581Y0059396D01*
X0038956Y0057798D02*
X0089006Y0057798D01*
X0089006Y0056199D02*
X0040330Y0056199D01*
X0041705Y0054601D02*
X0089006Y0054601D01*
X0089006Y0053002D02*
X0043079Y0053002D01*
X0044586Y0051404D02*
X0089006Y0051404D01*
X0089006Y0049805D02*
X0046196Y0049805D01*
X0076791Y0025828D02*
X0226226Y0025828D01*
X0223586Y0024229D02*
X0079419Y0024229D01*
X0082472Y0022631D02*
X0220475Y0022631D01*
X0217364Y0021032D02*
X0085636Y0021032D01*
X0088800Y0019434D02*
X0214253Y0019434D01*
X0210579Y0017835D02*
X0092352Y0017835D01*
X0096248Y0016237D02*
X0206756Y0016237D01*
X0202933Y0014638D02*
X0191946Y0011027D01*
X0180711Y0008290D01*
X0169295Y0006442D01*
X0157770Y0005496D01*
X0146206Y0005457D01*
X0134674Y0006326D01*
X0123246Y0008096D01*
X0111993Y0010758D01*
X0100982Y0014294D01*
X0104889Y0013040D02*
X0198070Y0013040D01*
X0193206Y0011441D02*
X0109865Y0011441D01*
X0115862Y0009843D02*
X0187084Y0009843D01*
X0180429Y0008244D02*
X0122621Y0008244D01*
X0132609Y0006646D02*
X0170552Y0006646D01*
X0227902Y0030623D02*
X0233951Y0030623D01*
X0236136Y0032222D02*
X0229452Y0032222D01*
X0229866Y0033820D02*
X0238321Y0033820D01*
X0240505Y0035419D02*
X0229581Y0035419D01*
X0228399Y0037017D02*
X0242690Y0037017D01*
X0244604Y0038616D02*
X0228390Y0038616D01*
X0228398Y0040214D02*
X0246463Y0040214D01*
X0248322Y0041813D02*
X0228406Y0041813D01*
X0228414Y0043411D02*
X0250181Y0043411D01*
X0252009Y0045010D02*
X0228422Y0045010D01*
X0228431Y0046608D02*
X0253596Y0046608D01*
X0255184Y0048207D02*
X0228439Y0048207D01*
X0228447Y0049805D02*
X0256772Y0049805D01*
X0258360Y0051404D02*
X0228455Y0051404D01*
X0241322Y0096162D02*
X0277645Y0096162D01*
X0273253Y0097761D02*
X0241324Y0097761D01*
X0241327Y0099359D02*
X0270679Y0099359D01*
X0255496Y0116506D02*
X0254280Y0116506D01*
X0253575Y0116651D01*
X0253356Y0116506D01*
X0253093Y0116506D01*
X0252998Y0116411D01*
X0252424Y0116411D01*
X0251370Y0115357D01*
X0251370Y0114006D01*
X0251346Y0114006D01*
X0251346Y0133345D01*
X0253352Y0133345D01*
X0253352Y0136930D01*
X0253721Y0136930D01*
X0253721Y0133345D01*
X0255496Y0133345D01*
X0255496Y0116506D01*
X0255496Y0116943D02*
X0251346Y0116943D01*
X0251346Y0118541D02*
X0255496Y0118541D01*
X0255496Y0120140D02*
X0251346Y0120140D01*
X0251346Y0121738D02*
X0255496Y0121738D01*
X0255496Y0123337D02*
X0251346Y0123337D01*
X0251346Y0124935D02*
X0255496Y0124935D01*
X0255496Y0126534D02*
X0251346Y0126534D01*
X0251346Y0128132D02*
X0255496Y0128132D01*
X0255496Y0129731D02*
X0251346Y0129731D01*
X0251346Y0131329D02*
X0255496Y0131329D01*
X0255496Y0132928D02*
X0251346Y0132928D01*
X0253352Y0134526D02*
X0253721Y0134526D01*
X0253721Y0136125D02*
X0253352Y0136125D01*
X0246746Y0133345D02*
X0246746Y0133008D01*
X0241964Y0133008D01*
X0241725Y0132770D01*
X0241487Y0133008D01*
X0236058Y0133008D01*
X0235820Y0132770D01*
X0235581Y0133008D01*
X0232246Y0133008D01*
X0231596Y0133659D01*
X0231596Y0134962D01*
X0231017Y0136359D01*
X0229949Y0137427D01*
X0228552Y0138006D01*
X0227040Y0138006D01*
X0225643Y0137427D01*
X0224575Y0136359D01*
X0223996Y0134962D01*
X0223996Y0133450D01*
X0224199Y0132960D01*
X0224009Y0132770D01*
X0223770Y0133008D01*
X0223221Y0133008D01*
X0223221Y0163632D01*
X0224142Y0164553D01*
X0224721Y0165950D01*
X0224721Y0167462D01*
X0224433Y0168156D01*
X0247468Y0168156D01*
X0248784Y0166841D01*
X0248784Y0163927D01*
X0249022Y0163689D01*
X0248784Y0163450D01*
X0248784Y0162651D01*
X0247927Y0163006D01*
X0246415Y0163006D01*
X0245018Y0162427D01*
X0243950Y0161359D01*
X0243371Y0159962D01*
X0243371Y0158450D01*
X0243950Y0157053D01*
X0244871Y0156132D01*
X0244871Y0148253D01*
X0246218Y0146906D01*
X0248784Y0146906D01*
X0248784Y0146211D01*
X0249022Y0145972D01*
X0248784Y0145734D01*
X0248784Y0145256D01*
X0248093Y0145256D01*
X0246746Y0143909D01*
X0246746Y0140882D01*
X0244862Y0140882D01*
X0244862Y0137298D01*
X0244494Y0137298D01*
X0244494Y0136930D01*
X0240910Y0136930D01*
X0240910Y0134909D01*
X0241032Y0134451D01*
X0241269Y0134040D01*
X0241604Y0133705D01*
X0242015Y0133468D01*
X0242473Y0133345D01*
X0244494Y0133345D01*
X0244494Y0136930D01*
X0244862Y0136930D01*
X0244862Y0133345D01*
X0246746Y0133345D01*
X0244862Y0134526D02*
X0244494Y0134526D01*
X0244494Y0136125D02*
X0244862Y0136125D01*
X0244494Y0137298D02*
X0240910Y0137298D01*
X0240910Y0139319D01*
X0241032Y0139777D01*
X0241269Y0140188D01*
X0241604Y0140523D01*
X0242015Y0140760D01*
X0242473Y0140882D01*
X0244494Y0140882D01*
X0244494Y0137298D01*
X0244494Y0137724D02*
X0244862Y0137724D01*
X0244862Y0139322D02*
X0244494Y0139322D01*
X0246746Y0140921D02*
X0223221Y0140921D01*
X0223221Y0142519D02*
X0246746Y0142519D01*
X0246955Y0144118D02*
X0223221Y0144118D01*
X0223221Y0145716D02*
X0248784Y0145716D01*
X0245810Y0147315D02*
X0223221Y0147315D01*
X0223221Y0148913D02*
X0244871Y0148913D01*
X0244871Y0150512D02*
X0223221Y0150512D01*
X0223221Y0152110D02*
X0244871Y0152110D01*
X0244871Y0153709D02*
X0223221Y0153709D01*
X0223221Y0155307D02*
X0244871Y0155307D01*
X0244097Y0156906D02*
X0223221Y0156906D01*
X0223221Y0158504D02*
X0243371Y0158504D01*
X0243429Y0160103D02*
X0223221Y0160103D01*
X0223221Y0161701D02*
X0244292Y0161701D01*
X0248784Y0163300D02*
X0223221Y0163300D01*
X0224285Y0164898D02*
X0248784Y0164898D01*
X0248784Y0166497D02*
X0224721Y0166497D01*
X0224459Y0168095D02*
X0247529Y0168095D01*
X0258050Y0169594D02*
X0258289Y0169833D01*
X0258289Y0175261D01*
X0258050Y0175500D01*
X0258289Y0175738D01*
X0258289Y0181167D01*
X0258050Y0181405D01*
X0258289Y0181644D01*
X0258289Y0185839D01*
X0258768Y0185360D01*
X0260165Y0184781D01*
X0261677Y0184781D01*
X0263074Y0185360D01*
X0264142Y0186428D01*
X0264721Y0187825D01*
X0264721Y0189337D01*
X0264142Y0190734D01*
X0263074Y0191802D01*
X0261677Y0192381D01*
X0260165Y0192381D01*
X0258768Y0191802D01*
X0257847Y0190881D01*
X0248447Y0190881D01*
X0248447Y0193032D01*
X0244862Y0193032D01*
X0244862Y0193401D01*
X0244494Y0193401D01*
X0244494Y0197969D01*
X0242473Y0197969D01*
X0242015Y0197846D01*
X0241758Y0197698D01*
X0241487Y0197969D01*
X0236763Y0197969D01*
X0237221Y0199075D01*
X0237221Y0200587D01*
X0236642Y0201984D01*
X0235574Y0203052D01*
X0234177Y0203631D01*
X0232665Y0203631D01*
X0231268Y0203052D01*
X0230200Y0201984D01*
X0229621Y0200587D01*
X0229621Y0199075D01*
X0230101Y0197917D01*
X0229882Y0197698D01*
X0229625Y0197846D01*
X0229167Y0197969D01*
X0227146Y0197969D01*
X0227146Y0193401D01*
X0226777Y0193401D01*
X0226777Y0197969D01*
X0224756Y0197969D01*
X0224298Y0197846D01*
X0224041Y0197698D01*
X0223770Y0197969D01*
X0220411Y0197969D01*
X0218124Y0200256D01*
X0205683Y0200256D01*
X0205971Y0200950D01*
X0205971Y0202462D01*
X0205392Y0203859D01*
X0204324Y0204927D01*
X0202927Y0205506D01*
X0201415Y0205506D01*
X0200812Y0205256D01*
X0131495Y0205256D01*
X0130574Y0206177D01*
X0130324Y0206281D01*
X0208718Y0206281D01*
X0210624Y0206281D01*
X0240301Y0235958D01*
X0240608Y0236266D01*
X0289246Y0187628D01*
X0289246Y0123439D01*
X0286346Y0124495D01*
X0286346Y0132034D01*
X0284999Y0133381D01*
X0258289Y0160091D01*
X0258289Y0163450D01*
X0258050Y0163689D01*
X0258289Y0163927D01*
X0258289Y0169356D01*
X0258050Y0169594D01*
X0258150Y0169694D02*
X0289246Y0169694D01*
X0289246Y0171292D02*
X0258289Y0171292D01*
X0258289Y0172891D02*
X0289246Y0172891D01*
X0289246Y0174489D02*
X0258289Y0174489D01*
X0258289Y0176088D02*
X0289246Y0176088D01*
X0289246Y0177686D02*
X0258289Y0177686D01*
X0258289Y0179285D02*
X0289246Y0179285D01*
X0289246Y0180883D02*
X0258289Y0180883D01*
X0258289Y0182482D02*
X0289246Y0182482D01*
X0289246Y0184080D02*
X0258289Y0184080D01*
X0258289Y0185679D02*
X0258449Y0185679D01*
X0263393Y0185679D02*
X0289246Y0185679D01*
X0289246Y0187277D02*
X0264494Y0187277D01*
X0264721Y0188876D02*
X0287998Y0188876D01*
X0286400Y0190474D02*
X0264250Y0190474D01*
X0262421Y0192073D02*
X0284801Y0192073D01*
X0283203Y0193671D02*
X0248447Y0193671D01*
X0248447Y0193401D02*
X0248447Y0196406D01*
X0248324Y0196864D01*
X0248087Y0197274D01*
X0247752Y0197609D01*
X0247341Y0197846D01*
X0246884Y0197969D01*
X0244862Y0197969D01*
X0244862Y0193401D01*
X0248447Y0193401D01*
X0248447Y0192073D02*
X0259421Y0192073D01*
X0248447Y0195270D02*
X0281604Y0195270D01*
X0280006Y0196868D02*
X0248321Y0196868D01*
X0244862Y0196868D02*
X0244494Y0196868D01*
X0244494Y0195270D02*
X0244862Y0195270D01*
X0244862Y0193671D02*
X0244494Y0193671D01*
X0239036Y0188464D02*
X0240915Y0186584D01*
X0240910Y0186564D01*
X0240910Y0184542D01*
X0244494Y0184542D01*
X0244494Y0184174D01*
X0240910Y0184174D01*
X0240910Y0182756D01*
X0225683Y0182756D01*
X0225971Y0183450D01*
X0225971Y0184962D01*
X0225392Y0186359D01*
X0224324Y0187427D01*
X0222927Y0188006D01*
X0221415Y0188006D01*
X0220018Y0187427D01*
X0218950Y0186359D01*
X0218752Y0185881D01*
X0213808Y0185881D01*
X0214096Y0186575D01*
X0214096Y0187878D01*
X0214681Y0188464D01*
X0217865Y0188464D01*
X0218103Y0188702D01*
X0218342Y0188464D01*
X0223770Y0188464D01*
X0224041Y0188735D01*
X0224298Y0188586D01*
X0224756Y0188464D01*
X0226777Y0188464D01*
X0226777Y0193032D01*
X0227146Y0193032D01*
X0227146Y0188464D01*
X0229167Y0188464D01*
X0229625Y0188586D01*
X0229882Y0188735D01*
X0230153Y0188464D01*
X0235581Y0188464D01*
X0235820Y0188702D01*
X0236058Y0188464D01*
X0239036Y0188464D01*
X0240222Y0187277D02*
X0224474Y0187277D01*
X0225674Y0185679D02*
X0240910Y0185679D01*
X0240910Y0184080D02*
X0225971Y0184080D01*
X0226777Y0188876D02*
X0227146Y0188876D01*
X0227146Y0190474D02*
X0226777Y0190474D01*
X0226777Y0192073D02*
X0227146Y0192073D01*
X0227146Y0193671D02*
X0226777Y0193671D01*
X0226777Y0195270D02*
X0227146Y0195270D01*
X0227146Y0196868D02*
X0226777Y0196868D01*
X0229873Y0198467D02*
X0219913Y0198467D01*
X0218314Y0200065D02*
X0229621Y0200065D01*
X0230067Y0201664D02*
X0205971Y0201664D01*
X0205639Y0203262D02*
X0231775Y0203262D01*
X0235067Y0203262D02*
X0273612Y0203262D01*
X0275210Y0201664D02*
X0236775Y0201664D01*
X0237221Y0200065D02*
X0276809Y0200065D01*
X0278407Y0198467D02*
X0236969Y0198467D01*
X0248447Y0186281D02*
X0248784Y0186281D01*
X0248784Y0184071D01*
X0248447Y0183734D01*
X0248447Y0184174D01*
X0244862Y0184174D01*
X0244862Y0184542D01*
X0248447Y0184542D01*
X0248447Y0186281D01*
X0248447Y0185679D02*
X0248784Y0185679D01*
X0248784Y0184080D02*
X0248447Y0184080D01*
X0258289Y0168095D02*
X0289246Y0168095D01*
X0289246Y0166497D02*
X0258289Y0166497D01*
X0258289Y0164898D02*
X0289246Y0164898D01*
X0289246Y0163300D02*
X0258289Y0163300D01*
X0258289Y0161701D02*
X0289246Y0161701D01*
X0289246Y0160103D02*
X0258289Y0160103D01*
X0259876Y0158504D02*
X0289246Y0158504D01*
X0289246Y0156906D02*
X0261474Y0156906D01*
X0263073Y0155307D02*
X0289246Y0155307D01*
X0289246Y0153709D02*
X0264671Y0153709D01*
X0266270Y0152110D02*
X0289246Y0152110D01*
X0289246Y0150512D02*
X0267868Y0150512D01*
X0269467Y0148913D02*
X0289246Y0148913D01*
X0289246Y0147315D02*
X0271065Y0147315D01*
X0272664Y0145716D02*
X0289246Y0145716D01*
X0289246Y0144118D02*
X0274262Y0144118D01*
X0275861Y0142519D02*
X0289246Y0142519D01*
X0289246Y0140921D02*
X0277459Y0140921D01*
X0279058Y0139322D02*
X0289246Y0139322D01*
X0289246Y0137724D02*
X0280656Y0137724D01*
X0282255Y0136125D02*
X0289246Y0136125D01*
X0289246Y0134526D02*
X0283853Y0134526D01*
X0285452Y0132928D02*
X0289246Y0132928D01*
X0289246Y0131329D02*
X0286346Y0131329D01*
X0286346Y0129731D02*
X0289246Y0129731D01*
X0289246Y0128132D02*
X0286346Y0128132D01*
X0286346Y0126534D02*
X0289246Y0126534D01*
X0289246Y0124935D02*
X0286346Y0124935D01*
X0251370Y0115344D02*
X0251346Y0115344D01*
X0241884Y0132928D02*
X0241567Y0132928D01*
X0241012Y0134526D02*
X0231596Y0134526D01*
X0231114Y0136125D02*
X0240910Y0136125D01*
X0240910Y0137724D02*
X0229234Y0137724D01*
X0226358Y0137724D02*
X0223221Y0137724D01*
X0223221Y0139322D02*
X0240910Y0139322D01*
X0235978Y0132928D02*
X0235662Y0132928D01*
X0224167Y0132928D02*
X0223851Y0132928D01*
X0223996Y0134526D02*
X0223221Y0134526D01*
X0223221Y0136125D02*
X0224478Y0136125D01*
X0212996Y0136125D02*
X0207106Y0136125D01*
X0207106Y0134526D02*
X0212996Y0134526D01*
X0212996Y0133008D02*
X0212436Y0133008D01*
X0212165Y0132737D01*
X0211908Y0132886D01*
X0211450Y0133008D01*
X0209429Y0133008D01*
X0209429Y0128440D01*
X0209061Y0128440D01*
X0209061Y0133008D01*
X0207106Y0133008D01*
X0207106Y0168156D01*
X0211784Y0168156D01*
X0211496Y0167462D01*
X0211496Y0165950D01*
X0212075Y0164553D01*
X0212996Y0163632D01*
X0212996Y0133008D01*
X0212356Y0132928D02*
X0211751Y0132928D01*
X0209429Y0132928D02*
X0209061Y0132928D01*
X0209061Y0131329D02*
X0209429Y0131329D01*
X0209429Y0129731D02*
X0209061Y0129731D01*
X0209061Y0126534D02*
X0209429Y0126534D01*
X0209429Y0124935D02*
X0209061Y0124935D01*
X0207106Y0137724D02*
X0212996Y0137724D01*
X0212996Y0139322D02*
X0207106Y0139322D01*
X0207106Y0140921D02*
X0212996Y0140921D01*
X0212996Y0142519D02*
X0207106Y0142519D01*
X0207106Y0144118D02*
X0212996Y0144118D01*
X0212996Y0145716D02*
X0207106Y0145716D01*
X0207106Y0147315D02*
X0212996Y0147315D01*
X0212996Y0148913D02*
X0207106Y0148913D01*
X0207106Y0150512D02*
X0212996Y0150512D01*
X0212996Y0152110D02*
X0207106Y0152110D01*
X0207106Y0153709D02*
X0212996Y0153709D01*
X0212996Y0155307D02*
X0207106Y0155307D01*
X0207106Y0156906D02*
X0212996Y0156906D01*
X0212996Y0158504D02*
X0207106Y0158504D01*
X0207106Y0160103D02*
X0212996Y0160103D01*
X0212996Y0161701D02*
X0207106Y0161701D01*
X0207106Y0163300D02*
X0212996Y0163300D01*
X0211932Y0164898D02*
X0207106Y0164898D01*
X0207106Y0166497D02*
X0211496Y0166497D01*
X0211758Y0168095D02*
X0207106Y0168095D01*
X0214096Y0187277D02*
X0219868Y0187277D01*
X0209061Y0193032D02*
X0205477Y0193032D01*
X0203524Y0193032D01*
X0203524Y0193401D01*
X0209061Y0193401D01*
X0209061Y0193032D01*
X0203155Y0193032D02*
X0199571Y0193032D01*
X0197618Y0193032D01*
X0197618Y0193401D01*
X0203155Y0193401D01*
X0203155Y0193032D01*
X0197250Y0193032D02*
X0193665Y0193032D01*
X0191713Y0193032D01*
X0191713Y0193401D01*
X0197250Y0193401D01*
X0197250Y0193032D01*
X0191344Y0193032D02*
X0187760Y0193032D01*
X0187760Y0192131D01*
X0157468Y0192131D01*
X0156121Y0190784D01*
X0153968Y0188631D01*
X0152665Y0188631D01*
X0151268Y0188052D01*
X0150200Y0186984D01*
X0149621Y0185587D01*
X0149621Y0184075D01*
X0150200Y0182678D01*
X0151268Y0181610D01*
X0151291Y0181600D01*
X0150871Y0180587D01*
X0150871Y0179075D01*
X0151417Y0177756D01*
X0139721Y0177756D01*
X0139721Y0178712D01*
X0139142Y0180109D01*
X0138074Y0181177D01*
X0136677Y0181756D01*
X0135165Y0181756D01*
X0133768Y0181177D01*
X0132700Y0180109D01*
X0132121Y0178712D01*
X0132121Y0177200D01*
X0132667Y0175881D01*
X0113124Y0175881D01*
X0093736Y0195269D01*
X0093736Y0198242D01*
X0093627Y0198351D01*
X0093736Y0198759D01*
X0093736Y0200096D01*
X0093736Y0201433D01*
X0093627Y0201841D01*
X0093736Y0201950D01*
X0093736Y0205642D01*
X0093097Y0206281D01*
X0126518Y0206281D01*
X0126268Y0206177D01*
X0125200Y0205109D01*
X0124621Y0203712D01*
X0124621Y0202200D01*
X0125200Y0200803D01*
X0126268Y0199735D01*
X0127665Y0199156D01*
X0129177Y0199156D01*
X0130574Y0199735D01*
X0131495Y0200656D01*
X0188034Y0200656D01*
X0187746Y0199962D01*
X0187746Y0198450D01*
X0188200Y0197355D01*
X0188120Y0197274D01*
X0187883Y0196864D01*
X0187760Y0196406D01*
X0187760Y0193401D01*
X0191344Y0193401D01*
X0191344Y0193032D01*
X0187760Y0193671D02*
X0095333Y0193671D01*
X0093736Y0195270D02*
X0187760Y0195270D01*
X0187885Y0196868D02*
X0093736Y0196868D01*
X0093658Y0198467D02*
X0187746Y0198467D01*
X0187789Y0200065D02*
X0130904Y0200065D01*
X0125938Y0200065D02*
X0093736Y0200065D01*
X0093736Y0200096D02*
X0089436Y0200096D01*
X0093736Y0200096D01*
X0093674Y0201664D02*
X0124843Y0201664D01*
X0124621Y0203262D02*
X0093736Y0203262D01*
X0093736Y0204861D02*
X0125097Y0204861D01*
X0104924Y0184080D02*
X0149621Y0184080D01*
X0149659Y0185679D02*
X0103326Y0185679D01*
X0101727Y0187277D02*
X0150493Y0187277D01*
X0154213Y0188876D02*
X0100129Y0188876D01*
X0098530Y0190474D02*
X0155812Y0190474D01*
X0157410Y0192073D02*
X0096932Y0192073D01*
X0093623Y0188876D02*
X0081666Y0188876D01*
X0081705Y0189752D02*
X0080974Y0189752D01*
X0081705Y0189752D01*
X0081719Y0190474D02*
X0092025Y0190474D01*
X0090426Y0192073D02*
X0081984Y0192073D01*
X0082657Y0193671D02*
X0086015Y0193671D01*
X0085136Y0195270D02*
X0083536Y0195270D01*
X0083536Y0196868D02*
X0083756Y0196868D01*
X0089436Y0200096D02*
X0089436Y0200096D01*
X0080974Y0189752D02*
X0080974Y0189752D01*
X0079216Y0189406D02*
X0079216Y0187460D01*
X0079216Y0189406D01*
X0079216Y0189406D01*
X0079216Y0188876D02*
X0079216Y0188876D01*
X0076766Y0188876D02*
X0055096Y0188876D01*
X0055096Y0190474D02*
X0076727Y0190474D01*
X0076727Y0192073D02*
X0055062Y0192073D01*
X0054748Y0193671D02*
X0075815Y0193671D01*
X0074936Y0195270D02*
X0043312Y0195270D01*
X0043018Y0196868D02*
X0044381Y0196868D01*
X0042782Y0198467D02*
X0039855Y0198467D01*
X0040019Y0200065D02*
X0036427Y0200065D01*
X0036591Y0201664D02*
X0032999Y0201664D01*
X0032298Y0201664D02*
X0028608Y0201664D01*
X0030133Y0200065D02*
X0030716Y0200065D01*
X0042121Y0188403D02*
X0042121Y0187825D01*
X0042700Y0186428D01*
X0043049Y0186079D01*
X0039390Y0186079D01*
X0038335Y0185024D01*
X0038335Y0181368D01*
X0038462Y0181241D01*
X0038458Y0181233D01*
X0038335Y0180776D01*
X0038335Y0179456D01*
X0038335Y0178381D01*
X0026249Y0178381D01*
X0019071Y0185559D01*
X0019071Y0187531D01*
X0041249Y0187531D01*
X0042121Y0188403D01*
X0042348Y0187277D02*
X0019071Y0187277D01*
X0019071Y0185679D02*
X0038990Y0185679D01*
X0038335Y0184080D02*
X0020549Y0184080D01*
X0022148Y0182482D02*
X0038335Y0182482D01*
X0038364Y0180883D02*
X0023746Y0180883D01*
X0025345Y0179285D02*
X0038335Y0179285D01*
X0038335Y0179456D02*
X0042497Y0179456D01*
X0042497Y0179456D01*
X0038335Y0179456D01*
X0036808Y0169694D02*
X0026802Y0169694D01*
X0026802Y0168095D02*
X0036808Y0168095D01*
X0036808Y0166497D02*
X0026802Y0166497D01*
X0026802Y0164898D02*
X0036808Y0164898D01*
X0036911Y0163300D02*
X0026802Y0163300D01*
X0026802Y0161701D02*
X0036808Y0161701D01*
X0036808Y0160103D02*
X0026603Y0160103D01*
X0026802Y0158504D02*
X0036808Y0158504D01*
X0037500Y0156906D02*
X0026802Y0156906D01*
X0026802Y0155307D02*
X0038144Y0155307D01*
X0036546Y0153709D02*
X0026802Y0153709D01*
X0026802Y0152110D02*
X0034947Y0152110D01*
X0033349Y0150512D02*
X0026802Y0150512D01*
X0026802Y0144118D02*
X0089006Y0144118D01*
X0089006Y0145716D02*
X0035059Y0145716D01*
X0036657Y0147315D02*
X0089006Y0147315D01*
X0089006Y0148913D02*
X0038256Y0148913D01*
X0039854Y0150512D02*
X0089006Y0150512D01*
X0089006Y0152110D02*
X0041453Y0152110D01*
X0043051Y0153709D02*
X0089006Y0153709D01*
X0089006Y0155307D02*
X0044650Y0155307D01*
X0046248Y0156906D02*
X0089006Y0156906D01*
X0089006Y0158504D02*
X0047847Y0158504D01*
X0049445Y0160103D02*
X0089006Y0160103D01*
X0089006Y0161701D02*
X0051044Y0161701D01*
X0051346Y0163300D02*
X0089006Y0163300D01*
X0089006Y0164898D02*
X0055128Y0164898D01*
X0055382Y0166497D02*
X0089006Y0166497D01*
X0089006Y0168095D02*
X0055382Y0168095D01*
X0055365Y0169694D02*
X0089006Y0169694D01*
X0101616Y0180883D02*
X0071875Y0180883D01*
X0071888Y0180931D02*
X0071888Y0182952D01*
X0068107Y0182952D01*
X0068107Y0179367D01*
X0070325Y0179367D01*
X0070783Y0179490D01*
X0071193Y0179727D01*
X0071528Y0180062D01*
X0071765Y0180473D01*
X0071888Y0180931D01*
X0071888Y0182482D02*
X0100017Y0182482D01*
X0098419Y0184080D02*
X0071888Y0184080D01*
X0071797Y0185679D02*
X0096820Y0185679D01*
X0095222Y0187277D02*
X0055096Y0187277D01*
X0056242Y0185679D02*
X0057264Y0185679D01*
X0051346Y0179285D02*
X0103215Y0179285D01*
X0104813Y0177686D02*
X0056755Y0177686D01*
X0056897Y0176088D02*
X0106412Y0176088D01*
X0108010Y0174489D02*
X0056897Y0174489D01*
X0055900Y0172891D02*
X0109609Y0172891D01*
X0111207Y0171292D02*
X0055096Y0171292D01*
X0052736Y0165980D02*
X0052736Y0164021D01*
X0052736Y0165980D01*
X0052736Y0165980D01*
X0052736Y0164898D02*
X0052736Y0164898D01*
X0067738Y0180883D02*
X0068107Y0180883D01*
X0068107Y0182482D02*
X0067738Y0182482D01*
X0067738Y0184080D02*
X0068107Y0184080D01*
X0068107Y0185679D02*
X0067738Y0185679D01*
X0071232Y0201664D02*
X0046294Y0201664D01*
X0047039Y0203262D02*
X0074936Y0203262D01*
X0073696Y0203132D02*
X0073696Y0201182D01*
X0073696Y0201182D01*
X0073696Y0203132D01*
X0073696Y0201664D02*
X0073696Y0201664D01*
X0074936Y0204861D02*
X0047515Y0204861D01*
X0046004Y0206459D02*
X0075754Y0206459D01*
X0076727Y0208058D02*
X0049275Y0208058D01*
X0050021Y0209657D02*
X0076727Y0209657D01*
X0076727Y0210520D02*
X0077458Y0210520D01*
X0077458Y0210520D01*
X0076727Y0210520D01*
X0076729Y0211255D02*
X0050766Y0211255D01*
X0051512Y0212854D02*
X0210691Y0212854D01*
X0212289Y0214452D02*
X0051431Y0214452D01*
X0048765Y0216051D02*
X0213888Y0216051D01*
X0215486Y0217649D02*
X0049648Y0217649D01*
X0049721Y0219248D02*
X0217085Y0219248D01*
X0218683Y0220846D02*
X0049030Y0220846D01*
X0052202Y0227240D02*
X0052678Y0227240D01*
X0053800Y0228839D02*
X0054277Y0228839D01*
X0055399Y0230437D02*
X0055875Y0230437D01*
X0056997Y0232036D02*
X0057474Y0232036D01*
X0061739Y0225642D02*
X0213378Y0225642D01*
X0214976Y0224043D02*
X0060140Y0224043D01*
X0058542Y0222445D02*
X0220282Y0222445D01*
X0221558Y0224043D02*
X0221880Y0224043D01*
X0222202Y0225642D02*
X0223479Y0225642D01*
X0222105Y0227240D02*
X0225077Y0227240D01*
X0223282Y0228839D02*
X0221183Y0228839D01*
X0221377Y0230437D02*
X0215088Y0230437D01*
X0213489Y0232036D02*
X0219472Y0232036D01*
X0217567Y0233634D02*
X0211890Y0233634D01*
X0210292Y0235233D02*
X0215662Y0235233D01*
X0213757Y0236831D02*
X0208716Y0236831D01*
X0208716Y0238430D02*
X0211852Y0238430D01*
X0209947Y0240028D02*
X0209441Y0240028D01*
X0206133Y0243225D02*
X0089409Y0243225D01*
X0091008Y0241627D02*
X0204534Y0241627D01*
X0204116Y0240028D02*
X0091137Y0240028D01*
X0089560Y0238430D02*
X0204116Y0238430D01*
X0204116Y0236831D02*
X0087961Y0236831D01*
X0086363Y0235233D02*
X0204116Y0235233D01*
X0205385Y0233634D02*
X0084764Y0233634D01*
X0083166Y0232036D02*
X0206984Y0232036D01*
X0208582Y0230437D02*
X0081567Y0230437D01*
X0087811Y0244824D02*
X0206847Y0244824D01*
X0208188Y0246422D02*
X0086212Y0246422D01*
X0079216Y0212812D02*
X0079216Y0210881D01*
X0079216Y0212812D01*
X0079216Y0211255D02*
X0079216Y0211255D01*
X0079216Y0210881D02*
X0079216Y0210881D01*
X0081703Y0211255D02*
X0209092Y0211255D01*
X0212401Y0208058D02*
X0268816Y0208058D01*
X0267218Y0209657D02*
X0213999Y0209657D01*
X0215598Y0211255D02*
X0265619Y0211255D01*
X0264021Y0212854D02*
X0217196Y0212854D01*
X0218795Y0214452D02*
X0262422Y0214452D01*
X0260824Y0216051D02*
X0220393Y0216051D01*
X0221992Y0217649D02*
X0259225Y0217649D01*
X0257627Y0219248D02*
X0223590Y0219248D01*
X0225189Y0220846D02*
X0256028Y0220846D01*
X0254430Y0222445D02*
X0226787Y0222445D01*
X0228386Y0224043D02*
X0252831Y0224043D01*
X0251233Y0225642D02*
X0229984Y0225642D01*
X0231583Y0227240D02*
X0249634Y0227240D01*
X0248036Y0228839D02*
X0233181Y0228839D01*
X0234780Y0230437D02*
X0246437Y0230437D01*
X0244839Y0232036D02*
X0236378Y0232036D01*
X0237977Y0233634D02*
X0243240Y0233634D01*
X0241642Y0235233D02*
X0239575Y0235233D01*
X0210802Y0206459D02*
X0270415Y0206459D01*
X0272013Y0204861D02*
X0204390Y0204861D01*
X0150396Y0182482D02*
X0106523Y0182482D01*
X0108121Y0180883D02*
X0133474Y0180883D01*
X0132358Y0179285D02*
X0109720Y0179285D01*
X0111318Y0177686D02*
X0132121Y0177686D01*
X0132582Y0176088D02*
X0112917Y0176088D01*
X0138368Y0180883D02*
X0150994Y0180883D01*
X0150871Y0179285D02*
X0139484Y0179285D01*
X0089006Y0142519D02*
X0026802Y0142519D01*
X0026802Y0140921D02*
X0089006Y0140921D01*
X0089006Y0139322D02*
X0026802Y0139322D01*
X0026802Y0137724D02*
X0089006Y0137724D01*
X0089006Y0136125D02*
X0026802Y0136125D01*
X0006076Y0163300D02*
X0004714Y0163300D01*
X0004834Y0164898D02*
X0006076Y0164898D01*
X0006076Y0166497D02*
X0004955Y0166497D01*
X0005075Y0168095D02*
X0006076Y0168095D01*
X0006076Y0169694D02*
X0005214Y0169694D01*
X0005462Y0171292D02*
X0006076Y0171292D01*
X0042576Y0208058D02*
X0046169Y0208058D01*
X0042741Y0209657D02*
X0039148Y0209657D01*
X0039312Y0211255D02*
X0037828Y0211255D01*
X0037220Y0212854D02*
X0037022Y0212854D01*
X0037425Y0214452D02*
X0017841Y0214452D01*
X0040179Y0227240D02*
X0042371Y0227240D01*
X0042371Y0225642D02*
X0041778Y0225642D01*
X0125884Y0297575D02*
X0177215Y0297575D01*
X0165405Y0299173D02*
X0137774Y0299173D01*
D30*
X0206416Y0240256D02*
X0206416Y0235856D01*
X0216018Y0226254D01*
X0218421Y0226254D01*
X0206416Y0240256D02*
X0212485Y0246325D01*
X0212485Y0246416D01*
X0216316Y0243996D02*
X0216316Y0243202D01*
X0216316Y0243996D02*
X0220096Y0247776D01*
X0220096Y0249136D01*
X0211056Y0258176D01*
X0218896Y0254816D02*
X0218896Y0253296D01*
X0235281Y0236911D01*
X0238001Y0236911D01*
X0209671Y0208581D01*
X0079671Y0208581D01*
X0079216Y0208552D01*
X0079671Y0208581D02*
X0079671Y0204206D01*
X0079236Y0203796D01*
X0076546Y0199206D02*
X0082796Y0199206D01*
X0086546Y0202956D01*
X0088421Y0202956D01*
X0089046Y0203581D01*
X0089436Y0203796D01*
X0084671Y0199206D02*
X0087171Y0196706D01*
X0089046Y0196706D01*
X0089436Y0196396D01*
X0089671Y0196081D01*
X0112171Y0173581D01*
X0150296Y0173581D01*
X0152171Y0171706D01*
X0175296Y0171706D01*
X0187796Y0175456D02*
X0192796Y0170456D01*
X0248421Y0170456D01*
X0252171Y0166706D01*
X0253421Y0166706D01*
X0253536Y0166642D01*
X0253536Y0172547D02*
X0253421Y0172956D01*
X0195296Y0172956D01*
X0194046Y0174206D01*
X0191546Y0178581D02*
X0253421Y0178581D01*
X0253536Y0178453D01*
X0248421Y0180456D02*
X0252171Y0184206D01*
X0253421Y0184206D01*
X0253536Y0184358D01*
X0248421Y0180456D02*
X0209046Y0180456D01*
X0203421Y0186081D01*
X0159671Y0186081D01*
X0158421Y0189831D02*
X0187796Y0189831D01*
X0189671Y0187956D01*
X0204671Y0187956D01*
X0209046Y0183581D01*
X0221546Y0183581D01*
X0222171Y0184206D01*
X0221056Y0193216D02*
X0221546Y0193581D01*
X0217171Y0197956D01*
X0192796Y0197956D01*
X0191546Y0199206D01*
X0200921Y0202956D02*
X0202171Y0201706D01*
X0200921Y0202956D02*
X0128421Y0202956D01*
X0135921Y0177956D02*
X0138421Y0175456D01*
X0187796Y0175456D01*
X0201546Y0182331D02*
X0157171Y0182331D01*
X0154671Y0179831D01*
X0153421Y0184831D02*
X0158421Y0189831D01*
X0210296Y0187331D02*
X0214671Y0191706D01*
X0214671Y0192956D01*
X0215151Y0193216D01*
X0232867Y0193216D02*
X0233421Y0193581D01*
X0233421Y0199831D01*
X0238773Y0193216D02*
X0239046Y0192956D01*
X0239046Y0191706D01*
X0242171Y0188581D01*
X0260921Y0188581D01*
X0253536Y0160736D02*
X0254046Y0160456D01*
X0255921Y0158581D01*
X0256546Y0158581D01*
X0284046Y0131081D01*
X0284046Y0120456D01*
X0284076Y0120213D01*
X0291576Y0117776D02*
X0290951Y0114816D01*
X0289671Y0109206D01*
X0285296Y0104831D01*
X0285238Y0104777D01*
X0285178Y0104725D01*
X0285116Y0104675D01*
X0285052Y0104629D01*
X0284985Y0104586D01*
X0284917Y0104545D01*
X0284847Y0104508D01*
X0284775Y0104475D01*
X0284702Y0104444D01*
X0284627Y0104417D01*
X0284551Y0104394D01*
X0284475Y0104374D01*
X0284397Y0104357D01*
X0284319Y0104345D01*
X0284240Y0104335D01*
X0284161Y0104330D01*
X0284081Y0104328D01*
X0284002Y0104330D01*
X0283923Y0104335D01*
X0283844Y0104344D01*
X0283766Y0104357D01*
X0283688Y0104373D01*
X0283611Y0104393D01*
X0283536Y0104416D01*
X0277171Y0101706D02*
X0277236Y0101419D01*
X0277171Y0101706D02*
X0242171Y0101706D01*
X0242171Y0112956D01*
X0243421Y0114206D01*
X0244671Y0114206D01*
X0244736Y0114140D01*
X0244671Y0114206D02*
X0244671Y0127956D01*
X0244678Y0128256D01*
X0239046Y0127956D02*
X0238773Y0128256D01*
X0239046Y0127956D02*
X0239046Y0114831D01*
X0238656Y0114300D01*
X0239046Y0112331D02*
X0238656Y0112292D01*
X0239046Y0112331D02*
X0238966Y0058241D01*
X0226066Y0033976D02*
X0226546Y0127956D01*
X0226962Y0128256D01*
X0232867Y0128256D02*
X0233421Y0128581D01*
X0227796Y0134206D01*
X0220921Y0128581D02*
X0221056Y0128256D01*
X0220921Y0128581D02*
X0220921Y0166706D01*
X0215296Y0166706D02*
X0215296Y0128581D01*
X0215151Y0128256D01*
X0244736Y0112132D02*
X0245296Y0111706D01*
X0249046Y0111706D01*
X0249046Y0142956D01*
X0253421Y0142956D01*
X0253536Y0143020D01*
X0253536Y0148925D02*
X0253421Y0149206D01*
X0247171Y0149206D01*
X0247171Y0159206D01*
X0253536Y0154831D02*
X0254046Y0154206D01*
X0255921Y0152331D01*
X0257171Y0152331D01*
X0257796Y0151706D01*
X0257796Y0114206D01*
X0254046Y0114206D01*
X0254016Y0114060D01*
X0254016Y0112052D02*
X0254046Y0111706D01*
X0258421Y0107331D01*
X0275181Y0107331D01*
X0275296Y0107216D01*
X0280296Y0111081D02*
X0277171Y0114206D01*
X0257796Y0114206D01*
X0254016Y0112052D02*
X0253421Y0111706D01*
X0249046Y0111706D01*
X0280296Y0111081D02*
X0280656Y0110816D01*
X0291546Y0116706D02*
X0291546Y0188581D01*
X0240609Y0239519D01*
X0238001Y0236911D01*
X0218896Y0254816D02*
X0222861Y0258781D01*
X0275296Y0107216D02*
X0283536Y0104416D01*
X0291546Y0116706D02*
X0291576Y0117776D01*
X0084671Y0199206D02*
X0082796Y0199206D01*
X0079671Y0196081D02*
X0079236Y0196396D01*
X0079671Y0196081D02*
X0079671Y0191706D01*
X0079216Y0191720D01*
X0075921Y0198581D02*
X0074046Y0198581D01*
X0073696Y0198872D01*
X0073421Y0198581D01*
X0045921Y0198581D01*
X0040296Y0204206D01*
X0040228Y0204560D01*
X0039671Y0204831D01*
X0034046Y0210456D01*
X0044388Y0213481D02*
X0044671Y0213581D01*
X0044671Y0218581D01*
X0045921Y0218581D01*
X0044671Y0218581D02*
X0044671Y0235456D01*
X0055296Y0235456D01*
X0055652Y0236020D01*
X0076546Y0199206D02*
X0075921Y0198581D01*
X0061230Y0183136D02*
X0060921Y0182956D01*
X0052796Y0182956D01*
X0052735Y0183196D01*
X0052171Y0182956D01*
X0049046Y0182956D01*
X0049046Y0162956D01*
X0034046Y0147956D01*
X0022796Y0147956D01*
X0022246Y0147858D01*
X0022246Y0158094D02*
X0022796Y0158581D01*
X0023421Y0159206D01*
X0039046Y0159206D01*
X0040296Y0160456D01*
X0040576Y0160510D01*
X0040576Y0167202D02*
X0040921Y0167331D01*
X0046546Y0172956D01*
X0046546Y0182956D01*
X0045921Y0182956D01*
X0045921Y0188581D01*
X0042796Y0192331D02*
X0040296Y0189831D01*
X0017171Y0189831D01*
X0015921Y0191081D01*
X0015696Y0191369D01*
X0015696Y0185463D02*
X0015921Y0185456D01*
X0025296Y0176081D01*
X0042171Y0176081D01*
X0042498Y0175716D01*
X0042796Y0182956D02*
X0042498Y0183196D01*
X0042796Y0182956D02*
X0045921Y0182956D01*
X0052735Y0183196D02*
X0052796Y0183581D01*
X0052796Y0189831D01*
X0052416Y0190052D01*
X0052416Y0192060D02*
X0052171Y0192331D01*
X0042796Y0192331D01*
X0052735Y0175716D02*
X0052796Y0175456D01*
X0052796Y0168581D01*
X0052736Y0168380D01*
D31*
X0031456Y0166576D03*
X0031296Y0182976D03*
X0020656Y0117536D03*
X0054176Y0056096D03*
X0112656Y0202896D03*
X0128496Y0221136D03*
X0204896Y0214976D03*
X0210336Y0203616D03*
X0218421Y0226254D03*
X0218416Y0226256D03*
X0211056Y0258176D03*
X0233536Y0149296D03*
X0210096Y0137696D03*
X0253376Y0120816D03*
X0254896Y0068336D03*
D32*
X0238966Y0058241D03*
X0226066Y0033976D03*
X0227796Y0134206D03*
X0247171Y0159206D03*
X0222171Y0184206D03*
X0210296Y0187331D03*
X0201546Y0182331D03*
X0191546Y0178581D03*
X0194046Y0174206D03*
X0175296Y0171706D03*
X0159671Y0186081D03*
X0153421Y0184831D03*
X0154671Y0179831D03*
X0152171Y0171706D03*
X0135921Y0177956D03*
X0128421Y0202956D03*
X0191546Y0199206D03*
X0202171Y0201706D03*
X0233421Y0199831D03*
X0260921Y0188581D03*
X0220921Y0166706D03*
X0215296Y0166706D03*
X0045921Y0188581D03*
X0034046Y0210456D03*
X0045921Y0218581D03*
M02*
