G75*
%MOIN*%
%OFA0B0*%
%FSLAX25Y25*%
%IPPOS*%
%LPD*%
%AMOC8*
5,1,8,0,0,1.08239X$1,22.5*
%
%ADD10R,0.01969X0.02362*%
%ADD11R,0.02362X0.01969*%
%ADD12R,0.03346X0.02559*%
%ADD13R,0.01693X0.01102*%
%ADD14R,0.01102X0.01693*%
%ADD15R,0.02362X0.05906*%
D10*
G36*
X0035658Y0067825D02*
X0034674Y0069528D01*
X0036718Y0070709D01*
X0037702Y0069006D01*
X0035658Y0067825D01*
G37*
G36*
X0033886Y0070894D02*
X0032902Y0072597D01*
X0034946Y0073778D01*
X0035930Y0072075D01*
X0033886Y0070894D01*
G37*
G36*
X0104888Y0016610D02*
X0103106Y0017442D01*
X0104104Y0019582D01*
X0105886Y0018750D01*
X0104888Y0016610D01*
G37*
G36*
X0108099Y0015113D02*
X0106317Y0015945D01*
X0107315Y0018085D01*
X0109097Y0017253D01*
X0108099Y0015113D01*
G37*
G36*
X0205086Y0018802D02*
X0203304Y0017970D01*
X0202306Y0020110D01*
X0204088Y0020942D01*
X0205086Y0018802D01*
G37*
G36*
X0208297Y0020299D02*
X0206515Y0019467D01*
X0205517Y0021607D01*
X0207299Y0022439D01*
X0208297Y0020299D01*
G37*
G36*
X0268347Y0069264D02*
X0267219Y0067653D01*
X0265285Y0069008D01*
X0266413Y0070619D01*
X0268347Y0069264D01*
G37*
G36*
X0270379Y0072167D02*
X0269251Y0070556D01*
X0267317Y0071911D01*
X0268445Y0073522D01*
X0270379Y0072167D01*
G37*
G36*
X0267245Y0232270D02*
X0266117Y0233881D01*
X0268051Y0235236D01*
X0269179Y0233625D01*
X0267245Y0232270D01*
G37*
G36*
X0265213Y0235173D02*
X0264085Y0236784D01*
X0266019Y0238139D01*
X0267147Y0236528D01*
X0265213Y0235173D01*
G37*
G36*
X0201379Y0283353D02*
X0199597Y0284185D01*
X0200595Y0286325D01*
X0202377Y0285493D01*
X0201379Y0283353D01*
G37*
G36*
X0198168Y0284850D02*
X0196386Y0285682D01*
X0197384Y0287822D01*
X0199166Y0286990D01*
X0198168Y0284850D01*
G37*
G36*
X0106194Y0284855D02*
X0104346Y0284182D01*
X0103538Y0286401D01*
X0105386Y0287074D01*
X0106194Y0284855D01*
G37*
G36*
X0102864Y0283643D02*
X0101016Y0282970D01*
X0100208Y0285189D01*
X0102056Y0285862D01*
X0102864Y0283643D01*
G37*
G36*
X0041571Y0238142D02*
X0040180Y0236751D01*
X0038511Y0238420D01*
X0039902Y0239811D01*
X0041571Y0238142D01*
G37*
G36*
X0039066Y0235637D02*
X0037675Y0234246D01*
X0036006Y0235915D01*
X0037397Y0237306D01*
X0039066Y0235637D01*
G37*
D11*
X0009936Y0156096D03*
X0009936Y0152553D03*
X0293696Y0152256D03*
X0293696Y0155799D03*
D12*
X0170445Y0172656D03*
X0170445Y0176002D03*
X0164736Y0176002D03*
X0164736Y0172656D03*
X0147085Y0172656D03*
X0147085Y0176002D03*
X0141376Y0176002D03*
X0141376Y0172656D03*
D13*
X0135616Y0172372D03*
X0135616Y0174380D03*
X0141376Y0182292D03*
X0141376Y0184300D03*
X0159136Y0174300D03*
X0159136Y0172292D03*
X0164736Y0182612D03*
X0164736Y0184620D03*
D14*
X0154220Y0176016D03*
X0152212Y0176016D03*
X0176292Y0176016D03*
X0178300Y0176016D03*
D15*
X0226096Y0050096D03*
X0238694Y0050096D03*
M02*
