G75*
%MOIN*%
%OFA0B0*%
%FSLAX25Y25*%
%IPPOS*%
%LPD*%
%AMOC8*
5,1,8,0,0,1.08239X$1,22.5*
%
%ADD10C,0.06800*%
%ADD11R,0.04737X0.06706*%
%ADD12R,0.06706X0.04737*%
%ADD13R,0.04737X0.04737*%
%ADD14R,0.02493X0.01902*%
%ADD15R,0.05800X0.03000*%
%ADD16R,0.06312X0.02375*%
%ADD17R,0.08280X0.06509*%
%ADD18R,0.08280X0.07887*%
%ADD19R,0.07099X0.09068*%
%ADD20R,0.05524X0.02965*%
%ADD21R,0.04737X0.18910*%
%ADD22R,0.14186X0.07099*%
%ADD23R,0.05131X0.04737*%
%ADD24R,0.04737X0.05131*%
%ADD25R,0.03950X0.03950*%
%ADD26R,0.02178X0.01784*%
%ADD27R,0.05524X0.10643*%
%ADD28C,0.04343*%
%ADD29R,0.03792X0.10249*%
%ADD30C,0.04762*%
%ADD31C,0.04800*%
D10*
X0274417Y0102445D02*
X0280055Y0100393D01*
X0283475Y0109790D02*
X0277837Y0111842D01*
X0281257Y0121239D02*
X0286895Y0119187D01*
D11*
X0244678Y0128256D03*
X0238773Y0128256D03*
X0232867Y0128256D03*
X0226962Y0128256D03*
X0221056Y0128256D03*
X0215151Y0128256D03*
X0209245Y0128256D03*
X0209245Y0193216D03*
X0203339Y0193216D03*
X0197434Y0193216D03*
X0191528Y0193216D03*
X0215151Y0193216D03*
X0221056Y0193216D03*
X0226962Y0193216D03*
X0232867Y0193216D03*
X0238773Y0193216D03*
X0244678Y0193216D03*
D12*
X0253536Y0184358D03*
X0253536Y0178453D03*
X0253536Y0172547D03*
X0253536Y0166642D03*
X0253536Y0160736D03*
X0253536Y0154831D03*
X0253536Y0148925D03*
X0253536Y0143020D03*
X0253536Y0137114D03*
D13*
X0244678Y0137114D03*
X0244678Y0184358D03*
D14*
X0244736Y0114140D03*
X0244736Y0112132D03*
X0238656Y0112292D03*
X0238656Y0114300D03*
X0254016Y0114060D03*
X0254016Y0112052D03*
X0052736Y0166372D03*
X0052736Y0168380D03*
X0052416Y0190052D03*
X0052416Y0192060D03*
D15*
X0079236Y0196396D03*
X0079236Y0203796D03*
X0089436Y0203796D03*
X0089436Y0200096D03*
X0089436Y0196396D03*
D16*
X0022246Y0158094D03*
X0022246Y0155535D03*
X0022246Y0152976D03*
X0022246Y0150417D03*
X0022246Y0147858D03*
D17*
X0011616Y0149433D03*
X0011616Y0156519D03*
D18*
X0011616Y0167543D03*
X0011616Y0138409D03*
D19*
X0021852Y0140771D03*
X0021852Y0165181D03*
D20*
X0042498Y0175716D03*
X0042498Y0179456D03*
X0042498Y0183196D03*
X0052735Y0183196D03*
X0052735Y0175716D03*
D21*
G36*
X0066231Y0238812D02*
X0069580Y0235463D01*
X0056209Y0222092D01*
X0052860Y0225441D01*
X0066231Y0238812D01*
G37*
G36*
X0060663Y0244380D02*
X0064012Y0241031D01*
X0050641Y0227660D01*
X0047292Y0231009D01*
X0060663Y0244380D01*
G37*
D22*
G36*
X0070972Y0259682D02*
X0060942Y0249652D01*
X0055922Y0254672D01*
X0065952Y0264702D01*
X0070972Y0259682D01*
G37*
G36*
X0089902Y0240752D02*
X0079872Y0230722D01*
X0074852Y0235742D01*
X0084882Y0245772D01*
X0089902Y0240752D01*
G37*
D23*
X0067922Y0183136D03*
X0061230Y0183136D03*
D24*
X0040576Y0167202D03*
X0040576Y0160510D03*
D25*
X0015696Y0185463D03*
X0015696Y0191369D03*
D26*
X0073696Y0198872D03*
X0073696Y0200840D03*
X0079216Y0208552D03*
X0079216Y0210520D03*
X0079216Y0191720D03*
X0079216Y0189752D03*
D27*
G36*
X0050377Y0213735D02*
X0048043Y0208730D01*
X0038399Y0213227D01*
X0040733Y0218232D01*
X0050377Y0213735D01*
G37*
G36*
X0046217Y0204814D02*
X0043883Y0199809D01*
X0034239Y0204306D01*
X0036573Y0209311D01*
X0046217Y0204814D01*
G37*
G36*
X0042058Y0195894D02*
X0039724Y0190889D01*
X0030080Y0195386D01*
X0032414Y0200391D01*
X0042058Y0195894D01*
G37*
D28*
X0024509Y0196469D03*
X0036323Y0221803D03*
D29*
G36*
X0210644Y0241273D02*
X0207739Y0243710D01*
X0214326Y0251559D01*
X0217231Y0249122D01*
X0210644Y0241273D01*
G37*
G36*
X0214475Y0238059D02*
X0211570Y0240496D01*
X0218157Y0248345D01*
X0221062Y0245908D01*
X0214475Y0238059D01*
G37*
G36*
X0218305Y0234845D02*
X0215400Y0237282D01*
X0221987Y0245131D01*
X0224892Y0242694D01*
X0218305Y0234845D01*
G37*
G36*
X0222135Y0231631D02*
X0219230Y0234068D01*
X0225817Y0241917D01*
X0228722Y0239480D01*
X0222135Y0231631D01*
G37*
G36*
X0225965Y0228417D02*
X0223060Y0230854D01*
X0229647Y0238703D01*
X0232552Y0236266D01*
X0225965Y0228417D01*
G37*
G36*
X0236341Y0240782D02*
X0233436Y0243219D01*
X0240023Y0251068D01*
X0242928Y0248631D01*
X0236341Y0240782D01*
G37*
G36*
X0232511Y0243996D02*
X0229606Y0246433D01*
X0236193Y0254282D01*
X0239098Y0251845D01*
X0232511Y0243996D01*
G37*
G36*
X0228680Y0247210D02*
X0225775Y0249647D01*
X0232362Y0257496D01*
X0235267Y0255059D01*
X0228680Y0247210D01*
G37*
G36*
X0224850Y0250424D02*
X0221945Y0252861D01*
X0228532Y0260710D01*
X0231437Y0258273D01*
X0224850Y0250424D01*
G37*
G36*
X0221020Y0253638D02*
X0218115Y0256075D01*
X0224702Y0263924D01*
X0227607Y0261487D01*
X0221020Y0253638D01*
G37*
D30*
X0054176Y0056096D03*
X0020656Y0117536D03*
X0031456Y0166576D03*
X0031296Y0182976D03*
X0112656Y0202896D03*
X0128496Y0221136D03*
X0204896Y0214976D03*
X0210336Y0203616D03*
X0218421Y0226254D03*
X0218416Y0226256D03*
X0211056Y0258176D03*
X0233536Y0149296D03*
X0210096Y0137696D03*
X0253376Y0120816D03*
X0254896Y0068336D03*
D31*
X0238966Y0058241D03*
X0226066Y0033976D03*
X0227796Y0134206D03*
X0247171Y0159206D03*
X0222171Y0184206D03*
X0210296Y0187331D03*
X0201546Y0182331D03*
X0191546Y0178581D03*
X0194046Y0174206D03*
X0175296Y0171706D03*
X0159671Y0186081D03*
X0153421Y0184831D03*
X0154671Y0179831D03*
X0152171Y0171706D03*
X0135921Y0177956D03*
X0128421Y0202956D03*
X0191546Y0199206D03*
X0202171Y0201706D03*
X0233421Y0199831D03*
X0260921Y0188581D03*
X0220921Y0166706D03*
X0215296Y0166706D03*
X0045921Y0188581D03*
X0034046Y0210456D03*
X0045921Y0218581D03*
M02*
