%
M48
M72
T01C0.02362
T02C0.02400
T03C0.03543
T04C0.04000
%
T01
X54176Y56096
X20656Y117536
X31456Y166576
X31296Y182976
X112656Y202896
X128496Y221136
X204896Y214976
X210336Y203616
X218421Y226254
X218416Y226256
X211056Y258176
X233536Y149296
X210096Y137696
X253376Y120816
X254896Y68336
T02
X238966Y58241
X226066Y33976
X227796Y134206
X247171Y159206
X222171Y184206
X210296Y187331
X201546Y182331
X191546Y178581
X194046Y174206
X175296Y171706
X159671Y186081
X153421Y184831
X154671Y179831
X152171Y171706
X135921Y177956
X128421Y202956
X191546Y199206
X202171Y201706
X233421Y199831
X260921Y188581
X220921Y166706
X215296Y166706
X45921Y218581
X34046Y210456
X45921Y188581
T03
X24509Y196469
X36323Y221803
T04
X284076Y120213
X280656Y110816
X277236Y101419
M30
