G75*
%MOIN*%
%OFA0B0*%
%FSLAX25Y25*%
%IPPOS*%
%LPD*%
%AMOC8*
5,1,8,0,0,1.08239X$1,22.5*
%
%ADD10R,0.03937X0.05906*%
%ADD11R,0.05906X0.03937*%
%ADD12R,0.03937X0.03937*%
%ADD13R,0.01693X0.01102*%
%ADD14R,0.05000X0.02200*%
%ADD15R,0.05512X0.01575*%
%ADD16R,0.07480X0.05709*%
%ADD17R,0.07480X0.07087*%
%ADD18R,0.06299X0.08268*%
%ADD19R,0.04724X0.02165*%
%ADD20R,0.03937X0.18110*%
%ADD21R,0.13386X0.06299*%
%ADD22R,0.04331X0.03937*%
%ADD23R,0.03937X0.04331*%
%ADD24R,0.03150X0.03150*%
%ADD25R,0.01378X0.00984*%
%ADD26R,0.04724X0.09843*%
%ADD27R,0.02992X0.09449*%
D10*
X0191528Y0193216D03*
X0197434Y0193216D03*
X0203339Y0193216D03*
X0209245Y0193216D03*
X0215151Y0193216D03*
X0221056Y0193216D03*
X0226962Y0193216D03*
X0232867Y0193216D03*
X0238773Y0193216D03*
X0244678Y0193216D03*
X0244678Y0128256D03*
X0238773Y0128256D03*
X0232867Y0128256D03*
X0226962Y0128256D03*
X0221056Y0128256D03*
X0215151Y0128256D03*
X0209245Y0128256D03*
D11*
X0253536Y0137114D03*
X0253536Y0143020D03*
X0253536Y0148925D03*
X0253536Y0154831D03*
X0253536Y0160736D03*
X0253536Y0166642D03*
X0253536Y0172547D03*
X0253536Y0178453D03*
X0253536Y0184358D03*
D12*
X0244678Y0184358D03*
X0244678Y0137114D03*
D13*
X0244736Y0114140D03*
X0244736Y0112132D03*
X0238656Y0112292D03*
X0238656Y0114300D03*
X0254016Y0114060D03*
X0254016Y0112052D03*
X0052736Y0166372D03*
X0052736Y0168380D03*
X0052416Y0190052D03*
X0052416Y0192060D03*
D14*
X0079236Y0196396D03*
X0079236Y0203796D03*
X0089436Y0203796D03*
X0089436Y0200096D03*
X0089436Y0196396D03*
D15*
X0022246Y0158094D03*
X0022246Y0155535D03*
X0022246Y0152976D03*
X0022246Y0150417D03*
X0022246Y0147858D03*
D16*
X0011616Y0149433D03*
X0011616Y0156519D03*
D17*
X0011616Y0138409D03*
X0011616Y0167543D03*
D18*
X0021852Y0165181D03*
X0021852Y0140771D03*
D19*
X0042498Y0175716D03*
X0042498Y0179456D03*
X0042498Y0183196D03*
X0052735Y0183196D03*
X0052735Y0175716D03*
D20*
G36*
X0066231Y0238246D02*
X0069014Y0235463D01*
X0056209Y0222658D01*
X0053426Y0225441D01*
X0066231Y0238246D01*
G37*
G36*
X0060663Y0243814D02*
X0063446Y0241031D01*
X0050641Y0228226D01*
X0047858Y0231009D01*
X0060663Y0243814D01*
G37*
D21*
G36*
X0070406Y0259682D02*
X0060942Y0250218D01*
X0056488Y0254672D01*
X0065952Y0264136D01*
X0070406Y0259682D01*
G37*
G36*
X0089336Y0240752D02*
X0079872Y0231288D01*
X0075418Y0235742D01*
X0084882Y0245206D01*
X0089336Y0240752D01*
G37*
D22*
X0067922Y0183136D03*
X0061230Y0183136D03*
D23*
X0040576Y0167202D03*
X0040576Y0160510D03*
D24*
X0015696Y0185463D03*
X0015696Y0191369D03*
D25*
X0073696Y0198872D03*
X0073696Y0200840D03*
X0079216Y0208552D03*
X0079216Y0210520D03*
X0079216Y0191720D03*
X0079216Y0189752D03*
D26*
G36*
X0049846Y0213541D02*
X0047849Y0209261D01*
X0038930Y0213421D01*
X0040927Y0217701D01*
X0049846Y0213541D01*
G37*
G36*
X0045686Y0204620D02*
X0043689Y0200340D01*
X0034770Y0204500D01*
X0036767Y0208780D01*
X0045686Y0204620D01*
G37*
G36*
X0041527Y0195700D02*
X0039530Y0191420D01*
X0030611Y0195580D01*
X0032608Y0199860D01*
X0041527Y0195700D01*
G37*
D27*
G36*
X0210595Y0241836D02*
X0208303Y0243759D01*
X0214375Y0250996D01*
X0216667Y0249073D01*
X0210595Y0241836D01*
G37*
G36*
X0214426Y0238622D02*
X0212134Y0240545D01*
X0218206Y0247782D01*
X0220498Y0245859D01*
X0214426Y0238622D01*
G37*
G36*
X0218256Y0235408D02*
X0215964Y0237331D01*
X0222036Y0244568D01*
X0224328Y0242645D01*
X0218256Y0235408D01*
G37*
G36*
X0222086Y0232194D02*
X0219794Y0234117D01*
X0225866Y0241354D01*
X0228158Y0239431D01*
X0222086Y0232194D01*
G37*
G36*
X0225916Y0228980D02*
X0223624Y0230903D01*
X0229696Y0238140D01*
X0231988Y0236217D01*
X0225916Y0228980D01*
G37*
G36*
X0236292Y0241345D02*
X0234000Y0243268D01*
X0240072Y0250505D01*
X0242364Y0248582D01*
X0236292Y0241345D01*
G37*
G36*
X0232462Y0244559D02*
X0230170Y0246482D01*
X0236242Y0253719D01*
X0238534Y0251796D01*
X0232462Y0244559D01*
G37*
G36*
X0228631Y0247773D02*
X0226339Y0249696D01*
X0232411Y0256933D01*
X0234703Y0255010D01*
X0228631Y0247773D01*
G37*
G36*
X0224801Y0250987D02*
X0222509Y0252910D01*
X0228581Y0260147D01*
X0230873Y0258224D01*
X0224801Y0250987D01*
G37*
G36*
X0220971Y0254201D02*
X0218679Y0256124D01*
X0224751Y0263361D01*
X0227043Y0261438D01*
X0220971Y0254201D01*
G37*
M02*
