G75*
%MOIN*%
%OFA0B0*%
%FSLAX25Y25*%
%IPPOS*%
%LPD*%
%AMOC8*
5,1,8,0,0,1.08239X$1,22.5*
%
%ADD10C,0.00400*%
%ADD11C,0.00500*%
%ADD12R,0.01181X0.01181*%
%ADD13C,0.00600*%
%ADD14C,0.00300*%
%ADD15C,0.01200*%
%ADD16C,0.00800*%
%ADD17C,0.02200*%
%ADD18R,0.00591X0.01181*%
%ADD19C,0.00000*%
D10*
X0166360Y0270201D02*
X0164826Y0271736D01*
X0165593Y0271736D01*
X0165593Y0272503D01*
X0164826Y0272503D01*
X0164826Y0271736D01*
X0167895Y0271736D02*
X0170964Y0271736D01*
X0170964Y0276340D01*
X0175568Y0276340D02*
X0175568Y0271736D01*
X0172499Y0271736D01*
X0177103Y0271736D02*
X0177103Y0274805D01*
X0178637Y0276340D01*
X0180172Y0274805D01*
X0180172Y0271736D01*
X0181707Y0271736D02*
X0181707Y0276340D01*
X0181707Y0274038D02*
X0184776Y0274038D01*
X0184776Y0271736D02*
X0184776Y0276340D01*
X0180172Y0274038D02*
X0177103Y0274038D01*
X0158687Y0273271D02*
X0156385Y0273271D01*
X0155618Y0274038D01*
X0155618Y0275573D01*
X0156385Y0276340D01*
X0158687Y0276340D01*
X0158687Y0271736D01*
X0154083Y0271736D02*
X0154083Y0276340D01*
X0151014Y0276340D01*
X0149479Y0276340D02*
X0146410Y0276340D01*
X0147945Y0276340D02*
X0147945Y0271736D01*
X0151014Y0271736D02*
X0154083Y0271736D01*
X0154083Y0274038D02*
X0152549Y0274038D01*
X0144875Y0274038D02*
X0143341Y0274038D01*
X0141806Y0276340D02*
X0144875Y0276340D01*
X0144875Y0271736D01*
X0141806Y0271736D01*
X0140271Y0271736D02*
X0140271Y0276340D01*
X0137969Y0276340D01*
X0137202Y0275573D01*
X0137202Y0274038D01*
X0137969Y0273271D01*
X0140271Y0273271D01*
X0138737Y0273271D02*
X0137202Y0271736D01*
X0135667Y0272503D02*
X0134900Y0271736D01*
X0133366Y0271736D01*
X0132598Y0272503D01*
X0132598Y0273271D01*
X0133366Y0274038D01*
X0134900Y0274038D01*
X0135667Y0274805D01*
X0135667Y0275573D01*
X0134900Y0276340D01*
X0133366Y0276340D01*
X0132598Y0275573D01*
X0131064Y0276340D02*
X0127994Y0276340D01*
X0126460Y0276340D02*
X0123390Y0271736D01*
X0123390Y0276340D01*
X0126460Y0276340D02*
X0126460Y0271736D01*
X0127994Y0271736D02*
X0131064Y0271736D01*
X0131064Y0276340D01*
X0131064Y0274038D02*
X0129529Y0274038D01*
X0117252Y0275573D02*
X0116484Y0276340D01*
X0114950Y0276340D01*
X0114183Y0275573D01*
X0114183Y0274805D01*
X0117252Y0271736D01*
X0114183Y0271736D01*
X0112648Y0272503D02*
X0109579Y0275573D01*
X0109579Y0272503D01*
X0110346Y0271736D01*
X0111881Y0271736D01*
X0112648Y0272503D01*
X0112648Y0275573D01*
X0111881Y0276340D01*
X0110346Y0276340D01*
X0109579Y0275573D01*
X0108044Y0274805D02*
X0106509Y0276340D01*
X0106509Y0271736D01*
X0104975Y0271736D02*
X0108044Y0271736D01*
X0103440Y0272503D02*
X0103440Y0274038D01*
X0101138Y0274038D01*
X0100371Y0273271D01*
X0100371Y0272503D01*
X0101138Y0271736D01*
X0102673Y0271736D01*
X0103440Y0272503D01*
X0103440Y0274038D02*
X0101905Y0275573D01*
X0100371Y0276340D01*
D11*
X0185623Y0196169D02*
X0185623Y0125303D01*
X0205308Y0125303D01*
X0248615Y0125303D02*
X0256489Y0125303D01*
X0256489Y0133177D01*
X0256489Y0188295D02*
X0256489Y0196169D01*
X0248615Y0196169D01*
X0187667Y0198138D02*
X0187669Y0198201D01*
X0187675Y0198263D01*
X0187685Y0198325D01*
X0187699Y0198386D01*
X0187716Y0198446D01*
X0187738Y0198505D01*
X0187763Y0198562D01*
X0187792Y0198618D01*
X0187824Y0198672D01*
X0187859Y0198723D01*
X0187898Y0198772D01*
X0187940Y0198819D01*
X0187984Y0198863D01*
X0188032Y0198904D01*
X0188081Y0198942D01*
X0188134Y0198977D01*
X0188188Y0199008D01*
X0188244Y0199036D01*
X0188302Y0199060D01*
X0188361Y0199080D01*
X0188421Y0199097D01*
X0188483Y0199110D01*
X0188545Y0199119D01*
X0188607Y0199124D01*
X0188670Y0199125D01*
X0188732Y0199122D01*
X0188794Y0199115D01*
X0188856Y0199104D01*
X0188917Y0199089D01*
X0188977Y0199071D01*
X0189035Y0199048D01*
X0189092Y0199022D01*
X0189148Y0198993D01*
X0189201Y0198960D01*
X0189252Y0198923D01*
X0189300Y0198884D01*
X0189346Y0198841D01*
X0189390Y0198796D01*
X0189430Y0198748D01*
X0189467Y0198698D01*
X0189501Y0198645D01*
X0189531Y0198590D01*
X0189558Y0198534D01*
X0189581Y0198476D01*
X0189601Y0198416D01*
X0189617Y0198355D01*
X0189629Y0198294D01*
X0189637Y0198232D01*
X0189641Y0198169D01*
X0189641Y0198107D01*
X0189637Y0198044D01*
X0189629Y0197982D01*
X0189617Y0197921D01*
X0189601Y0197860D01*
X0189581Y0197800D01*
X0189558Y0197742D01*
X0189531Y0197686D01*
X0189501Y0197631D01*
X0189467Y0197578D01*
X0189430Y0197528D01*
X0189390Y0197480D01*
X0189346Y0197435D01*
X0189300Y0197392D01*
X0189252Y0197353D01*
X0189201Y0197316D01*
X0189147Y0197283D01*
X0189092Y0197254D01*
X0189035Y0197228D01*
X0188977Y0197205D01*
X0188917Y0197187D01*
X0188856Y0197172D01*
X0188794Y0197161D01*
X0188732Y0197154D01*
X0188670Y0197151D01*
X0188607Y0197152D01*
X0188545Y0197157D01*
X0188483Y0197166D01*
X0188421Y0197179D01*
X0188361Y0197196D01*
X0188302Y0197216D01*
X0188244Y0197240D01*
X0188188Y0197268D01*
X0188134Y0197299D01*
X0188081Y0197334D01*
X0188032Y0197372D01*
X0187984Y0197413D01*
X0187940Y0197457D01*
X0187898Y0197504D01*
X0187859Y0197553D01*
X0187824Y0197604D01*
X0187792Y0197658D01*
X0187763Y0197714D01*
X0187738Y0197771D01*
X0187716Y0197830D01*
X0187699Y0197890D01*
X0187685Y0197951D01*
X0187675Y0198013D01*
X0187669Y0198075D01*
X0187667Y0198138D01*
X0187591Y0196169D02*
X0185623Y0196169D01*
D12*
X0238656Y0113296D03*
X0244736Y0113136D03*
X0254016Y0113056D03*
X0052736Y0167376D03*
X0052416Y0191056D03*
X0015696Y0187825D03*
D13*
X0080936Y0198796D02*
X0080936Y0201396D01*
X0082236Y0206096D02*
X0083136Y0206096D01*
X0085536Y0206096D01*
X0086436Y0206096D01*
X0085536Y0206096D02*
X0085534Y0206027D01*
X0085528Y0205959D01*
X0085518Y0205891D01*
X0085505Y0205824D01*
X0085487Y0205758D01*
X0085466Y0205693D01*
X0085441Y0205629D01*
X0085413Y0205567D01*
X0085381Y0205506D01*
X0085346Y0205447D01*
X0085307Y0205391D01*
X0085265Y0205336D01*
X0085220Y0205285D01*
X0085172Y0205235D01*
X0085122Y0205189D01*
X0085069Y0205146D01*
X0085013Y0205105D01*
X0084956Y0205068D01*
X0084896Y0205035D01*
X0084834Y0205004D01*
X0084771Y0204978D01*
X0084707Y0204955D01*
X0084641Y0204935D01*
X0084574Y0204920D01*
X0084507Y0204908D01*
X0084439Y0204900D01*
X0084370Y0204896D01*
X0084302Y0204896D01*
X0084233Y0204900D01*
X0084165Y0204908D01*
X0084098Y0204920D01*
X0084031Y0204935D01*
X0083965Y0204955D01*
X0083901Y0204978D01*
X0083838Y0205004D01*
X0083776Y0205035D01*
X0083716Y0205068D01*
X0083659Y0205105D01*
X0083603Y0205146D01*
X0083550Y0205189D01*
X0083500Y0205235D01*
X0083452Y0205285D01*
X0083407Y0205336D01*
X0083365Y0205391D01*
X0083326Y0205447D01*
X0083291Y0205506D01*
X0083259Y0205567D01*
X0083231Y0205629D01*
X0083206Y0205693D01*
X0083185Y0205758D01*
X0083167Y0205824D01*
X0083154Y0205891D01*
X0083144Y0205959D01*
X0083138Y0206027D01*
X0083136Y0206096D01*
X0082236Y0194096D02*
X0086436Y0194096D01*
D14*
X0089450Y0206430D02*
X0092586Y0209566D01*
X0092586Y0207998D02*
X0089450Y0207998D01*
X0089450Y0209566D02*
X0092586Y0206430D01*
X0091018Y0206430D02*
X0091018Y0209566D01*
X0197108Y0232086D02*
X0197049Y0232767D01*
X0197670Y0233509D01*
X0198352Y0233568D01*
X0199834Y0232324D01*
X0199894Y0231643D01*
X0199272Y0230902D01*
X0198590Y0230842D01*
X0197108Y0232086D01*
X0198622Y0234643D02*
X0199244Y0235384D01*
X0198933Y0235013D02*
X0201156Y0233148D01*
X0201467Y0233518D02*
X0200846Y0232777D01*
X0201747Y0234604D02*
X0200265Y0235848D01*
X0200205Y0236529D01*
X0201138Y0237641D01*
X0203361Y0235775D01*
X0202429Y0234664D01*
X0201747Y0234604D01*
X0204035Y0233316D02*
X0204968Y0234427D01*
X0207192Y0232562D01*
X0206259Y0231450D01*
X0205577Y0231390D01*
X0204095Y0232634D01*
X0204035Y0233316D01*
X0203445Y0231859D02*
X0204927Y0230615D01*
X0204987Y0229934D01*
X0204365Y0229193D01*
X0203683Y0229133D01*
X0203404Y0228047D02*
X0202160Y0226565D01*
X0201510Y0225790D02*
X0199286Y0227656D01*
X0200087Y0226352D02*
X0200266Y0224308D01*
X0200769Y0226412D02*
X0198042Y0226173D01*
X0201180Y0229913D02*
X0203404Y0228047D01*
X0205972Y0227844D02*
X0206031Y0227163D01*
X0207514Y0225919D01*
X0208195Y0225979D01*
X0208817Y0226720D01*
X0208757Y0227401D01*
X0207275Y0228645D01*
X0206594Y0228586D01*
X0205972Y0227844D01*
X0207925Y0229420D02*
X0207866Y0230102D01*
X0208798Y0231213D01*
X0211022Y0229348D01*
X0210089Y0228236D01*
X0209408Y0228176D01*
X0207925Y0229420D01*
X0209449Y0231988D02*
X0211672Y0230123D01*
X0211553Y0231486D01*
X0212916Y0231605D01*
X0210692Y0233470D01*
X0211713Y0233934D02*
X0211654Y0234616D01*
X0212275Y0235357D01*
X0212957Y0235417D01*
X0213328Y0235106D01*
X0213387Y0234424D01*
X0212765Y0233683D01*
X0212825Y0233002D01*
X0213195Y0232691D01*
X0213877Y0232750D01*
X0214499Y0233491D01*
X0214439Y0234173D01*
X0216417Y0232514D02*
X0217396Y0229166D01*
X0215173Y0231031D01*
X0214893Y0229946D02*
X0216376Y0228702D01*
X0216435Y0228020D01*
X0215813Y0227279D01*
X0215132Y0227220D01*
X0213649Y0228463D02*
X0213590Y0229145D01*
X0214212Y0229886D01*
X0214893Y0229946D01*
X0216417Y0232514D02*
X0218640Y0230648D01*
X0220988Y0228678D02*
X0220055Y0227566D01*
X0220115Y0226885D01*
X0221227Y0225952D01*
X0220576Y0225177D02*
X0218353Y0227043D01*
X0217420Y0225931D01*
X0217480Y0225249D01*
X0218221Y0224627D01*
X0218902Y0224687D01*
X0219835Y0225799D01*
X0219213Y0225058D02*
X0219333Y0223695D01*
X0218682Y0222920D02*
X0217439Y0221437D01*
X0216418Y0220974D02*
X0216477Y0220292D01*
X0215855Y0219551D01*
X0215174Y0219491D01*
X0214803Y0219802D01*
X0214744Y0220484D01*
X0215366Y0221225D01*
X0215306Y0221906D01*
X0214935Y0222217D01*
X0214254Y0222158D01*
X0213632Y0221417D01*
X0213692Y0220735D01*
X0212671Y0220271D02*
X0214894Y0218405D01*
X0213651Y0216923D01*
X0213161Y0218597D02*
X0213783Y0219338D01*
X0212671Y0220271D02*
X0211427Y0218789D01*
X0210777Y0218014D02*
X0209533Y0216532D01*
X0210155Y0217273D02*
X0212378Y0215407D01*
X0215215Y0223303D02*
X0216459Y0224785D01*
X0218682Y0222920D01*
X0217571Y0223853D02*
X0216949Y0223111D01*
X0220988Y0228678D02*
X0222470Y0227434D01*
X0210669Y0236705D02*
X0210609Y0237387D01*
X0210669Y0236705D02*
X0210047Y0235964D01*
X0209365Y0235905D01*
X0208995Y0236216D01*
X0208935Y0236897D01*
X0209557Y0237638D01*
X0209497Y0238320D01*
X0209127Y0238631D01*
X0208445Y0238571D01*
X0207823Y0237830D01*
X0207883Y0237148D01*
X0206862Y0236684D02*
X0209086Y0234819D01*
X0207723Y0234699D01*
X0207842Y0233336D01*
X0205618Y0235202D01*
X0204012Y0236550D02*
X0201788Y0238416D01*
X0203032Y0239898D02*
X0205255Y0238033D01*
X0203892Y0237913D01*
X0204012Y0236550D01*
X0205535Y0239118D02*
X0206217Y0239178D01*
X0206838Y0239919D01*
X0206779Y0240601D01*
X0205727Y0240852D02*
X0205105Y0240111D01*
X0205164Y0239429D01*
X0205535Y0239118D01*
X0205727Y0240852D02*
X0205667Y0241534D01*
X0205297Y0241845D01*
X0204615Y0241785D01*
X0203993Y0241044D01*
X0204053Y0240362D01*
X0203445Y0231859D02*
X0202763Y0231799D01*
X0202141Y0231058D01*
X0202201Y0230377D01*
X0233637Y0260062D02*
X0233577Y0260743D01*
X0234510Y0261855D01*
X0236733Y0259989D01*
X0235801Y0258878D01*
X0235119Y0258818D01*
X0233637Y0260062D01*
X0231970Y0262092D02*
X0231289Y0262032D01*
X0229807Y0263276D01*
X0229747Y0263957D01*
X0230680Y0265069D01*
X0232903Y0263203D01*
X0231970Y0262092D01*
X0233553Y0263978D02*
X0231330Y0265844D01*
X0232574Y0267326D02*
X0233553Y0263978D01*
X0234797Y0265461D02*
X0232574Y0267326D01*
X0233594Y0267790D02*
X0233535Y0268472D01*
X0234157Y0269213D01*
X0234838Y0269272D01*
X0236321Y0268029D01*
X0236380Y0267347D01*
X0235758Y0266606D01*
X0235077Y0266546D01*
X0234336Y0267168D01*
X0234958Y0267909D01*
X0232239Y0270190D02*
X0232120Y0271553D01*
X0230637Y0272797D01*
X0229394Y0271315D02*
X0230876Y0270071D01*
X0232239Y0270190D01*
X0230967Y0268674D02*
X0230034Y0267563D01*
X0229353Y0267503D01*
X0227870Y0268747D01*
X0227811Y0269428D01*
X0228743Y0270540D01*
X0230967Y0268674D01*
X0229073Y0266417D02*
X0228140Y0265306D01*
X0227459Y0265246D01*
X0225976Y0266490D01*
X0225917Y0267171D01*
X0226850Y0268283D01*
X0229073Y0266417D01*
X0235160Y0262630D02*
X0237384Y0260764D01*
X0236404Y0264112D01*
X0238627Y0262247D01*
X0238907Y0263332D02*
X0238166Y0263954D01*
X0238788Y0264695D01*
X0238907Y0263332D02*
X0239589Y0263392D01*
X0240210Y0264133D01*
X0240151Y0264815D01*
X0238668Y0266058D01*
X0237987Y0265999D01*
X0237365Y0265258D01*
X0237425Y0264576D01*
X0240884Y0261673D02*
X0243610Y0261912D01*
X0242929Y0261852D02*
X0243108Y0259808D01*
X0242458Y0259033D02*
X0241214Y0257550D01*
X0240724Y0259224D02*
X0241346Y0259965D01*
X0242458Y0259033D02*
X0240234Y0260898D01*
X0238990Y0259416D01*
X0238340Y0258641D02*
X0238711Y0258330D01*
X0238830Y0256967D01*
X0239942Y0256034D01*
X0238830Y0256967D02*
X0237467Y0256848D01*
X0237096Y0257159D01*
X0241238Y0254315D02*
X0242170Y0255427D01*
X0244394Y0253562D01*
X0243461Y0252450D01*
X0242779Y0252390D01*
X0241297Y0253634D01*
X0241238Y0254315D01*
X0242821Y0256202D02*
X0245044Y0254336D01*
X0244064Y0257684D01*
X0246288Y0255819D01*
X0246567Y0256905D02*
X0245826Y0257526D01*
X0246448Y0258268D01*
X0246329Y0259631D02*
X0247811Y0258387D01*
X0247871Y0257705D01*
X0247249Y0256964D01*
X0246567Y0256905D01*
X0245085Y0258148D02*
X0245026Y0258830D01*
X0245647Y0259571D01*
X0246329Y0259631D01*
X0244352Y0261290D02*
X0242128Y0263155D01*
D15*
X0011222Y0137228D02*
X0006104Y0137228D01*
X0019490Y0137256D02*
X0019490Y0137228D01*
X0019490Y0137256D02*
X0023356Y0137256D01*
X0023427Y0137228D02*
X0023427Y0141165D01*
X0023427Y0164787D02*
X0023427Y0168724D01*
X0019490Y0168724D01*
X0011222Y0168724D02*
X0006104Y0168724D01*
D16*
X0016684Y0195991D02*
X0029173Y0190168D01*
X0030005Y0191952D01*
X0016684Y0195991D02*
X0031659Y0228104D01*
X0044148Y0222281D01*
X0043316Y0220497D01*
X0047300Y0239917D02*
X0045073Y0242144D01*
X0054817Y0251888D01*
X0054260Y0246877D02*
X0047300Y0239917D01*
X0054260Y0246877D02*
X0057600Y0243536D01*
X0068736Y0232400D02*
X0072077Y0229060D01*
X0065117Y0222100D01*
X0067344Y0219873D01*
X0077088Y0229617D01*
X0082655Y0246320D02*
X0071520Y0257455D01*
X0049307Y0185056D02*
X0045925Y0185056D01*
X0050807Y0180513D02*
X0050807Y0178399D01*
X0049307Y0173856D02*
X0045925Y0173856D01*
X0202073Y0252840D02*
X0214979Y0268221D01*
X0249134Y0239562D01*
X0236228Y0224180D01*
X0202073Y0252840D01*
D17*
X0064576Y0183256D02*
X0064576Y0183016D01*
X0040696Y0163856D02*
X0040456Y0163856D01*
D18*
X0017172Y0187825D03*
X0014220Y0187825D03*
D19*
X0022737Y0196469D02*
X0022739Y0196553D01*
X0022745Y0196636D01*
X0022755Y0196719D01*
X0022769Y0196802D01*
X0022786Y0196884D01*
X0022808Y0196965D01*
X0022833Y0197044D01*
X0022862Y0197123D01*
X0022895Y0197200D01*
X0022931Y0197275D01*
X0022971Y0197349D01*
X0023014Y0197421D01*
X0023061Y0197490D01*
X0023111Y0197557D01*
X0023164Y0197622D01*
X0023220Y0197684D01*
X0023278Y0197744D01*
X0023340Y0197801D01*
X0023404Y0197854D01*
X0023471Y0197905D01*
X0023540Y0197952D01*
X0023611Y0197997D01*
X0023684Y0198037D01*
X0023759Y0198074D01*
X0023836Y0198108D01*
X0023914Y0198138D01*
X0023993Y0198164D01*
X0024074Y0198187D01*
X0024156Y0198205D01*
X0024238Y0198220D01*
X0024321Y0198231D01*
X0024404Y0198238D01*
X0024488Y0198241D01*
X0024572Y0198240D01*
X0024655Y0198235D01*
X0024739Y0198226D01*
X0024821Y0198213D01*
X0024903Y0198197D01*
X0024984Y0198176D01*
X0025065Y0198152D01*
X0025143Y0198124D01*
X0025221Y0198092D01*
X0025297Y0198056D01*
X0025371Y0198017D01*
X0025443Y0197975D01*
X0025513Y0197929D01*
X0025581Y0197880D01*
X0025646Y0197828D01*
X0025709Y0197773D01*
X0025769Y0197715D01*
X0025827Y0197654D01*
X0025881Y0197590D01*
X0025933Y0197524D01*
X0025981Y0197456D01*
X0026026Y0197385D01*
X0026067Y0197312D01*
X0026106Y0197238D01*
X0026140Y0197162D01*
X0026171Y0197084D01*
X0026198Y0197005D01*
X0026222Y0196924D01*
X0026241Y0196843D01*
X0026257Y0196761D01*
X0026269Y0196678D01*
X0026277Y0196594D01*
X0026281Y0196511D01*
X0026281Y0196427D01*
X0026277Y0196344D01*
X0026269Y0196260D01*
X0026257Y0196177D01*
X0026241Y0196095D01*
X0026222Y0196014D01*
X0026198Y0195933D01*
X0026171Y0195854D01*
X0026140Y0195776D01*
X0026106Y0195700D01*
X0026067Y0195626D01*
X0026026Y0195553D01*
X0025981Y0195482D01*
X0025933Y0195414D01*
X0025881Y0195348D01*
X0025827Y0195284D01*
X0025769Y0195223D01*
X0025709Y0195165D01*
X0025646Y0195110D01*
X0025581Y0195058D01*
X0025513Y0195009D01*
X0025443Y0194963D01*
X0025371Y0194921D01*
X0025297Y0194882D01*
X0025221Y0194846D01*
X0025143Y0194814D01*
X0025065Y0194786D01*
X0024984Y0194762D01*
X0024903Y0194741D01*
X0024821Y0194725D01*
X0024739Y0194712D01*
X0024655Y0194703D01*
X0024572Y0194698D01*
X0024488Y0194697D01*
X0024404Y0194700D01*
X0024321Y0194707D01*
X0024238Y0194718D01*
X0024156Y0194733D01*
X0024074Y0194751D01*
X0023993Y0194774D01*
X0023914Y0194800D01*
X0023836Y0194830D01*
X0023759Y0194864D01*
X0023684Y0194901D01*
X0023611Y0194941D01*
X0023540Y0194986D01*
X0023471Y0195033D01*
X0023404Y0195084D01*
X0023340Y0195137D01*
X0023278Y0195194D01*
X0023220Y0195254D01*
X0023164Y0195316D01*
X0023111Y0195381D01*
X0023061Y0195448D01*
X0023014Y0195517D01*
X0022971Y0195589D01*
X0022931Y0195663D01*
X0022895Y0195738D01*
X0022862Y0195815D01*
X0022833Y0195894D01*
X0022808Y0195973D01*
X0022786Y0196054D01*
X0022769Y0196136D01*
X0022755Y0196219D01*
X0022745Y0196302D01*
X0022739Y0196385D01*
X0022737Y0196469D01*
X0034551Y0221803D02*
X0034553Y0221887D01*
X0034559Y0221970D01*
X0034569Y0222053D01*
X0034583Y0222136D01*
X0034600Y0222218D01*
X0034622Y0222299D01*
X0034647Y0222378D01*
X0034676Y0222457D01*
X0034709Y0222534D01*
X0034745Y0222609D01*
X0034785Y0222683D01*
X0034828Y0222755D01*
X0034875Y0222824D01*
X0034925Y0222891D01*
X0034978Y0222956D01*
X0035034Y0223018D01*
X0035092Y0223078D01*
X0035154Y0223135D01*
X0035218Y0223188D01*
X0035285Y0223239D01*
X0035354Y0223286D01*
X0035425Y0223331D01*
X0035498Y0223371D01*
X0035573Y0223408D01*
X0035650Y0223442D01*
X0035728Y0223472D01*
X0035807Y0223498D01*
X0035888Y0223521D01*
X0035970Y0223539D01*
X0036052Y0223554D01*
X0036135Y0223565D01*
X0036218Y0223572D01*
X0036302Y0223575D01*
X0036386Y0223574D01*
X0036469Y0223569D01*
X0036553Y0223560D01*
X0036635Y0223547D01*
X0036717Y0223531D01*
X0036798Y0223510D01*
X0036879Y0223486D01*
X0036957Y0223458D01*
X0037035Y0223426D01*
X0037111Y0223390D01*
X0037185Y0223351D01*
X0037257Y0223309D01*
X0037327Y0223263D01*
X0037395Y0223214D01*
X0037460Y0223162D01*
X0037523Y0223107D01*
X0037583Y0223049D01*
X0037641Y0222988D01*
X0037695Y0222924D01*
X0037747Y0222858D01*
X0037795Y0222790D01*
X0037840Y0222719D01*
X0037881Y0222646D01*
X0037920Y0222572D01*
X0037954Y0222496D01*
X0037985Y0222418D01*
X0038012Y0222339D01*
X0038036Y0222258D01*
X0038055Y0222177D01*
X0038071Y0222095D01*
X0038083Y0222012D01*
X0038091Y0221928D01*
X0038095Y0221845D01*
X0038095Y0221761D01*
X0038091Y0221678D01*
X0038083Y0221594D01*
X0038071Y0221511D01*
X0038055Y0221429D01*
X0038036Y0221348D01*
X0038012Y0221267D01*
X0037985Y0221188D01*
X0037954Y0221110D01*
X0037920Y0221034D01*
X0037881Y0220960D01*
X0037840Y0220887D01*
X0037795Y0220816D01*
X0037747Y0220748D01*
X0037695Y0220682D01*
X0037641Y0220618D01*
X0037583Y0220557D01*
X0037523Y0220499D01*
X0037460Y0220444D01*
X0037395Y0220392D01*
X0037327Y0220343D01*
X0037257Y0220297D01*
X0037185Y0220255D01*
X0037111Y0220216D01*
X0037035Y0220180D01*
X0036957Y0220148D01*
X0036879Y0220120D01*
X0036798Y0220096D01*
X0036717Y0220075D01*
X0036635Y0220059D01*
X0036553Y0220046D01*
X0036469Y0220037D01*
X0036386Y0220032D01*
X0036302Y0220031D01*
X0036218Y0220034D01*
X0036135Y0220041D01*
X0036052Y0220052D01*
X0035970Y0220067D01*
X0035888Y0220085D01*
X0035807Y0220108D01*
X0035728Y0220134D01*
X0035650Y0220164D01*
X0035573Y0220198D01*
X0035498Y0220235D01*
X0035425Y0220275D01*
X0035354Y0220320D01*
X0035285Y0220367D01*
X0035218Y0220418D01*
X0035154Y0220471D01*
X0035092Y0220528D01*
X0035034Y0220588D01*
X0034978Y0220650D01*
X0034925Y0220715D01*
X0034875Y0220782D01*
X0034828Y0220851D01*
X0034785Y0220923D01*
X0034745Y0220997D01*
X0034709Y0221072D01*
X0034676Y0221149D01*
X0034647Y0221228D01*
X0034622Y0221307D01*
X0034600Y0221388D01*
X0034583Y0221470D01*
X0034569Y0221553D01*
X0034559Y0221636D01*
X0034553Y0221719D01*
X0034551Y0221803D01*
M02*
